<?xml version="1.0" standalone="no"?>
<!DOCTYPE svg PUBLIC "-//W3C//DTD SVG 20010904//EN"
 "http://www.w3.org/TR/2001/REC-SVG-20010904/DTD/svg10.dtd">
<svg version="1.0" xmlns="http://www.w3.org/2000/svg"
 width="900.000000pt" height="504.000000pt" viewBox="0 0 900.000000 504.000000"
 preserveAspectRatio="xMidYMid meet">
<metadata>
Created by potrace 1.16, written by Peter Selinger 2001-2019
</metadata>
<g transform="translate(0.000000,504.000000) scale(0.100000,-0.100000)"
fill="#000000" stroke="none">
<path d="M0 2520 l0 -2520 4500 0 4500 0 0 2520 0 2520 -4500 0 -4500 0 0
-2520z m3770 2080 c11 -7 2 -10 -33 -10 -30 0 -46 4 -42 10 8 13 55 13 75 0z
m-102 -25 c-2 -1 -16 -5 -33 -9 -28 -7 -29 -6 -10 7 10 8 25 12 33 10 7 -3 12
-7 10 -8z m142 5 c0 -5 -5 -10 -11 -10 -5 0 -7 5 -4 10 3 6 8 10 11 10 2 0 4
-4 4 -10z m15 -34 c28 -12 65 -40 84 -61 33 -38 83 -136 96 -188 7 -26 8 -26
21 -10 12 17 13 16 14 -9 0 -14 -4 -28 -9 -30 -5 -1 -6 -19 -3 -38 l6 -35 7
35 c4 21 6 1 4 -50 -1 -47 0 -66 2 -42 2 23 9 42 15 42 7 0 8 -16 4 -47 -16
-115 -18 -240 -6 -354 9 -89 9 -124 1 -132 -8 -8 -11 11 -13 73 -1 67 -2 72
-5 25 -7 -161 -93 -657 -147 -860 -9 -32 -16 -69 -16 -80 0 -12 -3 -25 -7 -29
-5 -4 -13 -26 -20 -49 l-12 -42 6 50 c3 28 10 52 14 53 5 2 9 28 9 57 0 55
-18 77 -45 55 -18 -15 -80 18 -94 48 -6 13 -16 20 -21 17 -6 -3 -10 -1 -10 4
0 21 37 11 50 -13 13 -26 40 -43 40 -26 0 6 8 10 18 10 14 0 15 2 2 10 -8 5
-25 10 -37 10 -25 0 -29 10 -12 27 8 8 2 10 -23 8 -18 -1 -40 3 -48 11 -8 7
-25 22 -37 34 -28 24 -37 26 -29 4 5 -14 4 -15 -8 -5 -12 10 -13 17 -3 31 9
16 7 23 -17 45 -22 21 -25 29 -16 40 12 15 6 35 -11 35 -6 0 -7 -4 -4 -10 3
-5 2 -10 -4 -10 -20 0 -21 19 -1 25 24 7 26 23 5 31 -20 8 -19 29 2 50 16 16
16 18 -6 35 -20 17 -23 26 -18 65 4 36 2 44 -9 40 -8 -3 -18 3 -24 14 -8 16
-8 18 5 14 19 -8 19 6 -1 34 -9 13 -13 29 -10 37 3 8 2 15 -2 15 -4 0 -7 42
-8 92 0 51 -1 104 -2 118 0 14 1 71 3 128 4 85 2 102 -10 102 -9 0 -15 9 -15
23 1 21 1 22 15 3 8 -11 15 -15 15 -9 0 7 -4 15 -10 18 -5 3 -10 17 -10 31 0
14 4 22 10 19 6 -3 10 1 10 9 0 8 -9 18 -21 21 -19 6 -19 8 -4 24 8 10 13 24
11 32 -13 39 -14 109 -2 116 17 11 26 39 16 49 -5 5 -5 25 -1 47 5 21 5 37 0
37 -5 0 -9 7 -9 15 0 8 5 15 10 15 6 0 10 6 10 14 0 8 7 16 15 20 8 3 15 13
15 22 0 14 -2 15 -17 3 -15 -13 -15 -12 -3 7 18 30 77 67 91 58 8 -4 9 -3 5 4
-4 7 -1 12 8 12 9 0 16 4 16 9 0 27 125 26 185 -3z m-255 -4 c0 -4 -10 -13
-22 -21 -23 -14 -23 -14 -4 8 20 22 26 25 26 13z m345 -23 c11 -16 1 -19 -13
-3 -7 8 -8 14 -3 14 5 0 13 -5 16 -11z m-396 -21 c-2 -2 -17 -14 -33 -28 -27
-24 -28 -24 -17 -3 11 22 42 45 50 37 2 -2 2 -5 0 -6z m443 -36 c10 -8 15 -19
12 -23 -3 -5 0 -9 5 -9 6 0 11 -4 11 -10 0 -18 -19 -10 -25 10 -4 12 -16 30
-28 42 -24 22 -4 15 25 -10z m-518 -47 c-4 -8 -11 -15 -16 -15 -6 0 -5 6 2 15
7 8 14 15 16 15 2 0 1 -7 -2 -15z m-31 -40 c-3 -9 -8 -14 -10 -11 -3 3 -2 9 2
15 9 16 15 13 8 -4z m33 -22 c-10 -10 -19 5 -10 18 6 11 8 11 12 0 2 -7 1 -15
-2 -18z m35 10 c13 -16 12 -17 -3 -4 -10 7 -18 15 -18 17 0 8 8 3 21 -13z
m545 -50 c-8 -20 -11 -16 -20 21 -6 26 -6 27 9 12 10 -9 14 -24 11 -33z m-650
0 c-18 -33 -21 -26 -6 13 6 15 13 24 16 21 3 -3 -1 -18 -10 -34z m-16 -37 c0
-3 -4 -8 -10 -11 -5 -3 -10 -1 -10 4 0 6 5 11 10 11 6 0 10 -2 10 -4z m100
-21 c0 -8 -2 -15 -4 -15 -2 0 -6 7 -10 15 -3 8 -1 15 4 15 6 0 10 -7 10 -15z
m1657 -9 c3 -3 14 -6 23 -6 20 0 57 -26 49 -35 -4 -3 -14 1 -23 10 -9 9 -22
15 -29 12 -6 -2 2 -11 19 -20 62 -32 128 -117 145 -187 4 -14 5 -5 3 19 -2 25
-12 53 -21 63 -9 10 -11 18 -5 18 12 0 38 -40 34 -54 -2 -4 2 -14 9 -22 8 -10
8 -23 -1 -50 -12 -34 -9 -93 6 -156 4 -18 2 -28 -5 -28 -6 0 -12 15 -12 33 -1
26 -2 27 -6 7 -6 -38 -44 -130 -70 -173 -52 -84 -141 -160 -228 -194 -18 -7
-23 -12 -12 -12 31 -2 18 -18 -20 -25 -49 -8 -172 -8 -212 0 -33 7 -42 23 -13
25 9 0 4 5 -13 11 -16 6 -50 29 -74 52 -35 32 -41 35 -28 14 10 -16 13 -29 7
-33 -6 -3 -10 0 -10 8 0 8 -7 20 -15 27 -12 10 -13 16 -4 27 7 7 9 17 5 20 -4
4 -11 1 -17 -7 -6 -11 -8 -7 -5 15 2 17 1 24 -1 18 -2 -7 -9 -13 -15 -13 -6 0
-7 7 -2 18 4 9 11 66 15 125 4 60 13 115 20 123 9 11 9 17 -1 29 -7 8 -8 20
-4 27 5 7 9 15 10 18 3 19 40 80 51 84 7 3 2 -11 -11 -32 -14 -20 -28 -50 -32
-67 -5 -24 -1 -20 20 18 30 56 74 116 96 134 8 6 12 15 7 19 -4 4 -21 -8 -37
-27 -16 -19 -29 -29 -30 -24 0 6 28 37 62 70 33 33 58 52 55 43 -9 -24 3 -22
42 6 19 14 46 28 62 31 29 7 41 25 17 25 -7 0 -2 6 11 13 25 12 176 15 188 3z
m-227 -23 c-1 -5 -16 -15 -34 -24 -23 -10 -33 -12 -29 -4 7 20 63 44 63 28z
m-1560 -19 c0 -8 -5 -12 -10 -9 -6 4 -8 11 -5 16 9 14 15 11 15 -7z m1914 -30
c14 -15 26 -31 26 -35 0 -5 -10 1 -21 14 -12 12 -29 28 -37 35 -9 6 -11 12 -5
12 6 0 22 -12 37 -26z m-1784 -9 c0 -14 -4 -25 -10 -25 -11 0 -14 33 -3 43 11
11 13 8 13 -18z m-145 5 c3 -5 1 -10 -4 -10 -6 0 -11 5 -11 10 0 6 2 10 4 10
3 0 8 -4 11 -10z m-18 -62 c-3 -7 -5 -2 -5 12 0 14 2 19 5 13 2 -7 2 -19 0
-25z m-1489 5 c-15 -2 -42 -2 -60 0 -18 2 -6 4 27 4 33 0 48 -2 33 -4z m-28
-15 c30 0 67 3 83 7 17 5 27 3 27 -4 0 -6 -8 -11 -17 -12 -11 0 -13 -3 -5 -6
7 -3 25 0 40 5 29 10 69 -7 54 -23 -4 -4 3 -4 16 0 24 7 56 -11 46 -26 -3 -5
2 -6 11 -3 11 5 18 0 22 -15 4 -15 9 -19 17 -11 9 7 25 -3 56 -35 24 -25 41
-47 38 -50 -3 -3 -16 7 -30 22 -13 15 -32 35 -43 43 -13 9 -11 4 6 -15 14 -17
38 -46 54 -65 16 -19 26 -27 22 -17 -3 9 -2 17 2 17 12 0 22 -28 12 -35 -5 -2
-2 -20 7 -40 10 -22 19 -30 23 -23 5 7 11 9 15 5 4 -3 1 -13 -5 -21 -8 -10 -9
-16 -1 -21 5 -3 10 -13 10 -21 0 -14 28 -83 79 -199 10 -22 57 -139 105 -260
97 -244 94 -236 132 -320 15 -33 28 -74 28 -91 0 -20 4 -30 12 -27 6 2 15 -8
18 -24 4 -15 17 -47 29 -71 20 -40 20 -44 4 -77 -14 -29 -15 -39 -5 -55 7 -11
16 -20 19 -20 12 0 27 -57 19 -70 -5 -9 -9 -9 -14 -1 -4 6 -4 16 0 22 4 7 1
10 -7 7 -8 -3 -14 -14 -13 -26 0 -12 -3 -19 -7 -16 -4 2 -10 0 -14 -6 -3 -6 1
-13 9 -16 9 -3 16 -15 16 -26 0 -10 -4 -17 -9 -14 -5 3 -12 -5 -15 -18 -3 -13
-9 -31 -12 -40 -4 -10 -1 -16 9 -16 8 0 17 -9 20 -20 7 -28 -3 -60 -19 -60
-18 0 -18 -16 0 -23 8 -3 16 -1 19 6 2 8 9 6 21 -6 14 -13 14 -17 3 -17 -8 0
-21 -8 -28 -17 -12 -15 -12 -16 3 -10 10 3 20 2 23 -3 5 -9 -23 -15 -47 -11
-5 0 -8 -6 -8 -15 0 -8 5 -12 10 -9 11 7 33 -42 25 -56 -3 -4 1 -20 10 -33 10
-15 13 -30 9 -38 -5 -7 -10 -44 -12 -83 -3 -68 -10 -93 -19 -67 -5 14 -23 16
-23 2 0 -5 10 -12 23 -15 20 -5 23 -13 23 -49 1 -23 4 -48 8 -54 10 -17 -2
-15 -20 2 -11 11 -11 16 -1 20 6 3 3 5 -8 3 -13 -1 -21 -11 -23 -27 -2 -14 -9
-31 -14 -37 -13 -16 -3 -17 22 -3 16 9 18 8 13 -6 -4 -12 -3 -15 5 -10 7 4 12
2 12 -3 0 -6 -4 -11 -8 -11 -5 0 -8 -26 -7 -57 1 -61 -12 -103 -32 -103 -8 0
-9 -9 -4 -27 13 -49 0 -70 -40 -65 -9 2 -5 -50 4 -65 13 -21 2 -15 -24 13 -17
18 -19 23 -6 18 18 -7 22 3 8 25 -5 7 -13 11 -18 8 -12 -8 -53 20 -53 36 0 7
-9 18 -20 25 -11 7 -20 17 -20 24 0 6 -7 20 -17 30 -9 10 -11 18 -5 18 6 0 18
-12 26 -28 20 -36 75 -100 76 -87 0 10 -118 169 -186 250 -22 27 -23 27 -13 5
12 -25 12 -25 -10 -6 -17 16 -19 22 -8 34 10 13 9 15 -5 9 -20 -7 -86 67 -68
78 5 3 10 2 10 -3 0 -5 12 -22 26 -38 29 -32 24 -20 -19 43 -30 45 -47 61 -47
44 0 -5 8 -15 18 -20 9 -6 12 -11 6 -11 -17 0 -37 28 -31 44 3 8 -4 22 -16 33
l-22 18 19 -22 c23 -27 7 -31 -17 -5 -12 13 -14 21 -6 29 8 8 6 11 -7 10 -14
-2 -18 4 -17 21 2 13 -1 21 -6 17 -15 -9 -42 25 -36 45 3 10 1 21 -4 25 -7 4
-8 -1 -4 -12 6 -16 5 -16 -10 -4 -10 8 -15 16 -12 19 3 3 -4 12 -16 20 -17 12
-18 16 -7 30 7 9 8 13 2 9 -15 -9 -38 19 -28 34 4 7 3 9 -3 6 -6 -4 -16 0 -23
8 -7 8 -9 15 -4 15 5 0 1 5 -8 11 -10 5 -18 16 -18 24 0 7 -3 15 -7 17 -5 2
-21 22 -36 44 -15 23 -39 51 -52 64 l-24 22 -26 -28 c-18 -20 -24 -35 -20 -51
3 -13 1 -23 -5 -23 -13 0 -13 31 1 67 8 23 8 26 -3 15 -9 -9 -12 -39 -10 -103
2 -57 -1 -89 -8 -89 -5 0 -11 17 -11 38 -2 32 -3 33 -6 8 -3 -16 1 -39 7 -52
8 -14 10 -38 5 -65 -3 -24 -8 -69 -9 -99 -4 -90 -9 -99 -16 -30 -5 45 -6 29
-4 -50 2 -63 0 -151 -6 -195 -6 -44 -12 -96 -15 -115 -11 -92 -26 -177 -35
-195 -5 -11 -9 -27 -7 -35 2 -20 -33 -172 -43 -185 -5 -5 -11 -27 -15 -48 -4
-20 -12 -37 -17 -37 -5 0 -6 -9 -3 -20 3 -11 2 -20 -3 -20 -5 0 -12 -14 -16
-32 -17 -86 -185 -401 -221 -415 -8 -3 -13 -8 -10 -12 2 -4 -31 -43 -75 -86
-52 -52 -83 -76 -94 -72 -9 4 -13 1 -11 -6 4 -12 -97 -77 -121 -77 -7 0 -16
-5 -19 -10 -4 -6 -11 -8 -16 -4 -5 3 -16 1 -24 -6 -7 -6 -19 -10 -27 -9 -7 1
-26 -3 -43 -10 -35 -15 -147 -10 -153 7 -2 6 -9 9 -17 6 -7 -3 -16 -1 -20 5
-3 6 2 11 12 12 10 0 13 3 6 5 -7 3 -21 0 -32 -5 -16 -9 -23 -7 -34 9 -7 11
-16 17 -19 14 -3 -3 -15 7 -26 21 -17 21 -20 35 -15 75 3 26 1 62 -5 79 -6 17
-7 31 -2 31 5 0 10 -6 13 -12 2 -7 2 0 -1 16 -3 21 -1 27 9 21 9 -6 11 -3 6 9
-5 14 -3 17 8 12 17 -6 20 5 4 21 -7 7 -6 12 6 17 10 4 14 2 9 -6 -5 -7 -3 -8
5 -4 7 5 10 15 6 23 -8 23 24 56 42 42 10 -9 13 -8 13 4 0 9 5 19 12 23 7 5 8
3 3 -6 -5 -9 -4 -11 4 -6 6 4 9 12 5 17 -3 6 2 19 12 30 14 15 20 17 32 6 9
-6 13 -7 9 -1 -3 6 7 24 23 39 17 16 30 23 30 17 0 -7 -6 -15 -14 -18 -8 -3
-17 -12 -20 -21 -4 -9 5 -6 23 9 15 13 26 27 24 31 -6 10 46 67 61 67 6 0 -4
-14 -22 -30 -18 -17 -29 -30 -25 -30 11 0 77 60 67 60 -5 0 -4 4 2 8 6 4 17
20 25 36 8 16 20 32 28 34 9 3 11 0 6 -8 -5 -8 -4 -11 3 -7 5 4 8 16 5 26 -3
10 0 22 6 25 7 5 8 1 4 -10 -5 -13 -3 -15 7 -9 7 4 33 50 57 102 35 76 42 98
32 109 -6 8 -9 18 -5 21 4 4 10 2 15 -5 8 -14 38 70 50 143 5 28 9 40 10 28 2
-45 41 -20 46 30 1 9 10 26 19 36 17 19 22 36 7 27 -5 -3 -11 8 -13 24 -5 33
6 40 20 13 9 -15 11 -15 28 1 11 11 18 33 18 55 0 35 17 66 30 54 3 -4 6 -1 6
6 0 7 5 9 10 6 13 -8 13 1 0 25 -7 14 -6 17 7 16 9 0 18 5 20 12 3 7 -5 12
-19 13 -21 1 -20 2 8 14 17 8 34 22 38 31 8 21 -2 33 -13 15 -6 -9 -11 -10
-15 -2 -4 6 -4 11 1 11 12 0 32 50 26 66 -4 10 3 14 23 15 16 0 23 3 17 6 -7
2 -13 11 -13 18 0 7 6 15 13 18 9 3 9 7 -2 20 -11 15 -11 17 2 17 8 0 20 7 27
16 8 8 9 14 4 13 -21 -4 -28 2 -14 11 12 8 11 10 -7 10 -25 0 -26 1 -17 24 3
9 12 16 20 16 8 0 14 9 14 19 0 11 5 21 11 23 5 2 7 11 3 22 -5 14 -9 15 -16
4 -6 -8 -7 -4 -2 12 4 14 8 33 9 42 1 10 4 20 7 24 4 3 2 17 -4 30 -8 18 -8
31 1 50 6 15 10 27 9 28 -2 1 -16 12 -32 24 -31 24 -28 29 6 11 19 -10 20 -9
15 10 -3 11 -1 21 3 21 5 0 1 14 -7 31 l-16 32 -12 -29 -13 -29 3 40 c2 25 -3
46 -13 58 -10 11 -11 17 -3 17 21 0 -15 42 -48 56 -25 11 -29 10 -24 -2 3 -8
0 -14 -6 -14 -10 0 -15 13 -13 31 1 3 -11 12 -26 20 -15 8 -31 18 -35 24 -5 5
-5 0 -2 -12 3 -13 3 -23 -2 -23 -14 0 -34 40 -27 52 4 6 3 8 -4 4 -6 -3 -15 2
-21 11 -10 17 -10 17 -11 1 0 -10 5 -18 10 -18 6 0 5 -6 -2 -14 -17 -18 -18
-17 -28 41 l-8 48 -1 -65 c-1 -45 -4 -60 -11 -50 -5 8 -6 34 -3 58 4 27 1 52
-7 67 -11 20 -11 35 -1 77 8 36 9 63 2 83 -9 29 -9 29 -12 -15 l-2 -45 -9 60
c-5 33 -9 78 -9 99 1 22 -4 45 -11 53 -16 20 -17 465 0 485 7 9 10 22 7 30 -3
8 1 28 10 44 8 16 15 35 15 43 0 8 6 11 15 7 13 -4 13 -2 5 14 -6 11 -6 21 -1
24 5 4 11 3 14 -1 2 -5 2 -2 0 6 -6 25 8 53 24 46 13 -4 14 -3 4 9 -10 12 -9
17 7 27 12 7 18 19 14 28 -4 11 -1 13 13 8 14 -6 16 -5 6 6 -8 11 -7 17 7 29
29 25 48 32 25 9 -13 -12 -23 -25 -23 -28 0 -12 114 111 116 125 3 18 24 42
38 42 6 0 2 -7 -8 -15 -11 -8 -17 -18 -13 -21 3 -3 27 10 53 30 26 20 51 36
55 36 5 0 5 8 2 18 -6 15 -5 15 10 4 14 -12 21 -11 48 2 18 9 42 16 53 17 18
1 18 2 -4 8 -17 5 -21 9 -13 14 7 5 22 3 33 -3 12 -6 33 -9 48 -7 25 4 24 4
-5 6 -18 0 -33 6 -33 12 0 8 14 9 48 4 26 -4 72 -7 102 -7z m-213 -24 c-3 -3
-12 -4 -19 -1 -8 3 -5 6 6 6 11 1 17 -2 13 -5z m1723 -9 c0 -8 -2 -15 -4 -15
-2 0 -6 7 -10 15 -3 8 -1 15 4 15 6 0 10 -7 10 -15z m-1760 -5 c0 -5 -2 -10
-4 -10 -3 0 -8 5 -11 10 -3 6 -1 10 4 10 6 0 11 -4 11 -10z m-80 -39 c0 -5 -7
-11 -15 -15 -15 -5 -20 5 -8 17 9 10 23 9 23 -2z m1830 -16 c0 -8 -4 -15 -10
-15 -5 0 -10 7 -10 15 0 8 5 15 10 15 6 0 10 -7 10 -15z m800 -95 c0 -55 -4
-100 -8 -100 -6 0 -10 187 -3 198 8 14 11 -14 11 -98z m1260 25 c0 -25 -4 -45
-10 -45 -5 0 -10 20 -10 45 0 25 5 45 10 45 6 0 10 -20 10 -45z m-4000 11 c0
-3 -11 -17 -25 -32 -14 -15 -25 -23 -25 -19 0 5 10 19 22 32 21 23 28 27 28
19z m1917 -48 c-2 -13 -4 -5 -4 17 -1 22 1 32 4 23 2 -10 2 -28 0 -40z m1340
-20 c-3 -8 -6 -5 -6 6 -1 11 2 17 5 13 3 -3 4 -12 1 -19z m-2375 -52 c-3 -5
-9 -1 -13 10 -12 31 -10 39 5 19 8 -11 12 -24 8 -29z m2364 -3 c-3 -21 -6 -68
-6 -105 0 -39 -4 -68 -10 -68 -14 0 -13 147 1 156 6 3 8 17 5 30 -4 15 -2 24
5 24 8 0 10 -12 5 -37z m-1336 -200 c0 -113 -2 -204 -5 -201 -3 3 -6 90 -6
194 0 231 0 214 6 214 3 0 5 -93 5 -207z m2064 162 c3 -8 1 -15 -4 -15 -6 0
-10 7 -10 15 0 8 2 15 4 15 2 0 6 -7 10 -15z m-3051 -43 c-7 -16 -9 -14 -17
23 -7 28 -6 29 7 10 8 -10 12 -25 10 -33z m3037 8 c0 -5 -2 -10 -4 -10 -3 0
-8 5 -11 10 -3 6 -1 10 4 10 6 0 11 -4 11 -10z m-16 -29 c3 -5 -1 -14 -8 -20
-12 -10 -13 -8 -9 8 6 23 9 25 17 12z m-2984 -51 c5 0 6 -8 3 -17 -6 -15 -7
-15 -14 3 -4 10 -7 26 -7 34 0 10 2 9 5 -2 2 -10 8 -18 13 -18z m2960 -1 c0
-18 -152 -169 -163 -162 -5 3 -1 10 9 16 22 11 112 102 134 135 16 25 20 27
20 11z m-2929 -84 c6 -25 15 -45 20 -45 5 0 9 -4 9 -10 0 -5 -5 -10 -10 -10
-6 0 -15 20 -22 45 -7 25 -16 45 -20 45 -4 0 -8 5 -8 10 0 6 4 10 10 10 5 0
15 -20 21 -45z m1720 -33 c2 -23 0 -45 -4 -48 -4 -4 -7 17 -7 46 0 62 8 64 11
2z m643 -71 c-6 -6 -34 20 -34 32 0 6 8 2 19 -9 10 -10 17 -21 15 -23z m-2311
-17 c-2 -7 0 -15 6 -19 13 -8 14 -25 2 -25 -5 0 -12 12 -15 28 -4 15 -9 36
-13 47 -5 20 -5 20 10 0 8 -10 13 -25 10 -31z m2702 36 c3 -5 1 -10 -4 -10 -6
0 -11 5 -11 10 0 6 2 10 4 10 3 0 8 -4 11 -10z m-40 -24 c-11 -8 -24 -12 -29
-8 -5 3 -1 9 10 13 31 12 39 10 19 -5z m-1008 -48 c-2 -13 -4 -5 -4 17 -1 22
1 32 4 23 2 -10 2 -28 0 -40z m693 48 c0 -3 -4 -8 -10 -11 -5 -3 -10 -1 -10 4
0 6 5 11 10 11 6 0 10 -2 10 -4z m-2303 -103 c-4 -3 -2 -12 5 -20 8 -10 8 -17
0 -25 -9 -9 -12 -8 -12 4 0 9 -3 23 -6 32 -4 10 -1 16 7 16 7 0 9 -3 6 -7z
m1603 -28 c0 -14 -4 -25 -10 -25 -5 0 -10 11 -10 25 0 14 5 25 10 25 6 0 10
-11 10 -25z m-773 -62 c-2 -16 -4 -3 -4 27 0 30 2 43 4 28 2 -16 2 -40 0 -55z
m-795 -17 c-6 -11 -20 20 -21 44 0 8 5 4 13 -10 7 -14 10 -29 8 -34z m1550 19
c3 -14 1 -28 -3 -31 -5 -3 -9 9 -9 25 0 38 6 40 12 6z m-452 -10 c0 -8 -4 -15
-10 -15 -5 0 -10 7 -10 15 0 8 5 15 10 15 6 0 10 -7 10 -15z m-1080 -35 c0 -5
-4 -10 -10 -10 -5 0 -10 5 -10 10 0 6 5 10 10 10 6 0 10 -4 10 -10z m1517 -47
c-3 -10 -5 -4 -5 12 0 17 2 24 5 18 2 -7 2 -21 0 -30z m-1507 12 c0 -8 -2 -15
-4 -15 -2 0 -6 7 -10 15 -3 8 -1 15 4 15 6 0 10 -7 10 -15z m790 -55 c0 -20
-2 -22 -10 -10 -5 8 -10 26 -10 40 0 20 2 22 10 10 5 -8 10 -26 10 -40z m-764
-17 c-8 -8 -12 -3 -21 27 l-7 25 17 -23 c9 -13 14 -26 11 -29z m1470 -10 c-10
-10 -19 5 -10 18 6 11 8 11 12 0 2 -7 1 -15 -2 -18z m1044 -3 c0 -5 -18 -10
-41 -10 -24 0 -38 4 -34 10 3 6 22 10 41 10 19 0 34 -4 34 -10z m2025 0 c-3
-5 -17 -10 -31 -10 -13 0 -24 5 -24 10 0 6 14 10 31 10 17 0 28 -4 24 -10z
m205 0 c0 -5 -13 -10 -30 -10 -16 0 -30 5 -30 10 0 6 14 10 30 10 17 0 30 -4
30 -10z m-2350 -10 c12 -8 11 -10 -7 -10 -13 0 -23 5 -23 10 0 13 11 13 30 0z
m2070 -6 c0 -2 -14 -4 -31 -4 -16 0 -28 4 -25 9 5 8 56 3 56 -5z m343 -1 c-7
-2 -21 -2 -30 0 -10 3 -4 5 12 5 17 0 24 -2 18 -5z m-3350 -23 c3 -11 1 -23
-4 -26 -5 -3 -9 6 -9 20 0 31 6 34 13 6z m884 14 c-3 -3 -12 -4 -19 -1 -8 3
-5 6 6 6 11 1 17 -2 13 -5z m2046 -1 c-7 -2 -19 -2 -25 0 -7 3 -2 5 12 5 14 0
19 -2 13 -5z m423 -14 c71 -22 164 -69 184 -94 7 -8 17 -15 23 -15 6 0 0 11
-13 25 -38 40 -11 29 31 -14 22 -21 39 -44 39 -51 0 -7 -10 -1 -21 14 -29 36
-37 25 -10 -13 13 -17 28 -28 36 -25 13 5 42 -33 32 -43 -3 -2 -8 5 -12 16 -3
12 -11 21 -16 21 -13 0 -11 -12 5 -35 13 -21 43 -111 49 -155 3 -15 5 -7 7 20
l3 45 9 -60 c6 -33 11 -114 13 -180 6 -294 26 -683 36 -717 6 -20 9 -48 5 -61
-3 -14 -2 -28 3 -31 4 -3 11 -36 15 -73 4 -37 11 -72 17 -79 5 -7 9 -16 8 -20
-1 -5 3 -22 10 -38 6 -16 10 -35 7 -42 -3 -8 0 -11 8 -8 7 3 26 -10 43 -29 24
-28 35 -33 70 -32 22 0 51 8 64 17 13 8 27 15 30 14 3 -1 20 16 39 37 23 27
39 37 53 33 10 -2 16 -2 13 1 -3 4 1 15 10 25 18 19 61 16 77 -6 6 -7 7 -6 5
4 -3 8 -15 17 -29 20 -13 3 -19 9 -13 13 14 8 54 -20 54 -39 0 -8 6 -14 13
-14 9 0 9 -2 -1 -9 -7 -4 -12 -12 -11 -17 3 -13 -11 -44 -34 -77 -22 -33 -34
-30 -17 5 10 22 10 22 -4 4 -9 -11 -13 -29 -10 -40 3 -15 -6 -36 -30 -68 -19
-25 -33 -48 -30 -50 2 -3 -5 -13 -16 -23 -25 -23 -40 -11 -16 13 23 24 79 112
74 117 -3 4 -112 -153 -142 -205 -11 -20 4 -4 31 33 12 15 24 24 27 19 6 -11
-83 -114 -93 -108 -4 3 -30 -18 -57 -47 l-49 -52 53 50 c28 27 52 44 52 38 0
-13 -72 -93 -84 -93 -5 0 -26 -16 -48 -35 -24 -22 -46 -34 -56 -31 -9 3 -24 1
-32 -5 -12 -9 -11 -10 5 -5 17 5 17 3 -4 -15 -17 -14 -32 -18 -49 -14 -16 4
-21 2 -17 -6 5 -8 -2 -9 -26 -4 -24 4 -30 3 -19 -4 23 -16 4 -25 -27 -13 -15
6 -59 13 -97 16 -79 6 -127 28 -201 92 -29 24 -56 40 -60 36 -5 -4 -5 -2 -1 5
3 6 -10 37 -29 67 -20 31 -31 56 -25 56 5 0 10 8 10 18 0 14 2 15 10 2 6 -9 5
-17 -3 -22 -9 -6 -9 -8 0 -8 21 0 25 21 8 40 -20 22 -27 137 -9 144 13 5 24
54 17 73 -3 7 -11 13 -19 13 -8 0 -13 6 -12 13 4 19 22 27 30 14 6 -9 8 -9 8
0 0 6 -6 18 -14 26 -12 12 -12 16 5 28 20 14 27 35 8 23 -9 -5 -10 1 -4 22 11
37 8 94 -6 110 -6 8 -6 14 0 18 11 7 3 46 -10 46 -5 0 -9 14 -9 30 0 17 5 30
12 30 6 0 9 2 6 5 -10 10 -39 -8 -34 -21 3 -8 1 -14 -4 -14 -6 0 -10 9 -10 19
0 11 -6 22 -12 24 -8 3 -6 6 5 6 23 1 22 6 -8 45 -14 18 -25 43 -25 54 0 12
-5 22 -11 22 -6 0 -10 12 -9 28 5 74 -13 82 -24 10 -4 -23 -27 -82 -52 -130
-24 -49 -42 -93 -39 -99 6 -9 1 -11 -27 -13 -19 -2 -68 -79 -62 -98 2 -9 0
-19 -5 -23 -7 -3 -8 0 -5 9 3 9 1 16 -5 16 -6 0 -11 -4 -11 -9 0 -4 -12 -24
-27 -44 -16 -20 -55 -73 -88 -118 -68 -92 -259 -296 -286 -304 -9 -3 -20 -13
-23 -21 -9 -23 25 1 93 66 20 20 45 42 56 49 11 7 -18 -23 -64 -68 -68 -67
-86 -80 -97 -70 -12 9 -18 9 -27 0 -9 -10 -8 -11 8 -5 18 7 18 6 7 -9 -8 -8
-19 -14 -27 -11 -7 3 -33 -5 -57 -18 -23 -12 -56 -28 -73 -35 -18 -7 -23 -12
-12 -12 9 -1 17 -5 17 -11 0 -13 -27 -13 -35 0 -3 5 -13 6 -22 3 -15 -6 -14
-7 3 -14 18 -7 18 -8 -1 -8 -12 -1 -26 -6 -32 -12 -8 -8 -17 -8 -32 1 -12 6
-32 9 -44 7 -18 -4 -17 -5 6 -6 15 0 27 -5 27 -11 0 -6 -42 -10 -105 -10 -59
0 -105 4 -105 9 0 6 12 12 28 14 15 2 9 3 -13 2 -22 -2 -48 -6 -57 -10 -11 -4
-18 -3 -18 3 0 6 8 13 18 15 9 2 -1 3 -23 1 -22 -2 -32 -1 -21 2 14 5 3 14
-45 41 -35 19 -85 56 -111 81 -47 45 -66 50 -31 8 13 -15 10 -14 -10 3 -17 15
-23 27 -16 31 10 7 -16 69 -49 115 -13 19 -14 18 -7 -10 6 -28 6 -29 -9 -10
-9 12 -11 24 -5 29 5 6 9 19 10 30 0 15 5 10 17 -16 9 -21 22 -40 30 -43 7 -3
10 0 7 6 -4 5 -8 22 -10 37 -1 14 -7 28 -13 30 -6 2 -9 9 -6 17 5 13 49 14 62
0 4 -4 -2 -5 -13 -3 -12 2 -21 -3 -23 -14 -2 -13 3 -18 17 -18 12 0 21 5 21
10 0 6 5 10 10 10 6 0 10 -7 10 -16 0 -13 8 -15 48 -11 26 3 48 6 50 6 1 1 2
6 2 12 0 6 -7 9 -15 6 -8 -4 -17 -2 -20 3 -4 6 17 10 50 10 35 0 54 -4 50 -10
-3 -5 -1 -10 4 -10 6 0 11 5 11 11 0 5 5 7 12 3 8 -5 9 -2 5 9 -4 10 -10 25
-13 35 -5 14 -4 14 5 2 5 -8 13 -11 17 -7 4 4 12 0 18 -7 7 -9 18 -11 31 -6
18 8 18 9 -4 9 -34 1 -22 9 25 17 21 3 45 11 52 16 8 7 12 7 12 -1 0 -8 6 -7
21 1 17 11 22 10 33 -5 7 -9 17 -17 21 -17 4 0 2 7 -5 15 -10 12 -10 15 4 15
19 0 21 11 4 30 -11 12 -10 12 2 3 18 -13 78 -14 86 -1 3 4 0 8 -6 8 -6 0 -8
5 -5 10 9 15 25 12 25 -5 0 -8 7 -15 15 -15 8 0 15 5 15 10 0 6 3 9 8 8 4 -1
19 2 35 6 27 8 37 25 15 27 -7 0 -2 4 10 10 13 5 28 7 33 3 5 -3 9 2 9 10 0 9
5 16 11 16 5 0 7 4 4 10 -3 6 1 7 9 4 9 -3 16 -2 16 2 0 5 14 10 32 11 41 3
63 23 25 23 -30 0 -38 15 -9 17 65 5 103 17 98 30 -7 18 13 38 39 40 41 3 75
22 75 43 0 11 4 20 9 20 5 0 23 14 41 30 18 17 29 30 24 30 -4 0 2 9 14 20 12
11 26 20 32 20 7 0 8 6 1 19 -9 16 -8 18 12 14 16 -3 18 -2 8 5 -20 14 -5 31
22 24 20 -5 21 -4 8 11 -12 16 -8 22 12 18 5 -1 6 3 2 9 -3 6 9 27 29 48 74
79 85 92 91 112 4 12 4 24 1 27 -3 4 -6 -1 -6 -10 0 -9 -4 -17 -10 -17 -13 0
-13 13 1 43 7 16 7 34 1 58 l-10 34 -3 -45 c-2 -37 -4 -30 -11 35 -5 44 -11
107 -13 140 -8 115 -26 229 -37 242 -8 10 -8 17 0 25 7 7 12 17 12 22 0 6 -4
4 -10 -4 -12 -19 -22 -8 -24 29 -1 16 -5 33 -9 38 -5 4 -5 -1 -1 -11 7 -18 6
-18 -22 0 -16 10 -31 21 -34 24 -3 3 -23 5 -45 6 -22 1 -51 4 -65 8 -18 5 -20
4 -6 -2 14 -6 16 -11 7 -16 -6 -4 -18 -2 -26 4 -11 9 -23 5 -59 -19 -39 -27
-45 -29 -49 -14 -3 14 -4 13 -3 -2 1 -13 7 -19 19 -19 9 1 17 1 17 0 0 -1 -21
-22 -47 -46 -26 -25 -42 -38 -35 -29 12 16 5 59 -10 59 -5 0 -6 5 -3 10 5 7
11 8 19 1 6 -5 17 -6 24 -2 9 6 7 14 -9 35 l-22 28 21 -6 c21 -7 54 16 65 45
4 11 8 10 18 -4 13 -15 14 -13 15 20 0 20 6 39 12 41 7 2 10 8 6 13 -3 5 1 9
9 9 8 0 23 11 33 25 11 15 25 23 34 20 12 -5 13 -4 3 6 -19 19 -16 31 7 24 15
-5 18 -3 14 8 -3 8 2 17 11 21 9 3 13 10 10 16 -3 5 -2 10 3 10 6 0 13 -8 17
-17 6 -17 7 -17 17 1 8 15 8 21 0 24 -25 8 -11 24 18 20 17 -3 30 -1 30 3 0 5
7 5 17 2 11 -4 14 -3 9 6 -10 15 30 48 67 55 47 9 21 29 -28 22 -47 -7 -95 1
-95 15 0 6 9 5 20 -1 18 -10 50 -8 118 6 15 3 21 1 17 -6 -3 -5 -1 -10 4 -10
6 0 11 7 11 15 0 11 5 12 25 5 25 -9 37 4 13 13 -7 3 48 6 123 6 112 1 149 -3
205 -20z m41 15 c-3 -3 -12 -4 -19 -1 -8 3 -5 6 6 6 11 1 17 -2 13 -5z m-4080
-51 c-3 -10 -5 -2 -5 17 0 19 2 27 5 18 2 -10 2 -26 0 -35z m1528 37 c3 -5 -1
-10 -9 -10 -9 0 -16 5 -16 10 0 6 4 10 9 10 6 0 13 -4 16 -10z m115 0 c0 -5
-11 -10 -25 -10 -14 0 -25 -4 -25 -9 0 -5 13 -8 30 -6 25 3 31 0 36 -21 5 -19
9 -22 15 -12 7 10 11 7 15 -10 4 -13 12 -21 19 -18 11 4 30 -44 26 -66 0 -5 5
-8 12 -8 14 0 40 -67 31 -82 -3 -4 0 -16 5 -25 10 -16 10 -17 11 -1 0 9 5 20
11 24 8 4 9 0 4 -15 -4 -12 -2 -21 4 -21 10 0 12 5 15 40 1 9 9 14 20 12 10
-2 23 2 28 10 8 10 9 10 5 -2 -6 -22 12 -52 28 -46 25 9 28 -56 10 -211 -9
-81 -21 -168 -26 -193 -6 -25 -16 -74 -24 -110 -7 -36 -13 -56 -14 -45 -1 17
-3 17 -11 5 -6 -9 -6 -18 0 -24 11 -11 13 -49 3 -59 -3 -4 -8 -17 -9 -29 -2
-13 -10 -68 -19 -123 -9 -55 -23 -143 -32 -195 -22 -140 -13 -314 20 -377 23
-45 58 -76 44 -39 -4 11 -3 15 4 11 6 -4 8 -13 5 -20 -7 -19 18 -36 72 -51 26
-7 41 -13 34 -13 -7 -1 -11 -5 -8 -10 3 -4 16 -7 28 -6 13 1 33 3 46 4 12 0
21 6 20 13 -2 6 15 15 36 20 22 5 45 13 51 18 22 18 47 0 40 -27 -4 -17 -2
-22 6 -18 6 4 9 20 7 36 -3 18 0 28 6 26 6 -2 12 -15 14 -30 2 -18 -3 -29 -20
-38 -13 -7 -25 -12 -28 -12 -6 0 -82 -49 -90 -57 -3 -3 -41 -29 -85 -58 -44
-28 -87 -56 -95 -62 -43 -30 -166 -100 -176 -100 -2 0 -4 8 -4 18 0 11 3 13 8
5 5 -8 12 -8 26 3 11 7 17 17 13 20 -4 4 -13 2 -20 -4 -8 -7 -16 -10 -19 -7
-7 8 -68 -16 -105 -40 -18 -13 -30 -25 -27 -28 7 -6 44 3 44 12 0 4 8 7 18 7
9 1 26 5 37 9 18 8 18 7 5 -6 -16 -16 -130 -52 -139 -44 -2 3 1 5 7 5 7 0 12
5 12 11 0 6 -6 9 -12 6 -7 -2 -21 0 -30 5 -11 5 -18 5 -18 -1 0 -5 -11 -8 -25
-7 -14 0 -25 4 -25 9 0 4 -4 7 -10 7 -5 0 -10 -7 -10 -16 0 -8 3 -13 8 -11 12
8 54 -12 47 -23 -4 -6 9 -10 31 -10 24 0 34 -4 29 -9 -10 -9 -113 8 -113 19
-1 17 -16 40 -26 39 -24 -3 -37 1 -31 10 3 5 1 12 -5 16 -27 17 -5 26 58 24
37 0 76 2 87 6 16 6 17 5 5 -4 -19 -14 -9 -14 25 -1 23 9 26 8 22 -4 -8 -20
13 -32 24 -15 15 25 10 36 -21 43 -16 3 -30 11 -30 17 0 6 9 9 20 6 13 -3 20
0 20 9 0 8 -6 14 -12 13 -40 -5 -68 2 -68 17 0 11 -6 15 -20 11 -11 -3 -20 -2
-20 1 0 4 -4 13 -9 20 -7 12 -12 12 -30 1 -17 -12 -25 -12 -42 0 -18 11 -23
11 -30 -1 -7 -10 -9 -10 -9 3 0 9 7 22 16 29 13 11 16 10 20 -8 7 -25 27 -19
42 12 9 21 8 23 -9 19 -13 -4 -19 0 -19 12 0 11 5 15 14 12 10 -4 13 -1 9 9
-3 8 -11 13 -18 10 -20 -7 -26 5 -12 22 10 13 9 15 -6 9 -13 -5 -20 0 -27 18
-5 14 -16 25 -25 25 -22 0 -58 39 -51 56 3 8 1 14 -3 14 -5 0 -18 3 -28 6 -17
5 -17 5 0 -6 9 -6 17 -20 17 -30 0 -11 5 -20 10 -20 6 0 10 -6 10 -14 0 -7 16
-24 35 -37 47 -32 49 -52 3 -28 -14 8 -18 8 -14 0 4 -6 2 -20 -4 -31 -9 -17
-14 -18 -31 -9 -11 6 -27 8 -35 5 -21 -8 -17 -36 5 -36 11 0 22 -4 25 -8 6
-10 -30 -9 -40 1 -4 4 -19 4 -33 0 -14 -3 -23 -2 -19 2 4 4 -3 16 -15 26 l-22
18 23 1 c15 0 22 6 22 20 0 11 -4 20 -8 20 -5 0 -18 9 -30 20 l-22 21 0 -21
c0 -11 5 -20 11 -20 6 0 8 -9 4 -20 -3 -11 -3 -25 2 -32 14 -24 50 -138 42
-138 -4 0 -13 17 -20 38 -6 20 -15 42 -19 47 -17 22 -45 215 -31 215 4 0 9 34
10 76 1 53 -1 74 -9 69 -6 -4 -10 -14 -9 -23 1 -10 0 -35 -2 -57 -2 -22 -6 39
-9 135 l-6 175 -2 -190 c-3 -141 -6 -184 -13 -165 -7 16 -8 84 -4 185 4 88 8
222 10 299 3 76 7 141 10 144 3 3 5 -50 5 -118 0 -132 11 -160 15 -38 15 474
14 553 -4 288 l-8 -125 -2 152 c0 92 3 154 9 158 14 9 13 155 -1 155 -8 0 -10
27 -7 88 2 48 2 79 0 70 -2 -10 -8 -18 -13 -18 -6 0 -8 9 -4 19 5 18 0 20 -42
23 -47 3 -48 4 -48 36 0 25 9 42 37 69 20 19 41 32 46 29 6 -3 14 3 17 14 5
17 10 19 21 9 11 -9 14 -8 14 3 0 8 8 22 18 31 15 13 21 14 31 4 10 -9 11 -8
5 7 -6 16 -4 18 10 13 9 -4 15 -3 12 2 -3 5 1 14 8 20 10 8 16 9 21 1 3 -5 1
-10 -6 -10 -7 0 -10 -3 -6 -6 3 -3 14 -1 24 5 10 6 12 11 6 11 -7 0 -13 5 -13
11 0 6 9 8 21 4 13 -5 19 -3 15 3 -3 5 1 15 8 21 10 8 16 9 21 1 3 -5 12 -10
18 -10 7 0 6 4 -3 10 -8 5 -11 12 -7 16 3 4 14 1 24 -7 15 -12 16 -12 11 3 -6
14 10 29 32 29 3 1 10 5 15 9 6 5 17 5 25 0 8 -5 19 -5 25 -1 8 7 78 25 170
44 11 3 21 5 23 6 1 0 2 -3 2 -9z m224 -20 c16 -17 27 -32 24 -35 -2 -3 -20
11 -38 30 -19 19 -30 35 -24 35 5 0 22 -14 38 -30z m1696 20 c0 -5 -4 -10 -10
-10 -5 0 -10 5 -10 10 0 6 5 10 10 10 6 0 10 -4 10 -10z m-2070 -16 c0 -2 -7
-4 -15 -4 -8 0 -15 4 -15 10 0 5 7 7 15 4 8 -4 15 -8 15 -10z m2640 6 c0 -5
-5 -10 -11 -10 -5 0 -7 5 -4 10 3 6 8 10 11 10 2 0 4 -4 4 -10z m-4860 -19 c0
-6 -4 -13 -10 -16 -5 -3 -10 1 -10 9 0 9 5 16 10 16 6 0 10 -4 10 -9z m4180
-11 c0 -5 -4 -10 -10 -10 -5 0 -10 5 -10 10 0 6 5 10 10 10 6 0 10 -4 10 -10z
m740 -5 c11 -13 10 -14 -4 -9 -9 3 -16 10 -16 15 0 13 6 11 20 -6z m-3523 -42
c-3 -10 -5 -2 -5 17 0 19 2 27 5 18 2 -10 2 -26 0 -35z m-1380 -3 c3 -17 10
-33 14 -36 5 -3 7 -10 4 -15 -4 -5 -1 -9 4 -9 6 0 11 -5 11 -11 0 -23 -29 13
-36 44 -3 18 -11 38 -16 45 -7 8 -7 12 1 12 6 0 14 -14 18 -30z m4083 17 c-14
-8 -27 -12 -30 -10 -7 6 23 23 40 23 8 0 4 -6 -10 -13z m-2996 -22 c-4 14 -3
16 4 7 5 -7 7 -25 4 -40 -3 -15 -7 -21 -9 -14 -3 6 -14 12 -26 13 -12 0 -16 3
-9 6 6 2 10 9 6 14 -11 19 8 30 22 12 13 -17 14 -17 8 2z m2956 6 c0 -5 -10
-13 -22 -17 -13 -3 -31 -13 -40 -22 -11 -9 -18 -11 -18 -4 0 9 37 33 78 51 1
1 2 -3 2 -8z m65 -11 c3 -5 1 -10 -4 -10 -6 0 -11 5 -11 10 0 6 2 10 4 10 3 0
8 -4 11 -10z m-3388 -52 c-2 -13 -4 -5 -4 17 -1 22 1 32 4 23 2 -10 2 -28 0
-40z m1913 42 c0 -5 -2 -10 -4 -10 -3 0 -8 5 -11 10 -3 6 -1 10 4 10 6 0 11
-4 11 -10z m-1269 -33 c-8 -8 -11 -7 -11 4 0 20 13 34 18 19 3 -7 -1 -17 -7
-23z m1243 7 c3 -8 2 -12 -4 -9 -6 3 -10 10 -10 16 0 14 7 11 14 -7z m1316
-18 c0 -2 -7 -9 -15 -16 -13 -11 -14 -10 -9 4 5 14 24 23 24 12z m-2794 -22
c-3 -7 -1 -16 4 -19 6 -4 10 -12 10 -18 0 -7 -5 -4 -11 6 -5 9 -16 17 -23 17
-26 0 -24 25 1 26 17 2 23 -2 19 -12z m234 -16 c0 -5 -4 -8 -10 -8 -5 0 -10
10 -10 23 0 18 2 19 10 7 5 -8 10 -18 10 -22z m1292 -23 c-2 -19 -6 -35 -8
-35 -2 0 -4 16 -4 35 0 19 4 35 8 35 4 0 6 -16 4 -35z m1228 31 c0 -2 -7 -7
-16 -10 -8 -3 -12 -2 -9 4 6 10 25 14 25 6z m-2604 -54 c-2 -9 -8 -18 -14 -20
-9 -3 -11 28 -3 58 3 12 19 -24 17 -38z m2564 24 c0 -2 -7 -7 -16 -10 -8 -3
-12 -2 -9 4 6 10 25 14 25 6z m-3785 -15 c-3 -5 -1 -12 5 -16 5 -3 10 -12 10
-18 0 -7 -7 -3 -15 7 -18 23 -19 36 -4 36 5 0 8 -4 4 -9z m685 -17 c0 -8 -4
-14 -10 -14 -5 0 -10 9 -10 21 0 11 5 17 10 14 6 -3 10 -13 10 -21z m597 4
c-3 -8 -6 -5 -6 6 -1 11 2 17 5 13 3 -3 4 -12 1 -19z m-220 6 c-3 -3 -12 -4
-19 -1 -8 3 -5 6 6 6 11 1 17 -2 13 -5z m2938 -4 c3 -5 -1 -10 -10 -10 -9 0
-13 5 -10 10 3 6 8 10 10 10 2 0 7 -4 10 -10z m1015 1 c0 -6 -4 -13 -10 -16
-5 -3 -10 1 -10 9 0 9 5 16 10 16 6 0 10 -4 10 -9z m-2400 -106 c0 -33 -5 -67
-10 -75 -7 -10 -10 13 -10 75 0 62 3 85 10 75 5 -8 10 -42 10 -75z m1074 66
c-10 -10 -21 -17 -23 -15 -6 6 20 34 32 34 6 0 2 -8 -9 -19z m1336 -7 c0 -8
-4 -12 -10 -9 -5 3 -10 10 -10 16 0 5 5 9 10 9 6 0 10 -7 10 -16z m-3750 -10
c0 -8 -4 -12 -10 -9 -5 3 -10 10 -10 16 0 5 5 9 10 9 6 0 10 -7 10 -16z
m-1230 -23 c0 -6 -4 -13 -10 -16 -5 -3 -10 1 -10 9 0 9 5 16 10 16 6 0 10 -4
10 -9z m650 -23 c0 -23 -3 -29 -9 -19 -8 12 -4 51 5 51 2 0 4 -15 4 -32z
m2934 19 c-2 -7 -14 -19 -27 -26 -21 -13 -21 -12 2 13 27 29 33 32 25 13z
m-2370 -22 c3 -8 1 -15 -4 -15 -6 0 -10 7 -10 15 0 8 2 15 4 15 2 0 6 -7 10
-15z m-1183 -79 c-2 -6 -10 6 -17 25 -18 50 -16 59 5 19 10 -19 15 -39 12 -44z
m3829 70 c0 -3 -4 -8 -10 -11 -5 -3 -10 -1 -10 4 0 6 5 11 10 11 6 0 10 -2 10
-4z m-2663 -48 c-3 -8 -6 -5 -6 6 -1 11 2 17 5 13 3 -3 4 -12 1 -19z m2283
-13 c-19 -19 -38 -35 -43 -35 -12 0 55 69 67 70 6 0 -5 -16 -24 -35z m-2823
-47 c-2 -13 -4 -5 -4 17 -1 22 1 32 4 23 2 -10 2 -28 0 -40z m3257 37 c-7 -16
-24 -21 -24 -6 0 8 7 13 27 20 1 1 0 -6 -3 -14z m-3907 -21 c-3 -3 -12 -4 -19
-1 -8 3 -5 6 6 6 11 1 17 -2 13 -5z m1183 -10 c0 -8 -5 -12 -10 -9 -6 4 -8 11
-5 16 9 14 15 11 15 -7z m1361 -46 c2 -20 0 -40 -4 -44 -4 -4 -7 14 -7 41 0
56 7 57 11 3z m-2476 -8 c0 -3 4 -11 9 -18 4 -7 5 -16 2 -19 -6 -6 -36 58 -36
74 1 8 24 -28 25 -37z m-1495 10 c0 -5 -5 -10 -11 -10 -5 0 -7 5 -4 10 3 6 8
10 11 10 2 0 4 -4 4 -10z m2600 -11 c0 -5 -4 -9 -10 -9 -5 0 -10 7 -10 16 0 8
5 12 10 9 6 -3 10 -10 10 -16z m2603 6 c-3 -5 -14 -19 -24 -30 -44 -51 -146
-256 -155 -314 -4 -23 -11 -41 -16 -41 -6 0 -7 8 -3 18 5 14 4 15 -6 5 -7 -7
-16 -13 -20 -13 -13 0 -19 32 -9 45 5 6 12 22 14 36 3 13 5 25 7 27 1 1 2 8 3
15 1 6 11 11 24 10 16 -2 23 4 28 22 3 14 9 25 13 25 4 0 12 14 18 31 10 25
10 30 -2 25 -9 -3 -12 0 -9 9 3 8 13 11 21 8 13 -5 15 -2 11 15 -4 12 -2 22 3
22 5 0 9 11 9 25 0 16 6 25 16 25 8 0 12 -4 9 -10 -3 -5 -4 -10 -1 -10 3 0 10
10 17 21 8 15 8 19 0 15 -13 -9 -15 6 -1 20 12 12 60 12 53 -1z m-5256 -17
c-3 -8 -6 -5 -6 6 -1 11 2 17 5 13 3 -3 4 -12 1 -19z m4798 -48 c-38 -38 -74
-70 -79 -70 -5 0 23 32 63 70 40 39 76 70 79 70 4 0 -25 -31 -63 -70z m-4828
-32 c-2 -18 -4 -4 -4 32 0 36 2 50 4 33 2 -18 2 -48 0 -65z m2183 19 c0 -16
-4 -26 -10 -22 -5 3 -10 23 -10 43 0 28 3 33 10 22 5 -8 10 -28 10 -43z m477
21 c-3 -8 -6 -5 -6 6 -1 11 2 17 5 13 3 -3 4 -12 1 -19z m-2630 -10 c-3 -8 -6
-5 -6 6 -1 11 2 17 5 13 3 -3 4 -12 1 -19z m1498 12 c3 -5 1 -10 -4 -10 -6 0
-11 5 -11 10 0 6 2 10 4 10 3 0 8 -4 11 -10z m-28 -32 c-3 -8 -6 -5 -6 6 -1
11 2 17 5 13 3 -3 4 -12 1 -19z m2540 -25 c-3 -10 -5 -2 -5 17 0 19 2 27 5 18
2 -10 2 -26 0 -35z m-1391 0 c-10 -10 -19 5 -10 18 6 11 8 11 12 0 2 -7 1 -15
-2 -18z m2599 17 c3 -5 1 -10 -4 -10 -6 0 -11 5 -11 10 0 6 2 10 4 10 3 0 8
-4 11 -10z m-24 -43 c-10 -9 -11 -8 -5 6 3 10 9 15 12 12 3 -3 0 -11 -7 -18z
m-2588 -12 c4 -8 2 -17 -3 -20 -6 -4 -10 3 -10 14 0 25 6 27 13 6z m1397 -26
c0 -10 -4 -19 -10 -19 -5 0 -10 12 -10 26 0 14 4 23 10 19 6 -3 10 -15 10 -26z
m-1841 -111 c0 -84 -4 -126 -9 -113 -14 33 -8 245 6 245 2 0 4 -60 3 -132z
m3016 122 c3 -5 1 -10 -4 -10 -6 0 -11 5 -11 10 0 6 2 10 4 10 3 0 8 -4 11
-10z m-3544 -17 c13 -16 12 -17 -3 -4 -17 13 -22 21 -14 21 2 0 10 -8 17 -17z
m3057 -3 c-7 -11 -19 -22 -28 -25 -8 -4 -4 5 9 19 29 31 36 33 19 6z m397 10
c3 -5 1 -10 -4 -10 -6 0 -11 5 -11 10 0 6 2 10 4 10 3 0 8 -4 11 -10z m-5096
-80 c1 -33 -2 -41 -9 -30 -5 8 -9 38 -9 65 1 64 17 32 18 -35z m2598 38 c-3
-7 -5 -2 -5 12 0 14 2 19 5 13 2 -7 2 -19 0 -25z m-2580 -10 c-3 -8 -6 -5 -6
6 -1 11 2 17 5 13 3 -3 4 -12 1 -19z m3975 -8 c3 -16 1 -30 -4 -30 -4 0 -8 14
-8 30 0 17 2 30 4 30 2 0 6 -13 8 -30z m653 -20 c-10 -11 -21 -17 -24 -14 -3
3 3 12 13 20 28 20 32 17 11 -6z m-2055 -5 c0 -8 -4 -15 -10 -15 -5 0 -7 7 -4
15 4 8 8 15 10 15 2 0 4 -7 4 -15z m2560 5 c0 -5 -4 -10 -10 -10 -5 0 -10 5
-10 10 0 6 5 10 10 10 6 0 10 -4 10 -10z m-4892 -25 c-3 -3 -9 2 -12 12 -6 14
-5 15 5 6 7 -7 10 -15 7 -18z m3722 -35 c0 -16 -4 -30 -8 -30 -5 0 -7 14 -4
30 2 17 6 30 8 30 2 0 4 -13 4 -30z m640 27 c0 -2 -9 -12 -20 -22 -24 -21 -27
-14 -4 9 15 15 24 20 24 13z m-2045 -17 c3 -5 1 -10 -4 -10 -6 0 -11 5 -11 10
0 6 2 10 4 10 3 0 8 -4 11 -10z m2542 -22 c-3 -8 -6 -5 -6 6 -1 11 2 17 5 13
3 -3 4 -12 1 -19z m-3369 -23 c-3 -3 -9 2 -12 12 -6 14 -5 15 5 6 7 -7 10 -15
7 -18z m2826 0 c-4 -8 -11 -15 -16 -15 -6 0 -5 6 2 15 7 8 14 15 16 15 2 0 1
-7 -2 -15z m-2017 -17 c-3 -8 -6 -5 -6 6 -1 11 2 17 5 13 3 -3 4 -12 1 -19z
m-2550 -260 c-1 -51 -3 -10 -3 92 0 102 2 143 3 93 2 -51 2 -135 0 -185z
m3963 246 c0 -8 -4 -14 -10 -14 -5 0 -10 9 -10 21 0 11 5 17 10 14 6 -3 10
-13 10 -21z m1140 11 c0 -8 -4 -15 -10 -15 -5 0 -10 7 -10 15 0 8 5 15 10 15
6 0 10 -7 10 -15z m-567 -20 c-3 -9 -8 -14 -10 -11 -3 3 -2 9 2 15 9 16 15 13
8 -4z m-1997 -32 c-10 -10 -19 5 -10 18 6 11 8 11 12 0 2 -7 1 -15 -2 -18z
m2511 5 c-3 -8 -6 -5 -6 6 -1 11 2 17 5 13 3 -3 4 -12 1 -19z m36 2 c3 -11 1
-20 -4 -20 -5 0 -9 9 -9 20 0 11 2 20 4 20 2 0 6 -9 9 -20z m-1139 -32 c4 -17
2 -28 -4 -28 -5 0 -10 14 -10 32 0 36 4 35 14 -4z m-2084 -42 c0 -6 -13 4 -30
22 -16 18 -30 36 -30 39 0 4 14 -6 30 -22 17 -16 30 -33 30 -39z m3177 -8 c-2
-13 -4 -3 -4 22 0 25 2 35 4 23 2 -13 2 -33 0 -45z m-2887 43 c0 -6 -4 -13
-10 -16 -5 -3 -10 1 -10 9 0 9 5 16 10 16 6 0 10 -4 10 -9z m380 -12 c0 -5 -4
-9 -10 -9 -5 0 -10 7 -10 16 0 8 5 12 10 9 6 -3 10 -10 10 -16z m1958 -4 c-6
-14 -15 -25 -20 -25 -5 0 -1 11 8 25 9 14 18 25 20 25 2 0 -2 -11 -8 -25z
m579 -47 c-2 -13 -4 -3 -4 22 0 25 2 35 4 23 2 -13 2 -33 0 -45z m-1137 -3 c0
-19 -4 -35 -8 -35 -4 0 -6 16 -4 35 2 19 6 35 8 35 2 0 4 -16 4 -35z m-1423
-12 c-3 -10 -5 -4 -5 12 0 17 2 24 5 18 2 -7 2 -21 0 -30z m-582 -3 c3 -6 -1
-7 -9 -4 -18 7 -21 14 -7 14 6 0 13 -4 16 -10z m3785 7 c0 -1 -28 -29 -61 -62
-34 -33 -57 -51 -51 -39 15 30 112 117 112 101z m-3670 -37 c11 -7 7 -10 -18
-10 -20 0 -31 4 -27 10 8 13 26 13 45 0z m460 -6 c0 -8 -5 -12 -10 -9 -6 4 -8
11 -5 16 9 14 15 11 15 -7z m1420 -30 c0 -13 -4 -24 -10 -24 -5 0 -10 14 -10
31 0 17 4 28 10 24 6 -3 10 -17 10 -31z m-1430 -21 c0 -5 -5 -15 -10 -23 -8
-12 -10 -11 -10 8 0 12 5 22 10 22 6 0 10 -3 10 -7z m1913 -21 c-3 -12 -9 -19
-14 -16 -5 3 -3 14 3 24 15 24 19 21 11 -8z m-501 -22 c3 -16 1 -35 -4 -42 -4
-8 -8 4 -8 30 0 49 6 55 12 12z m1135 -12 c-3 -8 -6 -5 -6 6 -1 11 2 17 5 13
3 -3 4 -12 1 -19z m30 -15 c-3 -10 -5 -4 -5 12 0 17 2 24 5 18 2 -7 2 -21 0
-30z m-2600 -5 c-3 -7 -5 -2 -5 12 0 14 2 19 5 13 2 -7 2 -19 0 -25z m1900
-30 c-3 -8 -6 -5 -6 6 -1 11 2 17 5 13 3 -3 4 -12 1 -19z m1142 -7 c-13 -11
-28 -20 -34 -20 -5 0 3 11 20 24 16 13 31 22 34 20 2 -3 -7 -13 -20 -24z
m-3052 -13 c-3 -8 -6 -5 -6 6 -1 11 2 17 5 13 3 -3 4 -12 1 -19z m1430 -55
c-2 -16 -4 -3 -4 27 0 30 2 43 4 28 2 -16 2 -40 0 -55z m473 35 c0 -18 -2 -20
-9 -8 -6 8 -7 18 -5 22 9 14 14 9 14 -14z m740 12 c0 -5 -2 -10 -4 -10 -3 0
-8 5 -11 10 -3 6 -1 10 4 10 6 0 11 -4 11 -10z m30 -45 c13 -14 21 -25 18 -25
-2 0 -15 11 -28 25 -13 14 -21 25 -18 25 2 0 15 -11 28 -25z m320 21 c0 -2 -7
-7 -16 -10 -8 -3 -12 -2 -9 4 6 10 25 14 25 6z m-5469 -97 c-9 -32 -9 -31 -10
22 -1 31 2 59 7 63 11 12 14 -48 3 -85z m2464 81 c3 -5 1 -10 -4 -10 -6 0 -11
5 -11 10 0 6 2 10 4 10 3 0 8 -4 11 -10z m1905 -22 c0 -16 -3 -19 -11 -11 -6
6 -8 16 -5 22 11 17 16 13 16 -11z m1027 -4 c-3 -3 -12 -4 -19 -1 -8 3 -5 6 6
6 11 1 17 -2 13 -5z m-187 -14 c0 -5 -4 -10 -10 -10 -5 0 -10 5 -10 10 0 6 5
10 10 10 6 0 10 -4 10 -10z m-2757 -20 c3 -11 1 -20 -4 -20 -5 0 -9 9 -9 20 0
11 2 20 4 20 2 0 6 -9 9 -20z m2867 10 c11 -7 -2 -10 -43 -10 -36 0 -56 4 -52
10 8 13 75 13 95 0z m-4145 -43 c40 -56 43 -67 11 -38 -14 14 -26 30 -26 38 0
7 -4 13 -9 13 -5 0 -11 7 -15 15 -10 28 9 14 39 -28z m3172 -4 c-3 -10 -5 -4
-5 12 0 17 2 24 5 18 2 -7 2 -21 0 -30z m-447 -36 c0 -23 -5 -49 -10 -57 -7
-11 -10 4 -10 48 0 40 4 61 10 57 6 -3 10 -25 10 -48z m-1460 23 c0 -11 -4
-20 -9 -20 -5 0 -7 9 -4 20 3 11 7 20 9 20 2 0 4 -9 4 -20z m3000 10 c0 -5 -7
-10 -15 -10 -8 0 -15 5 -15 10 0 6 7 10 15 10 8 0 15 -4 15 -10z m367 -22 c-3
-7 -5 -2 -5 12 0 14 2 19 5 13 2 -7 2 -19 0 -25z m-43 3 c-5 -3 -14 -15 -20
-25 -6 -11 -17 -22 -25 -25 -10 -3 -9 1 3 12 9 10 20 26 23 37 4 11 11 17 17
14 5 -4 6 -9 2 -13z m-4297 -28 c-3 -10 -5 -4 -5 12 0 17 2 24 5 18 2 -7 2
-21 0 -30z m2873 -40 c0 -25 -2 -44 -4 -42 -8 10 -13 89 -5 89 5 0 9 -21 9
-47z m-4353 -15 c-2 -13 -4 -5 -4 17 -1 22 1 32 4 23 2 -10 2 -28 0 -40z
m2435 20 c-9 -9 -12 -7 -12 12 0 19 3 21 12 12 9 -9 9 -15 0 -24z m-2352 12
c0 -5 -2 -10 -4 -10 -3 0 -8 5 -11 10 -3 6 -1 10 4 10 6 0 11 -4 11 -10z
m5747 -12 c-3 -8 -6 -5 -6 6 -1 11 2 17 5 13 3 -3 4 -12 1 -19z m-3410 -50
c-3 -7 -5 -2 -5 12 0 14 2 19 5 13 2 -7 2 -19 0 -25z m3273 -7 c-10 -20 -30
-37 -30 -26 0 11 25 45 33 45 4 0 3 -9 -3 -19z m160 4 c0 -8 -4 -15 -10 -15
-5 0 -10 7 -10 15 0 8 5 15 10 15 6 0 10 -7 10 -15z m-1933 -32 c-3 -10 -5 -4
-5 12 0 17 2 24 5 18 2 -7 2 -21 0 -30z m-3928 -10 c-1 -33 -2 -35 -8 -13 -4
14 -6 31 -3 38 8 22 12 13 11 -25z m2418 -20 c-3 -10 -5 -4 -5 12 0 17 2 24 5
18 2 -7 2 -21 0 -30z m3231 -15 c-13 -18 -27 -35 -31 -37 -5 -2 -12 -14 -17
-26 -5 -13 -19 -29 -31 -35 -25 -14 -27 -18 46 78 43 56 70 73 33 20z m219 0
c-3 -7 -5 -2 -5 12 0 14 2 19 5 13 2 -7 2 -19 0 -25z m-1920 5 c-4 -3 -2 -12
4 -20 9 -9 8 -13 0 -13 -6 0 -11 2 -11 4 0 2 -3 11 -6 20 -4 10 -1 16 7 16 7
0 9 -3 6 -7z m-2467 -23 c0 -11 1 -23 2 -27 1 -5 -7 -10 -18 -12 -10 -2 -22
-8 -26 -15 -6 -8 -8 -7 -8 2 0 7 -4 11 -8 8 -4 -2 -9 5 -9 16 -2 19 -1 19 11
2 13 -17 14 -16 25 4 8 14 8 22 1 22 -5 0 -10 5 -10 10 0 6 9 10 20 10 13 0
20 -7 20 -20z m2880 -30 c0 -27 -3 -50 -7 -50 -5 0 -6 22 -5 50 5 65 12 65 12
0z m-4370 13 c0 -20 -3 -24 -11 -16 -7 7 -9 19 -6 27 10 24 17 19 17 -11z
m5100 17 c0 -5 -7 -7 -15 -4 -8 4 -15 8 -15 10 0 2 7 4 15 4 8 0 15 -4 15 -10z
m-2680 -9 c0 -6 -4 -13 -10 -16 -5 -3 -10 1 -10 9 0 9 5 16 10 16 6 0 10 -4
10 -9z m1980 -1 c0 -5 -5 -10 -11 -10 -5 0 -7 5 -4 10 3 6 8 10 11 10 2 0 4
-4 4 -10z m1487 -22 c-3 -8 -6 -5 -6 6 -1 11 2 17 5 13 3 -3 4 -12 1 -19z
m-1490 -45 c-3 -10 -5 -2 -5 17 0 19 2 27 5 18 2 -10 2 -26 0 -35z m493 38 c0
-6 -4 -13 -10 -16 -5 -3 -10 1 -10 9 0 9 5 16 10 16 6 0 10 -4 10 -9z m-2487
-21 c3 -11 1 -20 -4 -20 -5 0 -9 9 -9 20 0 11 2 20 4 20 2 0 6 -9 9 -20z m824
-67 c-2 -16 -4 -3 -4 27 0 30 2 43 4 28 2 -16 2 -40 0 -55z m-3250 35 c-3 -7
-5 -2 -5 12 0 14 2 19 5 13 2 -7 2 -19 0 -25z m1500 26 c-3 -4 5 -15 18 -26
14 -11 25 -24 25 -31 0 -6 -13 2 -30 18 -32 30 -38 45 -18 45 6 0 8 -3 5 -6z
m2570 0 c-3 -3 -12 -4 -19 -1 -8 3 -5 6 6 6 11 1 17 -2 13 -5z m166 -1 c-7 -2
-19 -2 -25 0 -7 3 -2 5 12 5 14 0 19 -2 13 -5z m-2747 -35 l29 -31 -32 22
c-18 12 -33 27 -33 32 0 14 4 11 36 -23z m2694 22 c0 -5 -23 -10 -51 -10 -31
0 -48 4 -44 10 3 6 26 10 51 10 24 0 44 -4 44 -10z m1750 0 c0 -5 -5 -10 -11
-10 -5 0 -7 5 -4 10 3 6 8 10 11 10 2 0 4 -4 4 -10z m-3523 -52 c-3 -7 -5 -2
-5 12 0 14 2 19 5 13 2 -7 2 -19 0 -25z m1990 0 c-3 -7 -5 -2 -5 12 0 14 2 19
5 13 2 -7 2 -19 0 -25z m1183 25 c0 -11 -93 -103 -103 -103 -5 0 11 21 37 46
25 26 46 51 46 55 0 5 5 9 10 9 6 0 10 -3 10 -7z m-5591 -30 c0 -25 -1 -25 -8
-8 -5 11 -7 23 -4 28 8 14 13 7 12 -20z m4438 5 c-3 -8 -6 -5 -6 6 -1 11 2 17
5 13 3 -3 4 -12 1 -19z m1510 -10 c-3 -8 -6 -5 -6 6 -1 11 2 17 5 13 3 -3 4
-12 1 -19z m-4334 -88 c39 -39 68 -72 66 -75 -3 -2 -38 29 -79 70 -41 41 -71
75 -66 75 5 0 40 -32 79 -70z m797 61 c0 -6 -4 -13 -10 -16 -5 -3 -10 1 -10 9
0 9 5 16 10 16 6 0 10 -4 10 -9z m1885 -10 c-3 -6 -11 -11 -17 -11 -6 0 -6 6
2 15 14 17 26 13 15 -4z m1662 -3 c-3 -8 -6 -5 -6 6 -1 11 2 17 5 13 3 -3 4
-12 1 -19z m-2690 -10 c-3 -8 -6 -5 -6 6 -1 11 2 17 5 13 3 -3 4 -12 1 -19z
m283 -20 c0 -2 -14 -3 -30 -4 -17 -1 -30 3 -30 7 0 5 7 9 15 9 8 0 15 5 15 11
0 6 7 4 15 -5 8 -8 15 -16 15 -18z m704 8 c-6 -15 -34 -31 -34 -19 0 5 30 32
37 33 1 0 0 -6 -3 -14z m-4290 -30 c-3 -14 -10 -24 -14 -21 -5 3 -3 16 3 29
15 31 20 27 11 -8z m3466 24 c0 -5 -4 -10 -10 -10 -5 0 -10 5 -10 10 0 6 5 10
10 10 6 0 10 -4 10 -10z m770 -35 c-7 -9 -15 -13 -19 -10 -3 3 1 10 9 15 21
14 24 12 10 -5z m1799 -29 c1 -6 -5 -1 -13 9 -8 11 -12 24 -8 29 5 9 20 -17
21 -38z m31 6 c0 -15 -2 -15 -10 -2 -13 20 -13 33 0 25 6 -3 10 -14 10 -23z
m-1551 -13 c9 -27 9 -30 -4 -19 -8 7 -12 16 -9 21 3 5 0 9 -5 9 -6 0 -11 5
-11 10 0 22 19 8 29 -21z m-1179 11 c0 -5 -5 -10 -11 -10 -5 0 -7 5 -4 10 3 6
8 10 11 10 2 0 4 -4 4 -10z m865 0 c-3 -5 -12 -10 -18 -10 -7 0 -6 4 3 10 19
12 23 12 15 0z m-4215 -10 c0 -5 -4 -10 -10 -10 -5 0 -10 5 -10 10 0 6 5 10
10 10 6 0 10 -4 10 -10z m3545 0 c3 -5 1 -10 -4 -10 -6 0 -11 5 -11 10 0 6 2
10 4 10 3 0 8 -4 11 -10z m625 -15 c-7 -9 -15 -13 -19 -10 -3 3 1 10 9 15 21
14 24 12 10 -5z m1900 -5 c0 -5 -4 -10 -10 -10 -5 0 -10 5 -10 10 0 6 5 10 10
10 6 0 10 -4 10 -10z m-6101 -38 c-10 -30 -29 -44 -29 -22 0 6 4 10 9 10 5 0
12 12 15 26 4 15 9 24 12 22 2 -3 -1 -19 -7 -36z m2435 29 c3 -5 -1 -11 -9
-14 -9 -4 -12 -1 -8 9 6 16 10 17 17 5z m960 -7 c3 -8 2 -12 -4 -9 -6 3 -10
10 -10 16 0 14 7 11 14 -7z m113 -14 c1 -11 -2 -18 -8 -15 -11 7 -12 35 -1 35
4 0 8 -9 9 -20z m116 3 c-4 -10 -9 -10 -18 -3 -6 5 -16 6 -20 2 -5 -4 -6 -2
-2 3 8 16 46 13 40 -2z m542 7 c-3 -5 -12 -10 -18 -10 -7 0 -6 4 3 10 19 12
23 12 15 0z m-2340 -38 c-6 -7 -35 18 -35 31 0 5 9 2 20 -8 11 -10 18 -20 15
-23z m1715 28 c0 -5 -4 -10 -10 -10 -5 0 -10 5 -10 10 0 6 5 10 10 10 6 0 10
-4 10 -10z m165 -11 c-4 -5 -1 -9 5 -9 6 0 8 -5 4 -11 -5 -8 -9 -7 -14 1 -4 7
-15 10 -24 7 -17 -7 -46 1 -46 12 0 3 18 7 40 8 23 1 38 -2 35 -8z m420 -8
c-3 -6 -11 -11 -17 -11 -6 0 -6 6 2 15 14 17 26 13 15 -4z m-661 -17 c9 -24 2
-26 -12 -4 -7 11 -8 20 -3 20 5 0 12 -7 15 -16z m132 -10 c-8 -8 -19 -14 -25
-14 -6 0 -7 -8 -4 -17 5 -12 2 -15 -10 -10 -30 11 -6 -23 27 -38 23 -11 25
-13 6 -9 -46 12 -70 23 -70 34 0 5 -6 10 -14 10 -8 0 -18 5 -22 12 -4 7 -3 8
5 4 14 -9 81 20 81 35 0 6 5 7 10 4 6 -3 10 -1 10 5 0 6 5 8 10 5 6 -4 5 -12
-4 -21z m-1726 -6 c0 -6 -6 -5 -15 2 -8 7 -15 14 -15 16 0 2 7 1 15 -2 8 -4
15 -11 15 -16z m1624 -67 c-6 -7 -74 61 -74 73 0 6 18 -7 39 -29 22 -22 37
-42 35 -44z m552 54 c-11 -8 -25 -15 -30 -15 -6 1 0 7 14 15 32 19 40 18 16 0z
m634 -26 c3 -3 14 -11 25 -17 11 -6 14 -12 7 -12 -7 0 -29 16 -50 37 -20 20
-26 28 -12 17 14 -10 27 -22 30 -25z m1473 27 c4 -10 1 -13 -8 -9 -8 3 -12 9
-9 14 7 12 11 11 17 -5z m-4243 -18 c0 -6 -6 -5 -15 2 -8 7 -15 14 -15 16 0 2
7 1 15 -2 8 -4 15 -11 15 -16z m470 19 c0 -2 -12 -14 -27 -28 l-28 -24 24 28
c23 25 31 32 31 24z m2950 -22 c-7 -8 -16 -12 -21 -9 -5 3 -9 0 -9 -5 0 -6 -4
-11 -10 -11 -18 0 -10 17 13 28 32 15 41 14 27 -3z m-3390 -5 c0 -5 -4 -10
-10 -10 -5 0 -10 5 -10 10 0 6 5 10 10 10 6 0 10 -4 10 -10z m45 -20 c13 -6
15 -9 5 -9 -8 0 -22 4 -30 9 -18 12 -2 12 25 0z m3270 -14 c-11 -8 -24 -12
-29 -8 -5 3 -1 9 10 13 31 12 39 10 19 -5z m-3225 -6 c0 -5 -4 -10 -10 -10 -5
0 -10 5 -10 10 0 6 5 10 10 10 6 0 10 -4 10 -10z m1890 6 c0 -11 -19 -15 -25
-6 -3 5 1 10 9 10 9 0 16 -2 16 -4z m830 0 c0 -3 -4 -8 -10 -11 -5 -3 -10 -1
-10 4 0 6 5 11 10 11 6 0 10 -2 10 -4z m-1174 -34 c-6 -6 -56 10 -56 18 0 5
13 3 30 -3 16 -6 28 -13 26 -15z m-1499 12 c-3 -3 -12 -4 -19 -1 -8 3 -5 6 6
6 11 1 17 -2 13 -5z m1586 -1 c-7 -2 -21 -2 -30 0 -10 3 -4 5 12 5 17 0 24 -2
18 -5z m2562 -3 c3 -5 2 -10 -4 -10 -5 0 -13 5 -16 10 -3 6 -2 10 4 10 5 0 13
-4 16 -10z m-4015 -6 c-36 -8 -100 -9 -100 -2 0 5 26 7 58 7 31 -1 50 -3 42
-5z m1627 0 c-3 -3 -12 -4 -19 -1 -8 3 -5 6 6 6 11 1 17 -2 13 -5z m-215 -16
c-9 -9 -15 -9 -24 0 -9 9 -7 12 12 12 19 0 21 -3 12 -12z m83 -8 c3 -5 -3 -10
-14 -10 -12 0 -21 5 -21 10 0 6 6 10 14 10 8 0 18 -4 21 -10z m2580 -18 c-3
-3 -11 0 -18 7 -9 10 -8 11 6 5 10 -3 15 -9 12 -12z m45 -22 c0 -5 21 -12 46
-16 35 -5 43 -9 31 -16 -10 -5 -24 -5 -34 1 -10 5 -30 14 -45 20 -16 6 -28 15
-28 20 0 6 7 8 15 5 8 -4 15 -10 15 -14z m200 -40 c0 -5 -22 -10 -50 -10 -27
0 -50 5 -50 10 0 6 23 10 50 10 28 0 50 -4 50 -10z m-6990 -325 c0 -35 -3 -43
-15 -39 -15 6 -21 64 -8 77 16 16 23 4 23 -38z"/>
<path d="M3511 3623 c0 -25 1 -26 9 -8 12 27 12 35 0 35 -5 0 -10 -12 -9 -27z"/>
<path d="M3875 2920 c3 -5 8 -10 11 -10 2 0 4 5 4 10 0 6 -5 10 -11 10 -5 0
-7 -4 -4 -10z"/>
<path d="M4953 4233 c9 -2 23 -2 30 0 6 3 -1 5 -18 5 -16 0 -22 -2 -12 -5z"/>
<path d="M5073 4233 c9 -2 25 -2 35 0 9 3 1 5 -18 5 -19 0 -27 -2 -17 -5z"/>
<path d="M4760 4129 c-11 -19 -10 -20 9 -9 12 6 21 15 21 20 0 18 -19 11 -30
-11z"/>
<path d="M4770 3458 c0 -5 44 -8 97 -8 53 0 94 3 91 6 -9 8 -188 10 -188 2z"/>
<path d="M1928 4073 c7 -3 16 -2 19 1 4 3 -2 6 -13 5 -11 0 -14 -3 -6 -6z"/>
<path d="M1131 3574 c0 -11 3 -14 6 -6 3 7 2 16 -1 19 -3 4 -6 -2 -5 -13z"/>
<path d="M1123 3085 c0 -27 2 -38 4 -22 2 15 2 37 0 50 -2 12 -4 0 -4 -28z"/>
<path d="M1133 2985 c0 -27 2 -38 4 -22 2 15 2 37 0 50 -2 12 -4 0 -4 -28z"/>
<path d="M1163 2770 c0 -25 2 -35 4 -22 2 12 2 32 0 45 -2 12 -4 2 -4 -23z"/>
<path d="M1351 2617 c2 -1 13 -9 24 -17 19 -14 19 -14 6 3 -7 9 -18 17 -24 17
-6 0 -8 -1 -6 -3z"/>
<path d="M1796 2421 c-3 -4 6 -6 19 -3 14 2 25 6 25 8 0 8 -39 4 -44 -5z"/>
<path d="M2610 2360 c0 -5 5 -10 10 -10 6 0 10 5 10 10 0 6 -4 10 -10 10 -5 0
-10 -4 -10 -10z"/>
<path d="M2610 2179 c0 -5 5 -7 10 -4 6 3 10 8 10 11 0 2 -4 4 -10 4 -5 0 -10
-5 -10 -11z"/>
<path d="M1723 2135 c0 -27 2 -38 4 -22 2 15 2 37 0 50 -2 12 -4 0 -4 -28z"/>
<path d="M2615 2149 c-11 -17 1 -21 15 -4 8 9 8 15 2 15 -6 0 -14 -5 -17 -11z"/>
<path d="M2617 2089 c6 -6 9 -17 7 -24 -3 -7 -1 -16 5 -20 6 -3 11 0 11 9 0
23 -11 46 -23 46 -8 0 -8 -3 0 -11z"/>
<path d="M2620 2005 c0 -8 5 -15 10 -15 6 0 10 7 10 15 0 8 -4 15 -10 15 -5 0
-10 -7 -10 -15z"/>
<path d="M1417 1863 c-4 -3 -7 -11 -7 -17 0 -6 5 -5 12 2 6 6 9 14 7 17 -3 3
-9 2 -12 -2z"/>
<path d="M1692 1840 c0 -19 2 -27 5 -17 2 9 2 25 0 35 -3 9 -5 1 -5 -18z"/>
<path d="M1683 1730 c0 -30 2 -43 4 -27 2 15 2 39 0 55 -2 15 -4 2 -4 -28z"/>
<path d="M1672 1630 c0 -19 2 -27 5 -17 2 9 2 25 0 35 -3 9 -5 1 -5 -18z"/>
<path d="M2520 1521 c0 -21 31 -24 48 -5 16 17 16 17 0 5 -15 -11 -21 -11 -33
-1 -11 9 -15 9 -15 1z"/>
<path d="M677 743 c-4 -3 -7 -11 -7 -17 0 -6 5 -5 12 2 6 6 9 14 7 17 -3 3 -9
2 -12 -2z"/>
<path d="M6698 2713 c12 -2 32 -2 45 0 12 2 2 4 -23 4 -25 0 -35 -2 -22 -4z"/>
<path d="M6550 2695 c-14 -16 -10 -18 14 -9 9 3 16 10 16 15 0 14 -16 11 -30
-6z"/>
<path d="M7664 2585 c0 -55 1 -76 3 -47 2 29 2 74 0 100 -2 26 -3 2 -3 -53z"/>
<path d="M6504 2616 c-10 -8 -15 -18 -11 -22 4 -4 15 0 24 9 22 21 12 31 -13
13z"/>
<path d="M6902 2415 c0 -16 2 -22 5 -12 2 9 2 23 0 30 -3 6 -5 -1 -5 -18z"/>
<path d="M7674 2290 c0 -69 1 -97 3 -62 2 34 2 90 0 125 -2 34 -3 6 -3 -63z"/>
<path d="M6913 2295 c0 -27 2 -38 4 -22 2 15 2 37 0 50 -2 12 -4 0 -4 -28z"/>
<path d="M7701 1784 c0 -11 3 -14 6 -6 3 7 2 16 -1 19 -3 4 -6 -2 -5 -13z"/>
<path d="M6545 1600 c3 -5 11 -10 16 -10 6 0 7 5 4 10 -3 6 -11 10 -16 10 -6
0 -7 -4 -4 -10z"/>
<path d="M6325 1450 c3 -5 8 -10 11 -10 2 0 4 5 4 10 0 6 -5 10 -11 10 -5 0
-7 -4 -4 -10z"/>
<path d="M7784 964 c-18 -14 -18 -15 4 -4 12 6 22 13 22 15 0 8 -5 6 -26 -11z"/>
<path d="M6168 963 c7 -3 16 -2 19 1 4 3 -2 6 -13 5 -11 0 -14 -3 -6 -6z"/>
<path d="M4665 3020 c-13 -6 -15 -9 -5 -9 8 0 22 4 30 9 18 12 2 12 -25 0z"/>
<path d="M4435 2890 c-3 -6 1 -7 9 -4 18 7 21 14 7 14 -6 0 -13 -4 -16 -10z"/>
<path d="M5139 2833 c0 -5 -2 -16 -4 -25 -2 -10 0 -18 5 -18 8 0 20 24 20 41
0 11 -20 12 -21 2z"/>
<path d="M4326 2805 c-14 -13 -26 -30 -26 -37 0 -7 6 -4 12 7 6 11 21 28 32
37 12 10 18 17 15 18 -3 0 -18 -11 -33 -25z"/>
<path d="M5165 2740 c-3 -5 1 -10 9 -10 9 0 16 5 16 10 0 6 -4 10 -9 10 -6 0
-13 -4 -16 -10z"/>
<path d="M4300 2730 c0 -5 5 -10 11 -10 5 0 7 5 4 10 -3 6 -8 10 -11 10 -2 0
-4 -4 -4 -10z"/>
<path d="M4412 2570 c0 -19 2 -27 5 -17 2 9 2 25 0 35 -3 9 -5 1 -5 -18z"/>
<path d="M5161 2514 c0 -11 3 -14 6 -6 3 7 2 16 -1 19 -3 4 -6 -2 -5 -13z"/>
<path d="M4400 1739 c0 -5 5 -7 10 -4 6 3 10 8 10 11 0 2 -4 4 -10 4 -5 0 -10
-5 -10 -11z"/>
<path d="M4407 1713 c-11 -10 -8 -43 3 -43 6 0 10 11 10 25 0 26 -2 29 -13 18z"/>
<path d="M4400 1579 c0 -5 5 -7 10 -4 6 3 10 8 10 11 0 2 -4 4 -10 4 -5 0 -10
-5 -10 -11z"/>
<path d="M4600 1481 c0 -5 7 -11 14 -14 10 -4 13 -1 9 9 -6 15 -23 19 -23 5z"/>
<path d="M4490 1400 c0 -5 5 -10 11 -10 5 0 7 5 4 10 -3 6 -8 10 -11 10 -2 0
-4 -4 -4 -10z"/>
<path d="M4675 1400 c-3 -5 1 -10 10 -10 9 0 13 5 10 10 -3 6 -8 10 -10 10 -2
0 -7 -4 -10 -10z"/>
<path d="M4640 1369 c0 -6 5 -7 11 -4 6 4 13 -2 15 -12 3 -10 14 -24 25 -31
22 -14 26 0 4 18 -8 7 -15 18 -15 24 0 7 -9 12 -20 13 -11 1 -20 -3 -20 -8z"/>
<path d="M4505 1360 c-3 -5 1 -10 9 -10 9 0 16 5 16 10 0 6 -4 10 -9 10 -6 0
-13 -4 -16 -10z"/>
<path d="M4710 1360 c0 -11 48 -25 57 -16 4 3 -1 6 -10 6 -9 0 -17 5 -17 10 0
6 -7 10 -15 10 -8 0 -15 -4 -15 -10z"/>
<path d="M4485 1330 c4 -6 11 -8 16 -5 14 9 11 15 -7 15 -8 0 -12 -5 -9 -10z"/>
<path d="M4530 1330 c0 -5 8 -10 17 -10 9 0 13 -3 10 -6 -10 -10 12 -44 28
-44 20 0 19 6 -7 40 -21 29 -48 40 -48 20z"/>
<path d="M4770 1321 c0 -6 5 -13 10 -16 6 -3 10 1 10 9 0 9 -4 16 -10 16 -5 0
-10 -4 -10 -9z"/>
<path d="M4930 1318 c0 -4 9 -8 20 -8 11 0 20 4 20 8 0 4 -9 8 -20 8 -11 0
-20 -4 -20 -8z"/>
<path d="M4506 1291 c19 -18 44 -18 44 1 0 6 -7 8 -15 5 -8 -4 -17 -2 -20 3
-4 6 -11 10 -17 10 -6 0 -3 -8 8 -19z"/>
<path d="M5046 1297 c3 -10 9 -15 12 -12 3 3 0 11 -7 18 -10 9 -11 8 -5 -6z"/>
<path d="M5230 1291 c0 -5 7 -11 15 -15 8 -3 15 -1 15 3 0 5 -7 11 -15 15 -8
3 -15 1 -15 -3z"/>
<path d="M4754 1274 c-10 -8 -14 -13 -7 -10 6 4 14 2 18 -4 3 -5 12 -10 18
-10 8 0 7 3 -2 9 -7 5 -10 14 -7 20 10 15 3 14 -20 -5z"/>
<path d="M4970 1270 c0 -5 5 -10 10 -10 6 0 10 5 10 10 0 6 -4 10 -10 10 -5 0
-10 -4 -10 -10z"/>
<path d="M5010 1270 c0 -5 7 -10 16 -10 8 0 12 5 9 10 -3 6 -10 10 -16 10 -5
0 -9 -4 -9 -10z"/>
<path d="M4960 1240 c0 -5 5 -10 11 -10 5 0 7 5 4 10 -3 6 -8 10 -11 10 -2 0
-4 -4 -4 -10z"/>
<path d="M5160 1230 c-8 -5 -12 -12 -9 -15 8 -8 39 5 39 16 0 11 -11 11 -30
-1z"/>
<path d="M4752 1213 c6 -8 19 -11 30 -7 17 5 19 2 13 -18 -5 -21 -5 -22 8 -5
14 17 47 24 47 9 0 -4 -9 -13 -20 -20 -27 -17 -25 -32 4 -32 15 0 26 7 28 17
3 15 5 15 22 -3 19 -19 20 -19 14 4 -5 19 -3 21 18 18 15 -3 22 -1 18 6 -4 5
-19 8 -34 4 -22 -4 -32 0 -43 17 -11 17 -25 22 -66 23 -42 1 -49 -2 -39 -13z"/>
<path d="M5238 1213 c7 -3 16 -2 19 1 4 3 -2 6 -13 5 -11 0 -14 -3 -6 -6z"/>
<path d="M4966 1152 c2 -22 0 -24 -26 -19 -18 4 -32 1 -40 -8 -11 -13 -5 -15
39 -15 44 0 51 3 51 20 0 11 5 20 10 20 20 0 9 18 -13 22 -20 4 -23 1 -21 -20z"/>
<path d="M5120 1130 c-8 -5 -10 -10 -5 -10 6 0 17 5 25 10 8 5 11 10 5 10 -5
0 -17 -5 -25 -10z"/>
<path d="M5046 1115 c13 -36 17 -38 31 -20 17 24 17 41 0 26 -10 -8 -17 -7
-26 2 -10 9 -11 8 -5 -8z"/>
<path d="M6245 2240 c-3 -5 -1 -10 4 -10 6 0 11 5 11 10 0 6 -2 10 -4 10 -3 0
-8 -4 -11 -10z"/>
</g>
</svg>
