<?xml version="1.0" standalone="no"?>
<!DOCTYPE svg PUBLIC "-//W3C//DTD SVG 20010904//EN"
 "http://www.w3.org/TR/2001/REC-SVG-20010904/DTD/svg10.dtd">
<svg version="1.0" xmlns="http://www.w3.org/2000/svg"
 width="900.000000pt" height="504.000000pt" viewBox="0 0 900.000000 504.000000"
 preserveAspectRatio="xMidYMid meet">
<metadata>
Created by potrace 1.16, written by Peter Selinger 2001-2019
</metadata>
<g transform="translate(0.000000,504.000000) scale(0.100000,-0.100000)"
fill="#FFFFFF" stroke="none">
<path d="M0 2520 l0 -2520 4500 0 4500 0 0 2520 0 2520 -4500 0 -4500 0 0
-2520z m3663 2073 c-34 -4 -46 -22 -15 -24 11 0 12 -2 4 -6 -7 -3 -19 1 -28 7
-8 7 -18 10 -21 6 -4 -4 -2 -11 6 -15 10 -7 10 -9 -2 -14 -11 -4 -14 1 -12 19
l2 24 -1508 0 -1509 0 0 -1965 c0 -1144 4 -1965 9 -1965 5 0 12 11 15 25 7 28
143 165 163 165 7 0 20 11 29 25 9 14 22 25 28 25 7 0 27 16 46 35 19 19 40
35 47 35 8 0 17 10 22 23 5 13 16 29 25 36 9 7 16 19 16 27 0 7 6 17 13 21 7
4 19 23 26 41 11 26 16 30 27 21 8 -6 14 -17 14 -23 0 -6 -4 -4 -10 4 -5 8
-12 11 -16 7 -4 -3 -1 -13 6 -22 7 -9 10 -18 6 -22 -3 -3 -6 -1 -6 5 0 24 -17
11 -44 -33 -16 -25 -33 -45 -39 -45 -5 0 -7 -6 -5 -12 5 -14 -27 -50 -36 -41
-6 6 -66 -54 -66 -67 0 -5 -6 -7 -14 -4 -7 3 -25 -8 -39 -25 -13 -16 -27 -27
-30 -24 -3 3 -20 -11 -37 -31 -18 -20 -38 -36 -46 -36 -7 0 -20 -13 -29 -30
-9 -16 -20 -30 -26 -30 -6 0 -9 -7 -5 -15 3 -8 1 -15 -4 -15 -6 0 -10 -7 -10
-15 0 -8 -5 -15 -11 -15 -5 0 -8 -4 -4 -9 3 -5 0 -13 -6 -16 -5 -4 -8 -13 -5
-21 3 -7 1 -16 -4 -19 -7 -4 -10 728 -10 2004 l0 2011 1563 -2 c859 0 1547 -3
1530 -5z m4566 -1540 c0 -852 -3 -1541 -6 -1533 -10 26 -36 50 -55 50 -23 0
-24 -17 0 -23 13 -3 12 -4 -3 -3 -28 1 -25 30 3 34 14 2 29 -4 37 -15 12 -15
14 204 15 1505 l0 1522 -2184 0 c-2019 0 -2184 -1 -2182 -16 0 -9 -6 -19 -14
-21 -13 -4 -13 -3 0 6 8 5 11 13 7 17 -3 4 -13 1 -22 -6 -9 -7 -18 -10 -22 -6
-3 3 -1 6 5 6 21 0 13 18 -10 23 -13 2 979 5 2205 6 l2227 1 -1 -1547z m-4459
1529 c0 -4 -16 -6 -35 -4 -19 2 -35 6 -35 8 0 2 16 4 35 4 19 0 35 -4 35 -8z
m-190 -28 c0 -8 -5 -12 -11 -9 -12 8 -51 -24 -43 -36 3 -5 -1 -6 -8 -4 -17 7
-61 -32 -55 -48 2 -7 -6 -17 -17 -23 -12 -5 -20 -18 -20 -27 1 -9 -7 -19 -18
-23 -11 -3 -17 -12 -14 -19 3 -8 -3 -17 -15 -20 -21 -7 -25 -20 -9 -30 6 -3
10 -1 10 4 0 6 5 11 10 11 6 0 5 -8 -2 -20 -9 -14 -14 -16 -20 -7 -12 18 -29
-12 -24 -41 2 -15 0 -20 -6 -14 -16 16 1 68 38 116 19 25 34 48 34 53 0 5 9
14 20 21 11 7 20 17 20 24 0 16 41 58 56 58 7 0 19 8 26 18 11 16 24 24 46 31
1 1 2 -6 2 -15z m350 -24 c0 -5 14 -25 30 -44 43 -49 102 -186 79 -186 -5 0
-9 9 -9 20 0 25 -20 27 -21 3 0 -12 -2 -13 -6 -5 -3 7 1 20 8 28 10 13 10 17
0 24 -8 4 -11 12 -8 16 3 5 -1 18 -9 29 -11 15 -17 17 -23 7 -5 -9 -11 -4 -19
15 -11 25 -11 26 2 10 9 -11 17 -14 21 -8 3 6 -8 24 -25 41 -17 16 -28 30 -24
30 3 0 1 7 -6 15 -7 9 -19 14 -27 11 -8 -3 -11 -1 -8 4 3 6 1 10 -4 10 -6 0
-11 4 -11 9 0 5 14 3 30 -5 17 -9 30 -19 30 -24z m-360 -4 c0 -2 -7 -7 -16
-10 -8 -3 -12 -2 -9 4 6 10 25 14 25 6z m340 -16 c0 -5 -2 -10 -4 -10 -3 0 -8
5 -11 10 -3 6 -1 10 4 10 6 0 11 -4 11 -10z m-407 -38 c-10 -10 -20 -17 -22
-16 -6 5 20 34 30 34 5 0 1 -8 -8 -18z m556 -194 c-1 -7 1 -20 4 -28 18 -41
42 -416 29 -444 -6 -12 -13 -84 -17 -161 -4 -100 -10 -144 -20 -154 -12 -12
-15 -11 -20 11 -4 14 -5 39 -2 54 3 22 4 19 6 -13 0 -24 6 -43 11 -43 13 0 13
103 -1 117 -5 5 -8 32 -6 59 l3 49 2 -52 c3 -91 22 -60 22 35 0 49 3 91 6 94
3 4 6 50 6 103 0 53 -3 99 -6 103 -3 3 -6 41 -6 84 0 43 -4 78 -8 78 -4 0 -6
16 -4 36 3 23 0 39 -8 44 -7 4 -10 15 -7 24 7 19 19 21 16 4z m1118 -36 c17
-12 35 -22 40 -22 12 0 64 -57 80 -87 6 -13 8 -23 2 -23 -5 0 -9 4 -9 10 0 15
-71 91 -80 85 -4 -3 -11 2 -14 11 -4 11 -15 14 -33 11 -16 -2 -22 -2 -15 0 6
3 12 9 12 15 0 6 -7 7 -17 3 -10 -4 -27 -9 -38 -10 -14 -1 -14 -1 -2 2 9 2 17
9 17 14 0 5 -40 9 -90 9 -49 0 -90 -4 -90 -9 0 -5 10 -12 23 -14 18 -3 17 -4
-3 -2 -14 1 -33 6 -42 10 -11 4 -18 3 -18 -3 0 -6 6 -12 13 -15 6 -2 1 -2 -12
0 -32 5 -79 -15 -86 -37 -3 -10 -13 -17 -22 -16 -9 0 -18 -5 -21 -13 -3 -10 0
-12 12 -8 11 4 15 3 11 -4 -4 -6 -13 -8 -21 -5 -9 3 -31 -11 -55 -35 -22 -22
-43 -39 -45 -36 -8 7 149 149 176 160 14 5 34 13 45 18 11 4 27 10 35 13 8 3
60 4 115 3 85 -2 105 -6 132 -25z m-1140 -39 c-3 -10 -5 -4 -5 12 0 17 2 24 5
18 2 -7 2 -21 0 -30z m-701 6 c1 -9 -1 -10 -3 -1 -3 6 -9 12 -14 12 -12 0 -12
-27 1 -35 6 -3 10 -12 9 -18 0 -9 -2 -9 -6 1 -8 19 -23 14 -23 -8 0 -11 -4
-20 -9 -20 -9 0 4 63 16 83 7 12 28 2 29 -14z m1524 -13 c0 -2 -7 -7 -16 -10
-8 -3 -12 -2 -9 4 6 10 25 14 25 6z m376 -31 c15 -14 25 -27 23 -29 -2 -2 -17
9 -34 25 -16 16 -27 29 -23 29 4 0 19 -11 34 -25z m-1189 -52 c-3 -10 -5 -2
-5 17 0 19 2 27 5 18 2 -10 2 -26 0 -35z m-2213 18 c3 -4 32 -11 65 -15 36 -4
69 -15 83 -26 13 -11 18 -19 11 -20 -6 0 -13 6 -16 13 -3 9 -7 9 -20 -1 -9 -8
-22 -12 -29 -9 -8 4 -7 6 5 6 9 1 17 5 17 10 0 12 -93 24 -121 16 -26 -8 -189
4 -189 14 0 4 15 5 34 3 18 -2 37 1 40 7 8 13 112 15 120 2z m1451 -11 c3 -5
1 -10 -4 -10 -6 0 -11 5 -11 10 0 6 2 10 4 10 3 0 8 -4 11 -10z m22 -12 c-3
-8 -6 -5 -6 6 -1 11 2 17 5 13 3 -3 4 -12 1 -19z m1463 18 c0 -2 -8 -10 -17
-17 -16 -13 -17 -12 -4 4 13 16 21 21 21 13z m-3140 -15 c0 -4 -18 -11 -41
-14 -48 -6 -59 -14 -39 -27 8 -6 11 -10 5 -10 -5 0 -17 5 -25 10 -21 13 -4 26
50 38 25 5 46 10 48 11 1 1 2 -3 2 -8z m3650 -6 c7 -9 8 -15 2 -15 -5 0 -12 7
-16 15 -3 8 -4 15 -2 15 2 0 9 -7 16 -15z m-1983 -36 c1 -22 1 -22 -4 -1 -2
12 -9 22 -14 22 -12 0 -12 -57 1 -65 6 -3 9 -14 9 -23 -1 -15 -2 -15 -6 1 -2
9 -9 17 -14 17 -11 0 -12 -53 -1 -65 5 -6 6 -21 1 -35 -6 -23 -7 -22 -8 9 -1
19 -4 31 -8 27 -4 -4 -6 -24 -5 -44 2 -28 0 -33 -7 -22 -13 18 -14 57 -2 64 4
3 12 34 15 68 4 34 10 66 13 71 9 15 28 1 30 -24z m2041 -35 c22 -93 25 -135
13 -147 -6 -6 -11 -27 -12 -47 -1 -50 -12 -83 -29 -88 -13 -3 -13 -2 -1 6 8 6
11 17 8 25 -3 9 -1 17 5 19 17 6 17 240 1 245 -7 3 -9 11 -6 20 3 8 0 19 -8
25 -12 8 -11 9 1 5 9 -2 20 -27 28 -63z m-608 52 c0 -2 -8 -10 -17 -17 -16
-13 -17 -12 -4 4 13 16 21 21 21 13z m-3220 -16 c0 -5 -7 -10 -15 -10 -18 0
-20 -20 -2 -20 7 0 5 -5 -5 -10 -18 -11 -48 -4 -48 11 0 7 39 29 68 38 1 1 2
-3 2 -9z m97 4 c-3 -3 -12 -4 -19 -1 -8 3 -5 6 6 6 11 1 17 -2 13 -5z m423 -4
c0 -5 6 -10 14 -10 7 0 43 -27 79 -61 55 -50 75 -78 114 -158 27 -54 56 -117
66 -142 23 -55 37 -85 75 -174 35 -81 44 -115 31 -115 -5 0 -9 9 -9 20 0 25
-17 26 -23 3 -4 -16 -5 -16 -6 -1 0 9 4 20 9 23 6 3 10 13 10 21 0 8 -4 14
-10 14 -5 0 -10 -8 -10 -17 0 -13 -4 -12 -13 7 -14 26 -12 44 2 21 5 -7 11 -9
14 -4 3 4 -1 17 -9 28 -13 17 -16 18 -24 5 -5 -8 -10 -10 -10 -4 0 5 5 15 12
22 6 6 8 15 4 19 -4 4 -12 1 -17 -7 -9 -12 -10 -12 -5 3 3 9 9 24 12 32 3 8 1
15 -5 15 -6 0 -11 7 -11 15 0 8 -4 15 -9 15 -5 0 -7 9 -4 20 3 12 0 20 -6 20
-7 0 -9 5 -6 10 3 6 1 10 -4 10 -6 0 -11 7 -11 15 0 8 -4 15 -9 15 -5 0 -7 9
-4 20 3 11 0 20 -6 20 -6 0 -11 -8 -12 -17 0 -15 -2 -15 -9 2 -11 26 -12 44
-1 26 5 -7 11 -9 14 -4 3 4 -1 17 -9 28 -13 17 -16 18 -24 5 -5 -8 -10 -10
-10 -4 0 5 6 16 12 22 10 10 10 15 -2 22 -8 5 -12 10 -7 10 10 0 -23 50 -34
50 -5 0 -6 -8 -3 -17 5 -15 4 -15 -4 -3 -6 8 -7 20 -3 28 9 15 -59 93 -91 105
-10 3 -18 11 -18 18 0 6 -6 9 -13 6 -7 -3 -19 4 -25 14 -8 12 -8 19 -2 19 5 0
10 -4 10 -10z m3267 -12 c-3 -8 -6 -5 -6 6 -1 11 2 17 5 13 3 -3 4 -12 1 -19z
m-636 -22 c-16 -17 -21 -31 -17 -48 3 -12 3 -17 0 -10 -3 6 -10 12 -15 12 -6
0 -7 -4 -4 -10 3 -5 2 -10 -4 -10 -5 0 -13 -15 -16 -32 -4 -18 -12 -36 -17
-39 -7 -4 -6 -14 2 -28 6 -12 9 -30 7 -39 -3 -12 -5 -11 -6 6 0 12 -6 22 -12
22 -7 0 -9 -10 -7 -25 3 -14 1 -25 -3 -25 -11 0 -10 -154 0 -190 7 -24 7 -24
19 -5 6 11 11 16 12 10 0 -5 -5 -17 -10 -25 -7 -12 -12 -12 -22 -2 -20 20 -18
247 3 292 9 19 22 51 29 70 16 43 57 100 72 100 6 0 1 -11 -11 -24z m-3235
-20 c-1 -18 -4 -22 -13 -14 -9 7 -21 1 -42 -20 -16 -17 -31 -29 -33 -26 -3 2
-17 -10 -33 -26 -16 -17 -25 -30 -21 -30 4 0 -7 -13 -25 -29 -28 -26 -30 -32
-19 -46 11 -13 10 -15 -1 -10 -14 5 -59 -50 -59 -72 0 -6 -6 -13 -12 -16 -10
-3 -10 -8 1 -21 8 -9 11 -19 7 -23 -3 -3 -6 -1 -6 5 0 7 -5 12 -11 12 -6 0 -9
-8 -7 -17 2 -10 -4 -27 -14 -37 -9 -10 -15 -23 -11 -29 3 -5 1 -12 -6 -16 -6
-4 -14 -42 -17 -84 -4 -42 -10 -77 -13 -77 -3 0 -6 -52 -6 -115 0 -63 3 -115
6 -115 3 0 9 -59 12 -132 4 -89 11 -134 19 -141 10 -6 9 -8 -2 -4 -17 4 -27
71 -29 189 -1 42 -5 80 -11 83 -6 4 -10 55 -10 120 0 65 4 116 10 120 6 3 10
25 10 48 1 52 16 121 37 167 47 103 59 126 71 133 6 4 12 14 12 22 0 8 14 30
30 48 17 19 30 39 30 45 0 6 12 20 28 32 15 11 49 39 77 60 27 22 50 40 51 40
1 0 1 -11 0 -24z m3881 -8 c-3 -7 -5 -2 -5 12 0 14 2 19 5 13 2 -7 2 -19 0
-25z m-634 7 c-3 -9 -8 -14 -10 -11 -3 3 -2 9 2 15 9 16 15 13 8 -4z m-603
-110 c0 -46 -3 -86 -7 -88 -5 -3 -8 37 -8 88 -1 52 3 91 7 89 4 -3 8 -43 8
-89z m-1930 40 c13 -14 21 -25 18 -25 -2 0 -15 11 -28 25 -13 14 -21 25 -18
25 2 0 15 -11 28 -25z m3190 -15 c0 -16 -4 -32 -10 -35 -6 -4 -10 10 -10 35 0
25 4 39 10 35 6 -3 10 -19 10 -35z m-699 3 c-12 -20 -14 -14 -5 12 4 9 9 14
11 11 3 -2 0 -13 -6 -23z m-3301 -18 c-13 -14 -25 -23 -28 -21 -5 6 31 44 42
45 5 1 -1 -10 -14 -24z m3977 -92 c-3 -10 -5 -4 -5 12 0 17 2 24 5 18 2 -7 2
-21 0 -30z m-2064 20 c-16 -6 -19 -423 -3 -423 6 0 11 77 12 208 l3 207 3
-195 c3 -215 0 -249 -23 -230 -12 10 -15 50 -15 220 0 113 3 210 7 213 3 4 11
7 17 6 6 0 5 -3 -1 -6z m1344 -155 c-2 -24 -4 -7 -4 37 0 44 2 63 4 43 2 -21
2 -57 0 -80z m710 90 c-3 -8 -6 -5 -6 6 -1 11 2 17 5 13 3 -3 4 -12 1 -19z m6
-60 c-7 -28 -22 -48 -36 -48 -5 0 -3 8 6 18 10 10 17 26 17 35 0 9 4 17 9 17
5 0 7 -10 4 -22z m-41 -20 c-8 -8 -9 -4 -5 13 4 13 8 18 11 10 2 -7 -1 -18 -6
-23z m-31 -46 c-11 -16 -28 -35 -38 -43 -9 -8 -2 5 17 29 38 48 52 57 21 14z
m-2944 -4 c-3 -8 -6 -5 -6 6 -1 11 2 17 5 13 3 -3 4 -12 1 -19z m2977 -3 c-7
-16 -136 -145 -160 -158 -8 -4 -14 -4 -14 1 0 5 9 12 20 15 11 3 20 11 20 17
0 7 -7 10 -16 6 -9 -3 -12 -2 -9 5 4 5 14 7 23 5 18 -6 122 91 122 113 0 6 4
11 10 11 5 0 7 -7 4 -15z m-4127 -87 c-3 -7 -5 -2 -5 12 0 14 2 19 5 13 2 -7
2 -19 0 -25z m3463 7 c0 -9 6 -18 14 -21 9 -3 12 -12 9 -21 -4 -10 -2 -14 7
-11 7 2 25 -8 40 -23 15 -15 43 -31 63 -34 21 -4 37 -11 37 -16 0 -5 43 -9 95
-9 57 0 95 4 95 10 0 6 9 10 20 10 11 0 20 -5 20 -11 0 -6 -7 -9 -15 -6 -8 4
-17 2 -20 -3 -4 -6 -47 -10 -96 -10 -93 0 -183 26 -202 58 -5 7 -20 17 -33 22
-13 5 -24 16 -24 25 0 8 -4 15 -9 15 -5 0 -11 9 -14 20 -3 11 -1 20 4 20 5 0
9 -7 9 -15z m-3473 -72 c-3 -10 -5 -2 -5 17 0 19 2 27 5 18 2 -10 2 -26 0 -35z
m3918 -13 c5 -8 12 -7 23 2 12 11 14 11 11 0 -6 -17 -69 -45 -69 -32 0 6 7 10
15 10 18 0 20 16 3 23 -10 4 -10 6 -1 6 6 1 15 -4 18 -9z m-40 -10 c-3 -5 -11
-10 -16 -10 -6 0 -7 5 -4 10 3 6 11 10 16 10 6 0 7 -4 4 -10z m-945 -35 c0
-13 -4 -26 -9 -29 -4 -3 -11 -41 -15 -85 -5 -55 -12 -81 -22 -85 -15 -6 -30
33 -21 56 3 7 6 1 6 -14 1 -16 6 -28 12 -28 7 0 10 12 7 30 -3 17 0 30 5 30 5
0 7 23 5 50 -2 31 1 50 8 50 6 0 9 13 6 31 -3 22 -1 30 7 25 6 -4 11 -18 11
-31z m-33 -7 c-3 -7 -5 -2 -5 12 0 14 2 19 5 13 2 -7 2 -19 0 -25z m886 25
c-23 -2 -64 -2 -90 0 -26 2 -7 3 42 3 50 0 71 -1 48 -3z m-3806 -185 c-2 -29
-3 -6 -3 52 0 58 1 81 3 53 2 -29 2 -77 0 -105z m1339 89 c7 -21 9 -37 3 -37
-5 0 -9 9 -9 20 0 11 -5 20 -11 20 -5 0 -7 5 -4 10 3 6 1 10 -4 10 -6 0 -11
-5 -11 -12 0 -6 -2 -9 -5 -6 -9 9 7 39 18 35 6 -2 16 -20 23 -40z m1561 -24
c-3 -10 -5 -4 -5 12 0 17 2 24 5 18 2 -7 2 -21 0 -30z m-759 -23 c-3 -27 -1
-50 3 -50 5 0 10 21 10 48 l1 47 8 -40 c4 -22 4 -48 -1 -57 -12 -23 -11 -128
1 -128 6 0 11 19 12 43 l1 42 4 -39 c3 -21 0 -43 -6 -49 -13 -13 -15 -107 -2
-107 6 0 12 17 14 38 l4 37 -1 -40 c-1 -29 -5 -40 -16 -40 -12 0 -17 22 -23
110 -5 61 -12 118 -18 127 -10 20 -12 69 -3 92 12 30 17 16 12 -34z m-772 -22
c3 -13 15 -43 27 -68 27 -62 38 -100 26 -100 -5 0 -9 9 -9 20 0 25 -20 27 -21
3 0 -15 -2 -15 -9 2 -11 26 -12 44 -1 26 7 -10 10 -10 16 -1 4 7 2 16 -5 20
-7 4 -10 12 -7 16 3 5 -1 18 -9 29 -13 17 -16 18 -24 5 -6 -9 -10 -10 -10 -3
0 6 5 15 10 18 13 8 13 35 1 35 -5 0 -11 -8 -13 -17 -3 -15 -5 -14 -10 5 -3
12 -2 20 3 16 5 -3 9 0 9 5 0 20 19 11 26 -11z m-1 -78 c3 -5 1 -10 -4 -10 -6
0 -11 5 -11 10 0 6 2 10 4 10 3 0 8 -4 11 -10z m1512 -12 c-3 -8 -6 -5 -6 6
-1 11 2 17 5 13 3 -3 4 -12 1 -19z m33 6 c0 -8 -4 -12 -10 -9 -5 3 -10 10 -10
16 0 5 5 9 10 9 6 0 10 -7 10 -16z m-24 -94 c-5 -38 -13 -70 -17 -70 -4 0 -5
-9 -2 -21 3 -11 1 -30 -5 -42 -6 -12 -15 -42 -19 -67 -9 -50 -37 -64 -39 -20
-1 22 0 22 3 3 2 -13 9 -23 14 -23 13 0 11 44 -2 57 -6 6 -9 19 -6 29 4 16 5
15 6 -3 1 -31 21 -29 21 2 0 14 4 25 10 25 5 0 8 12 5 28 -7 38 -13 92 -8 65
7 -35 26 -28 21 7 -3 17 -1 30 4 30 4 0 8 16 8 35 0 19 4 35 8 35 4 0 3 -31
-2 -70z m-29 18 c-3 -8 -6 -5 -6 6 -1 11 2 17 5 13 3 -3 4 -12 1 -19z m-2840
-65 c-2 -16 -4 -3 -4 27 0 30 2 43 4 28 2 -16 2 -40 0 -55z m3938 67 c27 -10
30 -31 4 -38 -12 -3 -12 -2 1 7 21 15 2 27 -20 13 -24 -14 -106 -16 -115 -2
-8 13 -52 13 -60 1 -3 -5 -17 -8 -30 -5 -14 2 -25 0 -25 -5 0 -5 -18 -12 -40
-16 -40 -7 -55 -24 -22 -26 11 0 12 -2 4 -6 -7 -3 -19 1 -27 7 -9 7 -15 8 -15
2 0 -5 -16 -13 -35 -16 -33 -7 -50 -26 -22 -26 6 0 4 -5 -6 -11 -10 -6 -21 -8
-24 -5 -4 3 -1 6 6 6 7 0 10 4 7 9 -6 10 -86 -27 -86 -39 0 -5 -13 -11 -30
-15 -16 -4 -35 -14 -41 -23 -7 -13 -9 -13 -6 -2 2 8 16 22 33 30 16 9 47 27
69 41 22 14 58 32 80 40 22 7 49 19 60 26 11 7 26 13 33 13 8 0 28 7 45 15 66
30 212 44 262 25z m2318 -24 c59 -28 77 -43 31 -26 -14 6 -35 8 -47 6 -12 -1
-16 -1 -9 1 6 3 12 9 12 15 0 6 -7 7 -17 3 -10 -4 -27 -9 -38 -10 -14 -1 -14
-1 -2 2 9 2 17 9 17 14 0 5 -40 9 -90 9 -49 0 -90 -4 -90 -9 0 -5 10 -12 23
-14 18 -3 17 -4 -3 -2 -14 1 -33 6 -42 10 -11 4 -18 3 -18 -3 0 -6 6 -12 13
-15 6 -2 1 -2 -12 0 -32 5 -79 -15 -86 -37 -3 -10 -13 -17 -22 -16 -9 0 -18
-5 -21 -13 -3 -10 0 -12 12 -8 11 4 15 3 11 -4 -4 -6 -13 -8 -21 -5 -9 3 -31
-11 -55 -35 -22 -22 -43 -39 -45 -36 -8 7 149 149 176 160 14 5 34 13 45 18
11 4 27 10 35 13 8 3 60 4 115 3 85 -2 105 -6 132 -25z m-1140 -39 c-3 -10
-5 -4 -5 12 0 17 2 24 5 18 2 -7 2 -21 0 -30z m-701 6 c1 -9 -1 -10 -3 -1 -3
6 -9 12 -14 12 -12 0 -12 -27 1 -35 6 -3 10 -12 9 -18 0 -9 -2 -9 -6 1 -8 19
-23 14 -23 -8 0 -11 -4 -20 -9 -20 -9 0 4 63 16 83 7 12 28 2 29 -14z m1524
-13 c0 -2 -7 -7 -16 -10 -8 -3 -12 -2 -9 4 6 10 25 14 25 6z m376 -31 c15
-14 25 -27 23 -29 -2 -2 -17 9 -34 25 -16 16 -27 29 -23 29 4 0 19 -11 34
-25z m-1189 -52 c-3 -10 -5 -2 -5 17 0 19 2 27 5 18 2 -10 2 -26 0 -35z m-2213
18 c3 -4 32 -11 65 -15 36 -4 69 -15 83 -26 13 -11 18 -19 11 -20 -6 0 -13 6
-16 13 -3 9 -7 9 -20 -1 -9 -8 -22 -12 -29 -9 -8 4 -7 6 5 6 9 1 17 5 17 10
0 12 -93 24 -121 16 -26 -8 -189 4 -189 14 0 4 15 5 34 3 18 -2 37 1 40 7 8
13 112 15 120 2z m1451 -11 c3 -5 1 -10 -4 -10 -6 0 -11 5 -11 10 0 6 2 10 4
10 3 0 8 -4 11 -10z m22 -12 c-3 -8 -6 -5 -6 6 -1 11 2 17 5 13 3 -3 4 -12 1
-19z m1463 18 c0 -2 -8 -10 -17 -17 -16 -13 -17 -12 -4 4 13 16 21 21 21 13z
m-3140 -15 c0 -4 -18 -11 -41 -14 -48 -6 -59 -14 -39 -27 8 -6 11 -10 5 -10
-5 0 -17 5 -25 10 -21 13 -4 26 50 38 25 5 46 10 48 11 1 1 2 -3 2 -8z m3650
-6 c7 -9 8 -15 2 -15 -5 0 -12 7 -16 15 -3 8 -4 15 -2 15 2 0 9 -7 16 -15z
m-1983 -36 c1 -22 1 -22 -4 -1 -2 12 -9 22 -14 22 -12 0 -12 -57 1 -65 6 -3
9 -14 9 -23 -1 -15 -2 -15 -6 1 -2 9 -9 17 -14 17 -11 0 -12 -53 -1 -65 5 -6
6 -21 1 -35 -6 -23 -7 -22 -8 9 -1 19 -4 31 -8 27 -4 -4 -6 -24 -5 -44 2 -28
0 -33 -7 -22 -13 18 -14 57 -2 64 4 3 12 34 15 68 4 34 10 66 13 71 9 15 28
1 30 -24z m2041 -35 c22 -93 25 -135 13 -147 -6 -6 -11 -27 -12 -47 -1 -50
-12 -83 -29 -88 -13 -3 -13 -2 -1 6 8 6 11 17 8 25 -3 9 -1 17 5 19 17 6 17
240 1 245 -7 3 -9 11 -6 20 3 8 0 19 -8 25 -12 8 -11 9 1 5 9 -2 20 -27 28
-63z m-608 52 c0 -2 -8 -10 -17 -17 -16 -13 -17 -12 -4 4 13 16 21 21 21 13z
m-3220 -16 c0 -5 -7 -10 -15 -10 -18 0 -20 -20 -2 -20 7 0 5 -5 -5 -10 -18
-11 -48 -4 -48 11 0 7 39 29 68 38 1 1 2 -3 2 -9z m97 4 c-3 -3 -12 -4 -19
-1 -8 3 -5 6 6 6 11 1 17 -2 13 -5z m423 -4 c0 -5 6 -10 14 -10 7 0 43 -27 79
-61 55 -50 75 -78 114 -158 27 -54 56 -117 66 -142 23 -55 37 -85 75 -174 35
-81 44 -115 31 -115 -5 0 -9 9 -9 20 0 25 -17 26 -23 3 -4 -16 -5 -16 -6 -1
0 9 4 20 9 23 6 3 10 13 10 21 0 8 -4 14 -10 14 -5 0 -10 -8 -10 -17 0 -13
-4 -12 -13 7 -14 26 -12 44 2 21 5 -7 11 -9 14 -4 3 4 -1 17 -9 28 -13 17
-16 18 -24 5 -5 -8 -10 -10 -10 -4 0 5 5 15 12 22 6 6 8 15 4 19 -4 4 -12 1
-17 -7 -9 -12 -10 -12 -5 3 3 9 9 24 12 32 3 8 1 15 -5 15 -6 0 -11 7 -11
15 0 8 -4 15 -9 15 -5 0 -7 9 -4 20 3 12 0 20 -6 20 -7 0 -9 5 -6 10 3 6 1 10
-4 10 -6 0 -11 7 -11 15 0 8 -4 15 -9 15 -5 0 -7 9 -4 20 3 11 0 20 -6 20
-6 0 -11 -8 -12 -17 0 -15 -2 -15 -9 2 -11 26 -12 44 -1 26 5 -7 11 -9 14 -4
3 4 -1 17 -9 28 -13 17 -16 18 -24 5 -5 -8 -10 -10 -10 -4 0 5 6 16 12 22
10 10 10 15 -2 22 -8 5 -12 10 -7 10 10 0 -23 50 -34 50 -5 0 -6 -8 -3 -17
5 -15 4 -15 -4 -3 -6 8 -7 20 -3 28 9 15 -59 93 -91 105 -10 3 -18 11 -18
18 0 6 -6 9 -13 6 -7 -3 -19 4 -25 14 -8 12 -8 19 -2 19 5 0 10 -4 10 -10z
m3267 -12 c-3 -8 -6 -5 -6 6 -1 11 2 17 5 13 3 -3 4 -12 1 -19z m-636 -22
c-16 -17 -21 -31 -17 -48 3 -12 3 -17 0 -10 -3 6 -10 12 -15 12 -6 0 -7 -4
-4 -10 3 -5 2 -10 -4 -10 -5 0 -13 -15 -16 -32 -4 -18 -12 -36 -17 -39 -7 -4
-6 -14 2 -28 6 -12 9 -30 7 -39 -3 -12 -5 -11 -6 6 0 12 -6 22 -12 22 -7 0
-9 -10 -7 -25 3 -14 1 -25 -3 -25 -11 0 -10 -154 0 -190 7 -24 7 -24 19 -5 6
11 11 16 12 10 0 -5 -5 -17 -10 -25 -7 -12 -12 -12 -22 -2 -20 20 -18 247 3
292 9 19 22 51 29 70 16 43 57 100 72 100 6 0 1 -11 -11 -24z m-3235 -20 c-1
-18 -4 -22 -13 -14 -9 7 -21 1 -42 -20 -16 -17 -31 -29 -33 -26 -3 2 -17 -10
-33 -26 -16 -17 -25 -30 -21 -30 4 0 -7 -13 -25 -29 -28 -26 -30 -32 -19 -46
11 -13 10 -15 -1 -10 -14 5 -59 -50 -59 -72 0 -6 -6 -13 -12 -16 -10 -3 -10
-8 1 -21 8 -9 11 -19 7 -23 -3 -3 -6 -1 -6 5 0 7 -5 12 -11 12 -6 0 -9 -8
-7 -17 2 -10 -4 -27 -14 -37 -9 -10 -15 -23 -11 -29 3 -5 1 -12 -6 -16 -6
-4 -14 -42 -17 -84 -4 -42 -10 -77 -13 -77 -3 0 -6 -52 -6 -115 0 -63 3 -115
6 -115 3 0 9 -59 12 -132 4 -89 11 -134 19 -141 10 -6 9 -8 -2 -4 -17 4 -27
71 -29 189 -1 42 -5 80 -11 83 -6 4 -10 55 -10 120 0 65 4 116 10 120 6 3 10
25 10 48 1 52 16 121 37 167 47 103 59 126 71 133 6 4 12 14 12 22 0 8 14 30
30 48 17 19 30 39 30 45 0 6 12 20 28 32 15 11 49 39 77 60 27 22 50 40 51
40 1 0 1 -11 0 -24z m3881 -8 c-3 -7 -5 -2 -5 12 0 14 2 19 5 13 2 -7 2 -19 0
-25z m-634 7 c-3 -9 -8 -14 -10 -11 -3 3 -2 9 2 15 9 16 15 13 8 -4z m-603
-110 c0 -46 -3 -86 -7 -88 -5 -3 -8 37 -8 88 -1 52 3 91 7 89 4 -3 8 -43 8
-89z m-1930 40 c13 -14 21 -25 18 -25 -2 0 -15 11 -28 25 -13 14 -21 25 -18
25 2 0 15 -11 28 -25z m3190 -15 c0 -16 -4 -32 -10 -35 -6 -4 -10 10 -10 35 0
25 4 39 10 35 6 -3 10 -19 10 -35z m-699 3 c-12 -20 -14 -14 -5 12 4 9 9 14
11 11 3 -2 0 -13 -6 -23z m-3301 -18 c-13 -14 -25 -23 -28 -21 -5 6 31 44 42
45 5 1 -1 -10 -14 -24z m3977 -92 c-3 -10 -5 -4 -5 12 0 17 2 24 5 18 2 -7 2
-21 0 -30z m-2064 20 c-16 -6 -19 -423 -3 -423 6 0 11 77 12 208 l3 207 3
-195 c3 -215 0 -249 -23 -230 -12 10 -15 50 -15 220 0 113 3 210 7 213 3 4 11
7 17 6 6 0 5 -3 -1 -6z m1344 -155 c-2 -24 -4 -7 -4 37 0 44 2 63 4 43 2 -21
2 -57 0 -80z m710 90 c-3 -8 -6 -5 -6 6 -1 11 2 17 5 13 3 -3 4 -12 1 -19z m6
-60 c-7 -28 -22 -48 -36 -48 -5 0 -3 8 6 18 10 10 17 26 17 35 0 9 4 17 9 17
5 0 7 -10 4 -22z m-41 -20 c-8 -8 -9 -4 -5 13 4 13 8 18 11 10 2 -7 -1 -18 -6
-23z m-31 -46 c-11 -16 -28 -35 -38 -43 -9 -8 -2 5 17 29 38 48 52 57 21 14z
m-2944 -4 c-3 -8 -6 -5 -6 6 -1 11 2 17 5 13 3 -3 4 -12 1 -19z m2977 -3 c-7
-16 -136 -145 -160 -158 -8 -4 -14 -4 -14 1 0 5 9 12 20 15 11 3 20 11 20 17
0 7 -7 10 -16 6 -9 -3 -12 -2 -9 5 4 5 14 7 23 5 18 -6 122 91 122 113 0 6 4
11 10 11 5 0 7 -7 4 -15z m-4127 -87 c-3 -7 -5 -2 -5 12 0 14 2 19 5 13 2 -7
2 -19 0 -25z m3463 7 c0 -9 6 -18 14 -21 9 -3 12 -12 9 -21 -4 -10 -2 -14 7
-11 7 2 25 -8 40 -23 15 -15 43 -31 63 -34 21 -4 37 -11 37 -16 0 -5 43 -9 95
-9 57 0 95 4 95 10 0 6 9 10 20 10 11 0 20 -5 20 -11 0 -6 -7 -9 -15 -6 -8 4
-17 2 -20 -3 -4 -6 -47 -10 -96 -10 -93 0 -183 26 -202 58 -5 7 -20 17 -33 22
-13 5 -24 16 -24 25 0 8 -4 15 -9 15 -5 0 -11 9 -14 20 -3 11 -1 20 4 20 5 0
9 -7 9 -15z m-3473 -72 c-3 -10 -5 -2 -5 17 0 19 2 27 5 18 2 -10 2 -26 0 -35z
m3918 -13 c5 -8 12 -7 23 2 12 11 14 11 11 0 -6 -17 -69 -45 -69 -32 0 6 7 10
15 10 18 0 20 16 3 23 -10 4 -10 6 -1 6 6 1 15 -4 18 -9z m-40 -10 c-3 -5 -11
-10 -16 -10 -6 0 -7 5 -4 10 3 6 11 10 16 10 6 0 7 -4 4 -10z m-945 -35 c0
-13 -4 -26 -9 -29 -4 -3 -11 -41 -15 -85 -5 -55 -12 -81 -22 -85 -15 -6 -30
33 -21 56 3 7 6 1 6 -14 1 -16 6 -28 12 -28 7 0 10 12 7 30 -3 17 0 30 5 30 5
0 7 23 5 50 -2 31 1 50 8 50 6 0 9 13 6 31 -3 22 -1 30 7 25 6 -4 11 -18 11
-31z m-33 -7 c-3 -7 -5 -2 -5 12 0 14 2 19 5 13 2 -7 2 -19 0 -25z m886 25
c-23 -2 -64 -2 -90 0 -26 2 -7 3 42 3 50 0 71 -1 48 -3z m-3806 -185 c-2 -29
-3 -6 -3 52 0 58 1 81 3 53 2 -29 2 -77 0 -105z m1339 89 c7 -21 9 -37 3 -37
-5 0 -9 9 -9 20 0 11 -5 20 -11 20 -5 0 -7 5 -4 10 3 6 1 10 -4 10 -6 0 -11
-5 -11 -12 0 -6 -2 -9 -5 -6 -9 9 7 39 18 35 6 -2 16 -20 23 -40z m1561 -24
c-3 -10 -5 -4 -5 12 0 17 2 24 5 18 2 -7 2 -21 0 -30z m-759 -23 c-3 -27 -1
-50 3 -50 5 0 10 21 10 48 l1 47 8 -40 c4 -22 4 -48 -1 -57 -12 -23 -11 -128
1 -128 6 0 11 19 12 43 l1 42 4 -39 c3 -21 0 -43 -6 -49 -13 -13 -15 -107 -2
-107 6 0 12 17 14 38 l4 37 -1 -40 c-1 -29 -5 -40 -16 -40 -12 0 -17 22 -23
110 -5 61 -12 118 -18 127 -10 20 -12 69 -3 92 12 30 17 16 12 -34z m-772 -22
c3 -13 15 -43 27 -68 27 -62 38 -100 26 -100 -5 0 -9 9 -9 20 0 25 -20 27 -21
3 0 -15 -2 -15 -9 2 -11 26 -12 44 -1 26 7 -10 10 -10 16 -1 4 7 2 16 -5 20
-7 4 -10 12 -7 16 3 5 -1 18 -9 29 -13 17 -16 18 -24 5 -6 -9 -10 -10 -10 -3
0 6 5 15 10 18 13 8 13 35 1 35 -5 0 -11 -8 -13 -17 -3 -15 -5 -14 -10 5 -3
12 -2 20 3 16 5 -3 9 0 9 5 0 20 19 11 26 -11z m-1 -78 c3 -5 1 -10 -4 -10 -6
0 -11 5 -11 10 0 6 2 10 4 10 3 0 8 -4 11 -10z m1512 -12 c-3 -8 -6 -5 -6 6
-1 11 2 17 5 13 3 -3 4 -12 1 -19z m33 6 c0 -8 -4 -12 -10 -9 -5 3 -10 10 -10
16 0 5 5 9 10 9 6 0 10 -7 10 -16z m-24 -94 c-5 -38 -13 -70 -17 -70 -4 0 -5
-9 -2 -21 3 -11 1 -30 -5 -42 -6 -12 -15 -42 -19 -67 -9 -50 -37 -64 -39 -20
-1 22 0 22 3 3 2 -13 9 -23 14 -23 13 0 11 44 -2 57 -6 6 -9 19 -6 29 4 16 5
15 6 -3 1 -31 21 -29 21 2 0 14 4 25 10 25 5 0 8 12 5 28 -7 38 -13 92 -8 65
7 -35 26 -28 21 7 -3 17 -1 30 4 30 4 0 8 16 8 35 0 19 4 35 8 35 4 0 3 -31
-2 -70z m-29 18 c-3 -8 -6 -5 -6 6 -1 11 2 17 5 13 3 -3 4 -12 1 -19z m-2840
-65 c-2 -16 -4 -3 -4 27 0 30 2 43 4 28 2 -16 2 -40 0 -55z m3938 67 c27 -10
30 -31 4 -38 -12 -3 -12 -2 1 7 21 15 2 27 -20 13 -24 -14 -106 -16 -115 -2
-8 13 -52 13 -60 1 -3 -5 -17 -8 -30 -5 -14 2 -25 0 -25 -5 0 -5 -18 -12 -40
-16 -40 -7 -55 -24 -22 -26 11 0 12 -2 4 -6 -7 -3 -19 1 -27 7 -9 7 -15 8 -15
2 0 -5 -16 -13 -35 -16 -33 -7 -50 -26 -22 -26 6 0 4 -5 -6 -11 -10 -6 -21 -8
-24 -5 -4 3 -1 6 6 6 7 0 10 4 7 9 -6 10 -86 -27 -86 -39 0 -5 -13 -11 -30
-15 -16 -4 -35 -14 -41 -23 -7 -13 -9 -13 -6 -2 2 8 16 22 33 30 16 9 47 27
69 41 22 14 58 32 80 40 22 7 49 19 60 26 11 7 26 13 33 13 8 0 28 7 45 15 66
30 212 44 262 25z m2318 -24 c59 -28 77 -43 31 -26 -14 6 -35 8 -47 6 -12 -1
-16 -1 -9 1 6 3 12 9 12 15 0 6 -7 7 -17 3 -10 -4 -27 -9 -38 -10 -14 -1 -14
-1 -2 2 31 8 18 20 -29 27 -75 10 -284 7 -284 -4 0 -5 12 -11 28 -11 25 -2 25
-2 3 -6 -13 -3 -28 0 -34 6 -14 14 -77 14 -77 1 0 -5 10 -10 23 -11 12 0 16
-3 9 -6 -7 -3 -26 0 -42 7 -16 7 -35 8 -42 4 -9 -6 -6 -10 12 -16 20 -6 19 -7
-7 -3 -58 8 -121 -14 -80 -28 7 -2 6 -3 -3 -3 -35 3 -10 29 45 48 92 31 146
37 325 34 157 -2 168 -4 223 -30z m-4825 -23 c20 -53 22 -64 12 -58 -6 3 -10
14 -10 23 0 9 -5 24 -10 32 -9 13 -11 13 -20 0 -11 -17 -13 -10 -4 14 9 24 20
19 32 -11z m4695 20 c-7 -2 -21 -2 -30 0 -10 3 -4 5 12 5 17 0 24 -2 18 -5z
m-2340 -10 c-7 -2 -19 -2 -25 0 -7 3 -2 5 12 5 14 0 19 -2 13 -5z m272 -51
c-6 -6 -55 40 -55 52 0 6 13 -3 30 -19 16 -16 28 -31 25 -33z m-32 -2 c14 -17
27 -25 29 -18 7 19 26 0 33 -33 5 -20 3 -35 -5 -42 -10 -9 -11 -9 -6 1 10 17
-1 62 -14 62 -6 0 -8 -12 -5 -27 6 -28 6 -28 -8 2 -8 17 -26 42 -40 58 -14 15
-22 27 -17 27 4 0 20 -13 33 -30z m1607 20 c0 -5 -9 -10 -20 -10 -11 0 -20 -4
-20 -10 0 -5 5 -10 12 -10 6 0 8 -3 5 -6 -4 -4 -13 -1 -22 6 -9 7 -19 10 -22
6 -4 -4 -1 -11 7 -16 9 -6 10 -10 3 -10 -6 0 -15 5 -18 10 -8 13 -35 13 -35 1
0 -5 6 -11 13 -14 6 -2 -1 -2 -18 0 -29 4 -29 3 -11 -12 11 -8 15 -15 10 -15
-6 0 -15 5 -22 12 -6 6 -15 8 -19 4 -4 -4 -1 -11 6 -15 10 -7 9 -10 -8 -16
-22 -7 -41 0 -41 16 0 12 130 71 198 88 1 1 2 -3 2 -9z m730 -11 c0 -5 5 -9
12 -9 17 0 108 -91 108 -107 0 -7 3 -13 8 -13 8 0 30 -42 42 -82 7 -21 5 -27
-10 -31 -16 -4 -17 -2 -7 14 6 10 8 22 4 26 -5 4 -12 1 -17 -7 -6 -8 -10 -10
-10 -5 0 6 5 16 12 23 6 6 8 15 4 19 -4 4 -11 1 -16 -7 -7 -11 -9 -7 -7 14 1
17 -4 31 -12 34 -10 3 -12 -1 -8 -14 6 -17 6 -17 -8 1 -8 11 -19 26 -25 33 -7
7 -7 12 -1 12 6 0 14 -7 19 -16 6 -10 12 -12 15 -6 8 11 -82 104 -93 97 -4 -3
-10 2 -14 10 -3 8 -12 15 -21 15 -8 0 -15 4 -15 9 0 5 9 7 20 4 11 -3 20 -9
20 -14z m-4953 -11 c-3 -8 -6 -5 -6 6 -1 11 2 17 5 13 3 -3 4 -12 1 -19z
m1410 -40 c-3 -7 -5 -2 -5 12 0 14 2 19 5 13 2 -7 2 -19 0 -25z m-2810 -30
c-2 -13 -4 -5 -4 17 -1 22 1 32 4 23 2 -10 2 -28 0 -40z m1473 -14 c15 -46 39
-104 62 -148 13 -25 29 -81 21 -72 -3 3 -13 0 -22 -6 -13 -10 -14 -10 -3 2 14
17 16 40 2 40 -5 0 -10 -8 -11 -17 0 -13 -3 -11 -10 6 -5 13 -7 32 -4 42 7 22
-4 69 -17 69 -6 0 -8 -12 -4 -27 5 -24 5 -25 -5 -10 -6 10 -12 41 -13 68 -3
54 -12 71 -26 49 -6 -9 -10 -10 -10 -3 0 6 5 15 10 18 6 3 10 13 10 21 0 8 -4
14 -10 14 -5 0 -10 -8 -10 -17 0 -13 -4 -12 -13 7 -14 26 -12 44 2 21 5 -7 11
-9 14 -4 3 4 -1 17 -9 28 -13 17 -16 18 -24 5 -5 -8 -10 -10 -10 -4 0 5 5 15
12 22 6 6 8 15 4 19 -4 4 -12 1 -17 -7 -9 -12 -10 -12 -5 3 3 9 9 24 12 32 3
8 1 15 -5 15 -6 0 -11 7 -11 15 0 8 -4 15 -9 15 -5 0 -7 9 -4 20 3 12 0 20
-6 20 -7 0 -9 5 -6 10 3 6 1 10 -4 10 -6 0 -11 7 -11 15 0 8 -4 15 -9 15 -5
0 -7 9 -4 20 3 11 0 20 -6 20 -6 0 -11 -8 -12 -17 0 -15 -2 -15 -9 2 -11 26
-12 44 -1 26 5 -7 11 -9 14 -4 3 4 -1 17 -9 28 -13 17 -16 18 -24 5 -5 -8 -10
-10 -10 -4 0 5 6 16 12 22 10 10 10 15 -2 22 -8 5 -12 10 -7 10 10 0 -23 50
-34 50 -5 0 -6 -8 -3 -17 5 -15 4 -15 -4 -3 -6 8 -7 20 -3 28 9 15 -59 93
-91 105 -10 3 -18 11 -18 18 0 6 -6 9 -13 6 -7 -3 -19 4 -25 14 -8 12 -8 19
-2 19 5 0 10 -4 10 -10z m3267 -12 c-3 -8 -6 -5 -6 6 -1 11 2 17 5 13 3 -3 4
-12 1 -19z m-636 -22 c-16 -17 -21 -31 -17 -48 3 -12 3 -17 0 -10 -3 6 -10 12
-15 12 -6 0 -7 -4 -4 -10 3 -5 2 -10 -4 -10 -5 0 -13 -15 -16 -32 -4 -18 -12
-36 -17 -39 -7 -4 -6 -14 2 -28 6 -12 9 -30 7 -39 -3 -12 -5 -11 -6 6 0 12
-6 22 -12 22 -7 0 -9 -10 -7 -25 3 -14 1 -25 -3 -25 -11 0 -10 -154 0 -190 7
-24 7 -24 19 -5 6 11 11 16 12 10 0 -5 -5 -17 -10 -25 -7 -12 -12 -12 -22 -2
-20 20 -18 247 3 292 9 19 22 51 29 70 16 43 57 100 72 100 6 0 1 -11 -11
-24z m-3235 -20 c-1 -18 -4 -22 -13 -14 -9 7 -21 1 -42 -20 -16 -17 -31 -29
-33 -26 -3 2 -17 -10 -33 -26 -16 -17 -25 -30 -21 -30 4 0 -7 -13 -25 -29
-28 -26 -30 -32 -19 -46 11 -13 10 -15 -1 -10 -14 5 -59 -50 -59 -72 0 -6 -6
-13 -12 -16 -10 -3 -10 -8 1 -21 8 -9 11 -19 7 -23 -3 -3 -6 -1 -6 5 0 7 -5
12 -11 12 -6 0 -9 -8 -7 -17 2 -10 -4 -27 -14 -37 -9 -10 -15 -23 -11 -29 3
-5 1 -12 -6 -16 -6 -4 -14 -42 -17 -84 -4 -42 -10 -77 -13 -77 -3 0 -6 -52
-6 -115 0 -63 3 -115 6 -115 3 0 9 -59 12 -132 4 -89 11 -134 19 -141 10 -6
9 -8 -2 -4 -17 4 -27 71 -29 189 -1 42 -5 80 -11 83 -6 4 -10 55 -10 120 0
65 4 116 10 120 6 3 10 25 10 48 1 52 16 121 37 167 47 103 59 126 71 133 6
4 12 14 12 22 0 8 14 30 30 48 17 19 30 39 30 45 0 6 12 20 28 32 15 11 49
39 77 60 27 22 50 40 51 40 1 0 1 -11 0 -24z m3881 -8 c-3 -7 -5 -2 -5 12 0
14 2 19 5 13 2 -7 2 -19 0 -25z m-634 7 c-3 -9 -8 -14 -10 -11 -3 3 -2 9 2 15
9 16 15 13 8 -4z m-603 -110 c0 -46 -3 -86 -7 -88 -5 -3 -8 37 -8 88 -1 52 3
91 7 89 4 -3 8 -43 8 -89z m-1930 40 c13 -14 21 -25 18 -25 -2 0 -15 11 -28
25 -13 14 -21 25 -18 25 2 0 15 -11 28 -25z m3190 -15 c0 -16 -4 -32 -10 -35
-6 -4 -10 10 -10 35 0 25 4 39 10 35 6 -3 10 -19 10 -35z m-699 3 c-12 -20
-14 -14 -5 12 4 9 9 14 11 11 3 -2 0 -13 -6 -23z m-3301 -18 c-13 -14 -25
-23 -28 -21 -5 6 31 44 42 45 5 1 -1 -10 -14 -24z m3977 -92 c-3 -10 -5 -4
-5 12 0 17 2 24 5 18 2 -7 2 -21 0 -30z m-2064 20 c-16 -6 -19 -423 -3 -423
6 0 11 77 12 208 l3 207 3 -195 c3 -215 0 -249 -23 -230 -12 10 -15 50 -15
220 0 113 3 210 7 213 3 4 11 7 17 6 6 0 5 -3 -1 -6z m1344 -155 c-2 -24 -4
-7 -4 37 0 44 2 63 4 43 2 -21 2 -57 0 -80z m710 90 c-3 -8 -6 -5 -6 6 -1 11
2 17 5 13 3 -3 4 -12 1 -19z m6 -60 c-7 -28 -22 -48 -36 -48 -5 0 -3 8 6 18
10 10 17 26 17 35 0 9 4 17 9 17 5 0 7 -10 4 -22z m-41 -20 c-8 -8 -9 -4 -5
13 4 13 8 18 11 10 2 -7 -1 -18 -6 -23z m-31 -46 c-11 -16 -28 -35 -38 -43
-9 -8 -2 5 17 29 38 48 52 57 21 14z m-2944 -4 c-3 -8 -6 -5 -6 6 -1 11 2 17
5 13 3 -3 4 -12 1 -19z m2977 -3 c-7 -16 -136 -145 -160 -158 -8 -4 -14 -4
-14 1 0 5 9 12 20 15 11 3 20 11 20 17 0 7 -7 10 -16 6 -9 -3 -12 -2 -9 5 4
5 14 7 23 5 18 -6 122 91 122 113 0 6 4 11 10 11 5 0 7 -7 4 -15z m-4127 -87
c-3 -7 -5 -2 -5 12 0 14 2 19 5 13 2 -7 2 -19 0 -25z m3463 7 c0 -9 6 -18 14
-21 9 -3 12 -12 9 -21 -4 -10 -2 -14 7 -11 7 2 25 -8 40 -23 15 -15 43 -31 63
-34 21 -4 37 -11 37 -16 0 -5 43 -9 95 -9 57 0 95 4 95 10 0 6 9 10 20 10 11
0 20 -5 20 -11 0 -6 -7 -9 -15 -6 -8 4 -17 2 -20 -3 -4 -6 -47 -10 -96 -10
-93 0 -183 26 -202 58 -5 7 -20 17 -33 22 -13 5 -24 16 -24 25 0 8 -4 15 -9
15 -5 0 -11 9 -14 20 -3 11 -1 20 4 20 5 0 9 -7 9 -15z m-3473 -72 c-3 -10
-5 -2 -5 17 0 19 2 27 5 18 2 -10 2 -26 0 -35z m3918 -13 c5 -8 12 -7 23 2 12
11 14 11 11 0 -6 -17 -69 -45 -69 -32 0 6 7 10 15 10 18 0 20 16 3 23 -10 4
-10 6 -1 6 6 1 15 -4 18 -9z m-40 -10 c-3 -5 -11 -10 -16 -10 -6 0 -7 5 -4 10
3 6 11 10 16 10 6 0 7 -4 4 -10z m-945 -35 c0 -13 -4 -26 -9 -29 -4 -3 -11
-41 -15 -85 -5 -55 -12 -81 -22 -85 -15 -6 -30 33 -21 56 3 7 6 1 6 -14 1
-16 6 -28 12 -28 7 0 10 12 7 30 -3 17 0 30 5 30 5 0 7 23 5 50 -2 31 1 50
8 50 6 0 9 13 6 31 -3 22 -1 30 7 25 6 -4 11 -18 11 -31z m-33 -7 c-3 -7 -5
-2 -5 12 0 14 2 19 5 13 2 -7 2 -19 0 -25z m886 25 c-23 -2 -64 -2 -90 0 -26
2 -7 3 42 3 50 0 71 -1 48 -3z m-3806 -185 c-2 -29 -3 -6 -3 52 0 58 1 81 3
53 2 -29 2 -77 0 -105z m1339 89 c7 -21 9 -37 3 -37 -5 0 -9 9 -9 20 0 11 -5
20 -11 20 -5 0 -7 5 -4 10 3 6 1 10 -4 10 -6 0 -11 -5 -11 -12 0 -6 -2 -9 -5
-6 -9 9 7 39 18 35 6 -2 16 -20 23 -40z m1561 -24 c-3 -10 -5 -4 -5 12 0 17
2 24 5 18 2 -7 2 -21 0 -30z m-759 -23 c-3 -27 -1 -50 3 -50 5 0 10 21 10 48
l1 47 8 -40 c4 -22 4 -48 -1 -57 -12 -23 -11 -128 1 -128 6 0 11 19 12 43 l1
42 4 -39 c3 -21 0 -43 -6 -49 -13 -13 -15 -107 -2 -107 6 0 12 17 14 38 l4 37
-1 -40 c-1 -29 -5 -40 -16 -40 -12 0 -17 22 -23 110 -5 61 -12 118 -18 127
-10 20 -12 69 -3 92 12 30 17 16 12 -34z m-772 -22 c3 -13 15 -43 27 -68 27
-62 38 -100 26 -100 -5 0 -9 9 -9 20 0 25 -20 27 -21 3 0 -15 -2 -15 -9 2 -11
26 -12 44 -1 26 7 -10 10 -10 16 -1 4 7 2 16 -5 20 -7 4 -10 12 -7 16 3 5 -1
18 -9 29 -13 17 -16 18 -24 5 -6 -9 -10 -10 -10 -3 0 6 5 15 10 18 13 8 13
35 1 35 -5 0 -11 -8 -13 -17 -3 -15 -5 -14 -10 5 -3 12 -2 20 3 16 5 -3 9 0
9 5 0 20 19 11 26 -11z m-1 -78 c3 -5 1 -10 -4 -10 -6 0 -11 5 -11 10 0 6 2
10 4 10 3 0 8 -4 11 -10z m1512 -12 c-3 -8 -6 -5 -6 6 -1 11 2 17 5 13 3 -3
4 -12 1 -19z m33 6 c0 -8 -4 -12 -10 -9 -5 3 -10 10 -10 16 0 5 5 9 10 9 6 0
10 -7 10 -16z m-24 -94 c-5 -38 -13 -70 -17 -70 -4 0 -5 -9 -2 -21 3 -11 1
-30 -5 -42 -6 -12 -15 -42 -19 -67 -9 -50 -37 -64 -39 -20 -1 22 0 22 3 3 2
-13 9 -23 14 -23 13 0 11 44 -2 57 -6 6 -9 19 -6 29 4 16 5 15 6 -3 1 -31 21
-29 21 2 0 14 4 25 10 25 5 0 8 12 5 28 -7 38 -13 92 -8 65 7 -35 26 -28 21
7 -3 17 -1 30 4 30 4 0 8 16 8 35 0 19 4 35 8 35 4 0 3 -31 -2 -70z m-29 18
c-3 -8 -6 -5 -6 6 -1 11 2 17 5 13 3 -3 4 -12 1 -19z m-2840 -65 c-2 -16 -4
-3 -4 27 0 30 2 43 4 28 2 -16 2 -40 0 -55z m3938 67 c27 -10 30 -31 4 -38
-12 -3 -12 -2 1 7 21 15 2 27 -20 13 -24 -14 -106 -16 -115 -2 -8 13 -52 13
-60 1 -3 -5 -17 -8 -30 -5 -14 2 -25 0 -25 -5 0 -5 -18 -12 -40 -16 -40 -7
-55 -24 -22 -26 11 0 12 -2 4 -6 -7 -3 -19 1 -27 7 -9 7 -15 8 -15 2 0 -5
-16 -13 -35 -16 -33 -7 -50 -26 -22 -26 6 0 4 -5 -6 -11 -10 -6 -21 -8 -24
-5 -4 3 -1 6 6 6 7 0 10 4 7 9 -6 10 -86 -27 -86 -39 0 -5 -13 -11 -30 -15
-16 -4 -35 -14 -41 -23 -7 -13 -9 -13 -6 -2 2 8 16 22 33 30 16 9 47 27 69
41 22 14 58 32 80 40 22 7 49 19 60 26 11 7 26 13 33 13 8 0 28 7 45 15 66
30 212 44 262 25z m2318 -24 c59 -28 77 -43 31 -26 -14 6 -35 8 -47 6 -12 -1
-16 -1 -9 1 6 3 12 9 12 15 0 6 -7 7 -17 3 -10 -4 -27 -9 -38 -10 -14 -1 -14
-1 -2 2 31 8 18 20 -29 27 -75 10 -284 7 -284 -4 0 -5 12 -11 28 -11 25 -2 25
-2 3 -6 -13 -3 -28 0 -34 6 -14 14 -77 14 -77 1 0 -5 10 -10 23 -11 12 0 16
-3 9 -6 -7 -3 -26 0 -42 7 -16 7 -35 8 -42 4 -9 -6 -6 -10 12 -16 20 -6 19
-7 -7 -3 -58 8 -121 -14 -80 -28 7 -2 6 -3 -3 -3 -35 3 -10 29 45 48 92 31
146 37 325 34 157 -2 168 -4 223 -30z m-4825 -23 c20 -53 22 -64 12 -58 -6 3
-10 14 -10 23 0 9 -5 24 -10 32 -9 13 -11 13 -20 0 -11 -17 -13 -10 -4 14 9
24 20 19 32 -11z m4695 20 c-7 -2 -21 -2 -30 0 -10 3 -4 5 12 5 17 0 24 -2 18
-5z m-2340 -10 c-7 -2 -19 -2 -25 0 -7 3 -2 5 12 5 14 0 19 -2 13 -5z m272 -51
c-6 -6 -55 40 -55 52 0 6 13 -3 30 -19 16 -16 28 -31 25 -33z m-32 -2 c14 -17
27 -25 29 -18 7 19 26 0 33 -33 5 -20 3 -35 -5 -42 -10 -9 -11 -9 -6 1 10 17
-1 62 -14 62 -6 0 -8 -12 -5 -27 6 -28 6 -28 -8 2 -8 17 -26 42 -40 58 -14 15
-22 27 -17 27 4 0 20 -13 33 -30z m1607 20 c0 -5 -9 -10 -20 -10 -11 0 -20 -4
-20 -10 0 -5 5 -10 12 -10 6 0 8 -3 5 -6 -4 -4 -13 -1 -22 6 -9 7 -19 10 -22
6 -4 -4 -1 -11 7 -16 9 -6 10 -10 3 -10 -6 0 -15 5 -18 10 -8 13 -35 13 -35 1
0 -5 6 -11 13 -14 6 -2 -1 -2 -18 0 -29 4 -29 3 -11 -12 11 -8 15 -15 10 -15
-6 0 -15 5 -22 12 -6 6 -15 8 -19 4 -4 -4 -1 -11 6 -15 10 -7 9 -10 -8 -16
-22 -7 -41 0 -41 16 0 12 130 71 198 88 1 1 2 -3 2 -9z m730 -11 c0 -5 5 -9
12 -9 17 0 108 -91 108 -107 0 -7 3 -13 8 -13 8 0 30 -42 42 -82 7 -21 5 -27
-10 -31 -16 -4 -17 -2 -7 14 6 10 8 22 4 26 -5 4 -12 1 -17 -7 -6 -8 -10 -10
-10 -5 0 6 5 16 12 23 6 6 8 15 4 19 -4 4 -11 1 -16 -7 -7 -11 -9 -7 -7 14 1
17 -4 31 -12 34 -10 3 -12 -1 -8 -14 6 -17 6 -17 -8 1 -8 11 -19 26 -25 33 -7
7 -7 12 -1 12 6 0 14 -7 19 -16 6 -10 12 -12 15 -6 8 11 -82 104 -93 97 -4 -3
-10 2 -14 10 -3 8 -12 15 -21 15 -8 0 -15 4 -15 9 0 5 9 7 20 4 11 -3 20 -9
20 -14z m-4953 -11 c-3 -8 -6 -5 -6 6 -1 11 2 17 5 13 3 -3 4 -12 1 -19z
m1410 -40 c-3 -7 -5 -2 -5 12 0 14 2 19 5 13 2 -7 2 -19 0 -25z m-2810 -30
c-2 -13 -4 -5 -4 17 -1 22 1 32 4 23 2 -10 2 -28 0 -40z m1473 -14 c15 -46 39
-104 62 -148 13 -25 29 -81 21 -72 -3 3 -13 0 -22 -6 -13 -10 -14 -10 -3 2 14
17 16 40 2 40 -5 0 -10 -8 -11 -17 0 -13 -3 -11 -10 6 -5 13 -7 32 -4 42 7 22
-4 69 -17 69 -6 0 -8 -12 -4 -27 5 -24 5 -25 -5 -10 -6 10 -12 41 -13 68 -3
54 -12 71 -26 49 -6 -9 -10 -10 -10 -3 0 6 5 15 10 18 6 3 10 13 10 21 0 8
-4 14 -10 14 -5 0 -10 -8 -10 -17 0 -9 -3 -14 -6 -10 -10 10 5 39 18 35 6 -2
18 -26 28 -54z m4931 19 c13 -16 12 -17 -3 -4 -17 13 -22 21 -14 21 2 0 10
-8 17 -17z m-1001 -8 c-6 -8 -8 -20 -4 -27 5 -8 1 -8 -11 2 -17 14 -18 13
-12 -3 5 -12 3 -17 -5 -15 -22 8 -18 23 10 40 35 21 37 21 22 3z m-3250 -19
c0 -14 -4 -28 -10 -31 -6 -4 -10 7 -10 24 0 17 5 31 10 31 6 0 10 -11 10 -24
z m14 -56 c-4 -54 -3 -80 4 -80 6 0 13 12 15 28 4 26 4 25 3 -3 -1 -19 -7 -31
-17 -33 -14 -2 -18 7 -20 47 -2 28 -1 51 4 51 4 0 7 16 7 35 0 19 3 35 6 35
3 0 2 -36 -2 -80z m1136 20 c-19 -16 -38 -29 -42 -30 -4 0 -14 -8 -24 -17 -12
-12 -16 -13 -13 -4 3 8 14 19 25 25 10 6 23 17 27 24 7 11 40 29 57 31 2 1
-11 -12 -30 -29z m2034 7 c-3 -9 -12 -13 -19 -11 -7 3 -16 -3 -20 -15 -4 -12
-12 -18 -20 -14 -9 3 -18 -4 -23 -18 -5 -13 -11 -18 -15 -12 -7 12 62 73 82
73 6 0 11 5 11 12 0 6 2 9 5 6 3 -3 3 -12 -1 -21z m-1220 -196 c0 -127 -4
-184 -12 -194 -8 -9 -10 -26 -6 -44 5 -20 3 -25 -4 -18 -6 6 -13 39 -15 75
-2 36 -2 48 0 28 2 -21 8 -38 14 -38 12 0 12 103 -1 116 -7 7 -9 45 -7 95 l3
84 2 -87 c3 -118 22 -116 22 2 0 50 -3 90 -8 90 -4 0 -6 18 -4 40 3 25 0 40
-7 40 -6 0 -11 -12 -12 -27 0 -16 -3 -22 -6 -15 -3 7 -2 25 2 39 6 25 7 25 23
9 15 -14 17 -40 16 -195z m-4127 159 c-3 -22 -1 -40 4 -40 5 0 9 -25 9 -55 0
-58 19 -78 21 -22 2 31 2 32 6 3 3 -16 0 -33 -6 -39 -13 -13 -15 -127 -2 -127
6 0 12 21 14 48 l3 47 2 -45 c2 -48 -9 -77 -26 -66 -5 3 -13 60 -17 126 -4
66 -11 122 -16 126 -13 8 -11 84 2 84 8 0 10 -14 6 -40z m20 -17 c-3 -10 -5
-4 -5 12 0 17 2 24 5 18 2 -7 2 -21 0 -30z m3313 33 c0 -2 -7 -7 -16 -10 -8
-3 -12 -2 -9 4 6 10 25 14 25 6z m-144 -79 c-25 -24 -36 -43 -36 -63 0 -42 11
-52 53 -50 32 1 37 -1 37 -21 0 -13 5 -23 11 -23 8 0 10 -21 7 -65 -2 -36 0
-65 4 -65 9 0 11 -144 2 -153 -3 -3 -5 -76 -5 -161 1 -103 -2 -156 -9 -156
-14 0 -14 -262 0 -276 7 -7 9 -78 7 -195 l-2 -184 -3 188 c-1 116 -6 187 -12
187 -6 0 -10 -70 -10 -190 0 -104 3 -190 8 -190 4 0 5 -22 4 -50 -4 -53 13
-71 21 -22 2 15 3 8 1 -15 -2 -22 -5 -47 -6 -55 -2 -7 2 -12 8 -11 7 1 9 -8
6 -22 -2 -14 0 -25 6 -25 6 0 8 -9 5 -20 -3 -11 0 -20 6 -20 6 0 11 8 12 18 0
9 3 12 5 5 3 -7 0 -21 -6 -32 -8 -17 -7 -23 9 -33 11 -7 17 -18 13 -27 -5
-13 -3 -14 9 -5 11 10 23 2 59 -37 25 -27 46 -59 47 -71 1 -13 -1 -17 -3 -10
-3 6 -11 12 -18 12 -17 0 -106 95 -106 113 0 8 -6 20 -14 26 -8 7 -20 35 -26
64 -7 29 -17 57 -22 64 -5 7 -7 17 -3 24 4 6 1 15 -6 20 -12 7 -14 74 -12 383
0 206 5 381 10 388 4 7 9 81 9 163 1 83 5 181 9 218 5 46 3 72 -5 82 -6 8
-11 38 -10 67 2 79 -6 98 -44 98 -41 0 -56 16 -56 59 0 27 9 44 37 73 20 21
39 36 41 33 2 -2 -12 -19 -32 -38z m2040 19 c-1 -18 -4 -22 -13 -14 -9 7 -21
1 -43 -22 -16 -17 -30 -27 -30 -23 0 12 53 63 67 63 7 0 13 5 13 10 0 6 2 10
4 10 2 0 3 -11 2 -24z m-2434 -16 c5 0 8 7 4 15 -3 8 -1 15 4 15 13 0 13 -27
1 -34 -5 -4 -12 -29 -16 -56 -4
-27 -11 -53 -17 -56 -12 -8 -28 14 -27 36 1 11 3 10 6 -2 2 -10 9 -18 14 -18
12 0 12 37 -1 45 -5 3 -9 14 -9 23 1 15 2 15 6 0 8 -31 21 -19 28 25 4 23 12
48 17 54 7 9 7 22 -2 42 -7 17 -10 36 -7 43 3 7 6 3 6 -9 1 -28 21 -31 21
-4 0 11 -4 23 -10 26 -5 3 -9 14 -9 23 1 15 2 15 6 0 9 -37 25 -18 21 25 -3
23 -3 34 -1 25 3 -10 9 -18 15 -18 6 0 8 10 5 23 -10 43 -14 62 -10 50 3 -7
9 -13 14 -13 12 0 12 37 -1 45 -5 3 -9 14 -9 23 1 15 2 15 6 0 9 -37 25 -18
21 25 -3 23 -3 34 -1 25 3 -10 8 -18 12 -18z m518 18 c-3 -8 -6 -5 -6 6 -1 11
2 17 5 13 3 -3 4 -12 1 -19z m1751 -41 c-29 -29 -55 -52 -57 -50 -6 4 92 102
102 103 5 0 -16 -24 -45 -53z m632 38 c7 -9 15 -13 17 -11 7 7 32 -18 26 -27
-2 -4 3 -14 11 -23 9 -8 16 -24 16 -35 0 -10 5 -19 10 -19 6 0 10 8 10 17 0
9 3 13 6 10 4 -4 1 -20 -6 -37 -9 -21 -9 -34 -2 -43 6 -7 14 -70 18 -140 7
-136 21 -167 27 -64 3 57 3 57 1 -3 -2 -36 -6 -93 -10 -127 -4 -41 -2 -63 5
-63 5 0 12 19 14 43 2 23 3 13 1 -23 -4 -64 -4 -65 -64 -123 -34 -33 -59 -64
-57 -71 2 -6 -6 -15 -17 -21 -11 -6 -25 -20 -31 -31 -6 -11 -15 -19 -21 -17
-12 4 -64 -44 -64 -59 0 -5 -5 -6 -10 -3 -12 7 -42 -20 -32 -29 3 -4 -1 -4
-11 0 -9 3 -17 2 -17 -4 0 -6 6 -13 13 -15 9 -4 9 -6 0 -6 -6 -1 -15 4 -18 9
-8 13 -35 13 -35 1 0 -5 8 -11 18 -14 9 -2 -36 -3 -100 -3 -64 0 -115 2 -112
5 7 7 -48 61 -57 55 -5 -3 -6 2 -3 10 3 9 1 16 -5 16 -6 0 -11 -6 -11 -12 0
-8 -5 -6 -10 4 -7 11 -7 32 -1 57 5 24 5 43 0 47 -12 7 -12 114 0 114 6 0 7
16 4 35 -4 23 -2 35 6 35 14 0 15 -66 1 -75 -13 -8 -13 -102 1 -110 5 -4 9
-17 8 -28 -3 -30 24 -87 54 -116 34 -31 144 -42 191 -19 17 9 42 20 56 27 39
17 62 34 88 64 13 15 29 27 36 27 14 0 66 52 66 66 0 5 27 36 60 69 55 54 73
85 52 85 -5 0 -14 87 -21 193 -7 105 -16 197 -21 202 -4 6 -10 26 -14 45 -8
47 -38 110 -52 110 -6 0 -18 7 -25 16 -10 13 -25 15 -64 11 -51 -6 -105 -26
-105 -39 0 -5 -5 -8 -12 -8 -17 0 -118 -101 -118 -117 0 -8 -6 -16 -14 -19
-8 -3 -18 -19 -21 -35 -4 -16 -11 -29 -16 -29 -5 0 -15 -16 -24 -36 -14 -35
-35 -42 -43 -13 -3 12 -2 12 7 -1 5 -8 13 -11 17 -7 4 3 1 13 -6 22 -7 9 -10
18 -6 22 3 3 6 1 6 -5 0 -7 5 -12 11 -12 6 0 8 7 5 16 -4 9 -2 13 5 8 7 -4 9
1 4 15 -3 11 -1 29 5 38 8 15 9 13 4 -9 -8 -38 11 -36 25 2 5 17 15 30 21 30
7 0 10 5 8 11 -2 7 20 34 49 62 29 27 53 56 53 63 0 8 6 11 15 8 8 -4 17 1
21 9 3 9 12 13 20 10 8 -3 14 0 14 5 0 23 132 29 150 7z m-3456 -60 c-4 -8
-1 -15 5 -15 6 0 12 17 12 38 1 36 1 37 8 7 4 -16 4 -34 -1 -39 -10 -12 -11
-146 0 -146 4 0 6 -66 4 -147 -2 -99 1 -154 9 -169 6 -12 9 -28 6 -36 -3 -7
-6 -3 -6 10 -1 12 -6 22 -12 22 -7 0 -10 -12 -7 -28 2 -17 -1 -29 -7 -29 -9
0 -9 14 -2 51 12 64 2 445 -13 460 -5 5 -10 26 -9 46 0 31 1 32 9 12 5 -12
7 -29 4 -37z m3204 5 c-7 -10 -14 -17 -17 -15 -4 4 18 35 25 35 2 0 -1 -9 -8
-20z m-2116 -42 c2 -20 0 -34 -4 -32 -4 3 -8 24 -7 47 1 47 6 41 11 -15z
m1668 -2 c0 -2 -8 -10 -17 -17 -16 -13 -17 -12 -4 4 13 16 21 21 21 13z
m-4919 -74 c3 -65 17 -68 22 -4 2 26 1 -13 -1 -85 -4 -97 -2 -133 6 -133 7 0
13 21 14 53 l2 52 3 -49 c2 -27 -1 -54 -6 -59 -15 -15 -15 -469 0 -484 5 -5 8
-32 6 -59 l-3 -49 -2 53 c-3 81 -22 62 -22 -22 0 -41 -4 -78 -10 -81 -5 -3
-11 -21 -11 -38 -2 -31 -2 -31 -6 -4 -3 16 2 35 9 44 19 23 19 786 1 805 -7
6 -13 36 -13 67 0 68 9 63 11 -7z m2206 -14 c-2 -13 -4 -3 -4 22 0 25 2 35 4
23 2 -13 2 -33 0 -45z m3520 30 c-3 -7 -5 -2 -5 12 0 14 2 19 5 13 2 -7 2
-19 0 -25z m-890 -32 c-28 -30 -53 -53 -56 -51 -4 5 91 105 101 105 3 0 -17
-25 -45 -54z m-787 -11 c0 -8 -4 -15 -10 -15 -5 0 -7 7 -4 15 4 8 8 15 10 15
2 0 4 -7 4 -15z m1697 -67 c-2 -13 -4 -5 -4 17 -1 22 1 32 4 23 2 -10 2 -28
0 -40z m-1691 -35 c-8 -53 -15 -77 -26 -80 -9 -2 -10 -1 -2 3 15 7 16 56 1 71
-6 6 -9 21 -6 34 4 22 4 22 6 -3 1 -38 21 -36 21 1 0 17 4 32 9 35 4 3 6 17
3 31 -2 15 0 25 7 25 6 0 11 -9 11 -20z m508 -15 c-3 -3 -9 2 -12 12 -6 14
-5 15 5 6 7 -7 10 -15 7 -18z m-1271 -122 c-2 -27 -3 -5 -3 47 0 52 1 74 3
48 2 -27 2 -69 0 -95z m2521 117 c-7 -10 -14 -17 -17 -15 -4 4 18 35 25 35 2
0 -1 -9 -8 -20z m-1260 -21 c3 -12 2 -12 -7 1 -5 8 -13 11 -17 7 -4 -4 -2 -13
4 -19 7 -7 12 -17 12 -22 0 -6 -5 -4 -10 4 -8 13 -11 12 -24 -5 -8 -11 -12
-24 -9 -28 3 -5 9 -3 14 4 11 18 10 0 -1 -26 -7 -17 -9 -17 -9 -2 -1 20 -21
23 -21 3 0 -8 5 -18 10 -21 6 -3 10 -12 9 -18 0 -9 -2 -9 -6 1 -2 6 -9 12
-14 12 -12 0 -12 -27 1 -32 6 -2 6 -8 0 -18 -8 -13 -10 -12 -10 3 0 9 -5 17
-11 17 -7 0 -8 -7 -4 -17 4 -10 9 -27 10 -38 1 -14 1 -14 -2 -2 -2 9 -9 17
-14 17 -12 0 -12 -37 1 -45 6 -3 9 -14 9 -23 -1 -15 -2 -15 -6 1 -2 9 -9 17
-14 17 -12 0 -12 -43 0 -55 5 -6 5 -19 1 -30 -8 -17 -9 -16 -9 8 -1 16 -5 26
-10 23 -4 -3 -6 -18 -3 -33 4 -23 2 -26 -9 -15 -10 9 -11 19 -2 45 7 17 15 50
19 72 6 39 15 61 68 178 26 55 45 68 54 36z m-1954 -19 c15 0 2 -97 -19 -137
-13 -24 -13 -24 -19 13 -4 20 -5 39 -2 42 3 3 6 -4 6 -16 0 -12 5 -22 10 -22
13 0 13 33 -1 47 -6 6 -9 21 -6 34 4 22 4 22 6 -3 1 -38 21 -36 21 1 0 17
-4 33 -10 36 -5 3 -10 12 -9 18 0 9 2 9 6 0 2 -7 10 -13 17 -13z m3175 3 c-21
-27 -59 -63 -59 -55 0 7 61 72 68 72 3 0 -2 -8 -9 -17z m818 -105 c-2 -24
-4 -5 -4 42 0 47 2 66 4 43 2 -24 2 -62 0 -85z m-5559 95 c-10 -12 -6 -17 52
-81 15 -17 25 -34 21 -37 -3 -4 2 -11 12 -16 9 -6 17 -16 17 -24 0 -8 9 -19
20 -25 11 -6 20 -17 20 -25 0 -8 8 -20 18 -27 10 -7 21 -21 25 -30 3 -10 11
-18 16 -18 6 0 8 8 5 18 -5 14 -4 14 4 2 6 -8 7 -21 3 -29 -6 -10 0 -23 19
-40 15 -14 30 -34 33 -43 4 -10 11 -18 18 -18 6 0 9 7 5 15 -8 22 -2 18 22
-15 15 -20 18 -28 7 -24 -8 4 -15 11 -15 17 0 7 -4 7 -12 -1 -9 -9 -8 -15 8
-27 10 -8 24 -13 30 -11 6 3 21 -10 33 -27 l22 -32 -25 27 c-14 16 -28 23 -31
18 -3 5 8 -23 25 -40 17 -16 26 -30 21 -30 -12 0 -101 104 -101 119 0 6 -4
11 -10 11 -5 0 -10 5 -10 11 0 6 -18 31 -40 56 -22 25 -40 52 -40 59 0 8 -9
19 -20 26 -11 7 -20 17 -20 21 0 5 -16 28 -35 51 -19 24 -35 48 -35 54 0 6
-7 15 -16 20 -8 5 -21 18 -27 29 -7 12 -22 35 -34 51 l-23 30 24 -2 c18 -1 22
-4 14 -13z m1110 10 c-10 -2 -28 -2 -40 0 -13 2 -5 4 17 4 22 1 32 -1 23 -4z
m-1073 -33 c10 -11 16 -20 13 -20 -3 0 -13 9 -23 20 -10 11 -16 20 -13 20 3
0 13 -9 23 -20z m40 -59 c-6 -5 -25 10 -25 20 0 5 6 4 14 -3 8 -7 12 -15 11
-17z m2882 -28 c-3 -10 -5 -2 -5 17 0 19 2 27 5 18 2 -10 2 -26 0 -35z m1170
15 c-3 -7 -5 -2 -5 12 0 14 2 19 5 13 2 -7 2 -19 0 -25z m-4560 -45 c-2 -16
-4 -5 -4 22 0 28 2 40 4 28 2 -13 2 -35 0 -50z m5032 4 c-2 -1 -13 -9 -24
-17 -19 -14 -19 -14 -6 3 7 9 18 17 24 17 6 0 8 -1 6 -3z m-3079 -11 c0 -3
-4 -8 -10 -11 -5 -3 -10 -1 -10 4 0 6 5 11 10 11 6 0 10 -2 10 -4z m1451 -89
c-14 -14 -14 -184 -1 -192 14 -8 13 -45 -1 -45 -6 0 -9 9 -6 20 3 11 1 23
-4 26 -13 7 -12 194 1 194 6 0 8 11 4 25 -3 14 -2 33 2 42 6 14 9 8 12 -21
2 -21 -1 -43 -7 -49z m-1447 6 c-7 -38 -13 -68 -14 -68 -1 0 -3 -9 -5 -20
-14 -74 -30 -131 -38 -136 -5 -4 -6 -16 -2 -28 4 -12 2 -21 -4 -21 -6 0 -11
6 -11 13 0 6 -2 30 -5 52 -4 34 -3 36 4 10 7 -26 9 -27 16 -12 4 11 2 28 -5
42 -7 13 -10 29 -7 37 3 7 6 3 6 -9 2 -42 19 -24 26 27 4 28 11 50 16 50 13
0 11 54 -2 67 -6 6 -9 19 -6 29 4 16 5 15 6 -3 1 -30 21 -30 21 0 0 19 7 37
15 37 0 0 -4 -30 -11 -67z m1423 20 c-3 -10 -5 -2 -5 17 0 19 2 27 5 18 2 -10
2 -26 0 -35z m2620 -15 c-2 -13 -4 -3 -4 22 0 25 2 35 4 23 2 -13 2 -33 0 -45z
m-1363 -7 c-5 -6 -34 20 -34 30 0 5 8 1 18 -8 10 -10 17 -20 16 -22z m-4026
4 c-3 -3 -9 2 -12 12 -6 14 -5 15 5 6 7 -7 10 -15 7 -18z m-631 -52 c-2 -16
-4 -5 -4 22 0 28 2 40 4 28 2 -13 2 -35 0 -50z m1940 5 c-3 -7 -5 -2 -5 12
0 14 2 19 5 13 2 -7 2 -19 0 -25z m2861 5 c-16 -2 -40 -2 -55 0 -16 2 -3 4
27 4 30 0 43 -2 28 -4z m503 -21 c-14 -26 -14 -52 -1 -52 6 0 10 12 10 27 0
14 3 24 6 20 3 -3 3 -25 -1 -49 -5 -24 -10 -36 -13 -28 -12 37 -24 40 -48 11
-13 -16 -24 -34 -24 -39 0 -6 -6 -15 -12 -19 -7 -4 -17 -15 -23 -24 -66 -106
-135 -189 -265 -321 -86 -87 -164 -158 -173 -158 -9 0 -17 -4 -17 -10 0 -5
-5 -10 -10 -10 -6 0 -6 7 2 19 6 10 18 17 25 14 7 -3 13 0 13 6 0 7 8 15 18
18 25 10 207 192 199 199 -4 4 -13 1 -22 -6 -28 -23 -15 -4 17 26 18 16 26
21 19 11 -8 -9 -11 -20 -8 -24 8 -8 37 16 37 31 0 6 14 24 31 39 17 14 27 31
24 37 -4 7 -16 0 -32 -17 -14 -15 -22 -21 -18 -13 15 28 38 50 47 44 11 -7 49
25 43 36 -3 4 2 10 10 14 8 3 15 12 15 20 0 8 6 19 13 23 7 4 28 32 47 61 18
28 37 52 42 52 4 0 8 5 8 12 0 13 43 79 48 73 2 -2 -1 -12 -7 -23z m726 -4
c-3 -7 -5 -2 -5 12 0 14 2 19 5 13 2 -7 2 -19 0 -25z m-5332 -18 c10 -11 16
-20 13 -20 -3 0 -13 9 -23 20 -10 11 -16 20 -13 20 3 0 13 -9 23 -20z m1227
-12 c-7 -7 -12 -8 -12 -2 0 14 12 26 19 19 2 -3 -1 -11 -7 -17z m3328 13 c0
-6 -11 -23 -25 -38 l-26 -28 23 37 c25 40 28 43 28 29z m-5263 -53 c-2 -13
-4 -5 -4 17 -1 22 1 32 4 23 2 -10 2 -28 0 -40z m3390 5 c-3 -10 -5 -2 -5 17
0 19 2 27 5 18 2 -10 2 -26 0 -35z m469 -24 l1 -54 -4 53 c-2 28 -8 52 -14
52 -5 0 -9 -60 -9 -145 0 -90 4 -145 10 -145 6 0 11 24 12 53 1 51 2 52 5 8
3 -24 1 -51 -3 -60 -4 -9 -8 -20 -9 -26 0 -5 -6 -9 -13 -8 -6 2 -29 -15 -49
-37 -38 -40 -57 -48 -68 -30 -3 5 0 7 9 4 23 -9 96 72 96 108 0 32 -22 47
-44 29 -11 -9 -20 -9 -37 1 -17 10 -23 10 -26 1 -6 -16 -29 -17 -38 -2 -4 6
-1 9 6 8 8 -1 28 3 44 10 21 9 39 10 63 3 l32 -10 0 117 c0 65 3 121 7 125
17 16 28 -5 29 -55z m2201 4 c-3 -10 -5 -4 -5 12 0 17 2 24 5 18 2 -7 2 -21
0 -30z m-6550 -20 c-3 -10 -5 -2 -5 17 0 19 2 27 5 18 2 -10 2 -26 0 -35z
m5843 23 c0 -8 -4 -18 -10 -21 -5 -3 -10 -19 -10 -36 0 -37 20 -39 21 -1 2
25 2 25 6 3 3 -13 0 -28 -6 -34 -14 -14 -14 -57 -1 -57 6 0 10 12 10 27 0 14
3 24 6 20 3 -3 3 -25 -1 -49 -5 -24 -10 -36 -13 -28 -3 8 -8 17 -12 20 -3 3
-11 35 -16 73 -8 56 -8 67 4 67 8 0 12 6 8 15 -3 8 -1 15 4 15 6 0 10 -6 10
-14z m-5363 -73 c-3 -10 -5 -4 -5 12 0 17 2 24 5 18 2 -7 2 -21 0 -30z m-490
-31 c-4 -25 -4 -24 -6 6 0 17 -5 32 -11 32 -14 0 -13 -63 1 -77 6 -6 9 -19 6
-29 -4 -16 -5 -15 -6 4 -2 32 -21 27 -21 -6 0 -15 -5 -33 -11 -39 -9 -9 -9
-19 1 -42 6 -16 10 -36 7 -43 -3 -7 -6 -3 -6 10 -1 12 -6 22 -12 22 -7 0 -9
-10 -7 -25 3 -14 1 -25 -3 -25 -5 0 -9 -9 -9 -20 0 -11 -4 -20 -9 -20 -9 0
14 115 28 141 5 8 12 47 16 85 8 69 22 96 38 68 5 -8 6 -27 4 -42z m5674 35
c-10 -9 -11 -8 -5 6 3 10 9 15 12 12 3 -3 0 -11 -7 -18z m1262 -2 c-16 -22
-33 -32 -33 -20 0 8 34 43 43 44 4 1 0 -10 -10 -24z m-3026 -22 c-3 -10 -5
-4 -5 12 0 17 2 24 5 18 2 -7 2 -21 0 -30z m-1511 -30 c-10 -10 -19 5 -10 18
6 11 8 11 12 0 2 -7 1 -15 -2 -18z m1561 -20 c10 -20 25 -39 33 -43 57 -28 73
-32 119 -29 28 2 51 1 51 -3 0 -5 -29 -8 -65 -8 -41 0 -65 4 -65 11 0 6 -7 9
-15 5 -15 -5 -65 36 -65 54 0 15 -20 12 -20 -2 0 -7 -5 -5 -11 5 -12 20 -6
47 11 47 5 0 18 -16 27 -37z m3093 -533 l0 -570 -3662 2 c-2015 0 -3648 3
-3630 5 17 2 32 8 32 13 0 6 11 5 26 0 16 -7 1310 -10 3625 -10 l3599 0 0
528 c0 449 -2 531 -15 548 -10 13 -14 15 -15 5 0 -8 -2 -12 -5 -9 -3 3 -1 16
4 29 7 17 10 19 10 7 1 -25 21 -23 21 2 0 11 2 20 5 20 3 0 5 -256 5 -570z
m-6583 528 c-3 -8 -6 -5 -6 6 -1 11 2 17 5 13 3 -3 4 -12 1 -19z m1941 -35
c-5 -27 -12 -55 -15 -63 -3 -8 -5 -22 -4 -30 2 -11 0 -12 -9 -4 -6 6 -12 26
-14 45 -2 19 -1 24 1 12 2 -13 9 -23 14 -23 13 0 11 44 -2 57 -6 6 -9 19 -6
29 4 16 5 15 6 -3 1 -31 21 -29 21 2 0 14 4 25 9 25 5 0 4 -21 -1 -47z m3212
38 c0 -5 -7 -12 -16 -15 -14 -5 -15 -4 -4 9 14 17 20 19 20 6z m-4245 -11 c3
-6 -1 -7 -9 -4 -18 7 -21 14 -7 14 6 0 13 -4 16 -10z m28 -72 c-4 -8 67 -78
80 -78 4 0 6 -4 2 -9 -5 -9 125 -151 138 -151 10 0 60 -50 55 -55 -7 -7 -208
184 -208 197 0 6 -18 26 -40 45 -22 19 -40 41 -40 48 0 8 -13 24 -30 37 -16
12 -30 26 -30 31 0 5 17 -6 38 -24 21 -19 37 -37 35 -41z m5247 46 c0 -2 -9
0 -20 6 -11 6 -20 13 -20 16 0 2 9 0 20 -6 11 -6 20 -13 20 -16z m-6193 -41
c-3 -10 -5 -2 -5 17 0 19 2 27 5 18 2 -10 2 -26 0 -35z m5433 37 c0 -5 -2
-10 -4 -10 -3 0 -8 5 -11 10 -3 6 -1 10 4 10 6 0 11 -4 11 -10z m1128 -12
c-7 -12 -19 -29 -26 -37 -12 -12 -15 -12 -23 0 -11 18 -11 21 2 39 8 12 9 10
4 -7 -9 -32 13 -29 25 2 5 14 14 25 20 25 6 0 5 -8 -2 -22z m-3054 -4 c3 -8
2 -12 -4 -9 -6 3 -10 10 -10 16 0 14 7 11 14 -7z m1906 -30 c0 -28 16 -33 23
-6 4 15 5 15 6 0 0 -9 -3 -20 -9 -23 -13 -8 -13 -45 -1 -45 5 0 11 6 14 13 2
6 2 1 0 -13 -10 -54 -22 -40 -37 44 -7 36 -9 63 -4 60 4 -3 8 -16 8 -30z m-5903
-16 c-3 -7 -5 -2 -5 12 0 14 2 19 5 13 2 -7 2 -19 0 -25z m6781 25 c-10 -2
-28 -2 -40 0 -13 2 -5 4 17 4 22 1 32 -1 23 -4z m-5303 -21 c-3 -3 -11 0
-18 7 -9 10 -8 11 6 5 10 -3 15 -9 12 -12z m-998 -34 c-3 -7 -5 -2 -5 12 0
14 2 19 5 13 2 -7 2 -19 0 -25z m3676 25 c-13 -2 -35 -2 -50 0 -16 2 -5 4
22 4 28 0 40 -2 28 -4z m168 -16 c-10 -9 -11 -8 -5 6 3 10 9 15 12 12 3 -3 0
-11 -7 -18z m-1931 -2 c0 -8 -4 -15 -10 -15 -5 0 -7 7 -4 15 4 8 8 15 10 15
2 0 4 -7 4 -15z m4571 -8 c-10 -9 -11 -8 -5 6 3 10 9 15 12 12 3 -3 0 -11 -7
-18z m37 1 c-8 -12 -21 -24 -29 -26 -8 -2 -6 2 4 8 9 6 17 18 17 25 0 8 5 15
11 15 7 0 6 -8 -3 -22z m-4598 -54 c-5 -20 -15 -43 -23 -52 -13 -12 -16 -12
-21 4 -3 11 -2 33 3 49 8 25 9 26 10 8 1 -31 21 -29 21 2 0 14 4 25 9 25 5 0
5 -16 1 -36z m1990 16 c0 -11 4 -20 9 -20 5 0 7 -9 4 -20 -6 -21 12 -29 19
-8 3 8 6 7 10 -4 5 -11 0 -15 -14 -14 -15 1 -24 12 -33 44 -7 23 -9 42 -4
42 5 0 9 -9 9 -20z m2560 16 c0 -2 -8 -10 -17 -17 -16 -13 -17 -12 -4 4 13
16 21 21 21 13z m-5350 -81 c35 -36 62 -65 59 -65 -2 0 -34 29 -69 65 -35 36
-62 65 -59 65 2 0 34 -29 69 -65z m4350 30 c-7 -8 -10 -19 -6 -22 4 -4 11 -1
16 7 6 9 10 10 10 3 0 -6 -4 -15 -10 -18 -5 -3 -10 -13 -10 -21 0 -8 5 -14
10 -14 6 0 10 8 10 18 0 12 4 11 14 -8 8 -17 10 -29 3 -38 -5 -7 -7 -16 -3
-19 4 -4 11 -1 16 7 6 9 10 10 10 3 0 -6 -4 -15 -10 -18 -16 -10 -12 -23 9
-30 12 -4 18 -12 14 -21 -3 -7 0 -14 6 -14 6 0 11 6 11 13 0 8 4 7 10 -3 5
-8 10 -19 10 -25 0 -5 -4 -4 -9 4 -6 9 -10 10 -16 2 -3 -6 4 -21 17 -32 l23
-20 -27 16 c-15 9 -30 29 -33 45 -3 16 -12 31 -19 33 -14 5 -41 69 -28 64 4
-1 9 2 12 8 3 5 -3 10 -13 10 -13 0 -23 12 -32 38 -10 31 -10 37 1 37 8 0 11
6 7 18 -5 14 -3 15 7 5 11 -10 11 -15 0 -28z m1007 12 c-7 -13 -27 -41 -44
-64 -18 -22 -33 -44 -33 -48 0 -3 -13 -18 -30 -32 -16 -13 -30 -30 -30 -36 0
-15 -91 -107 -106 -107 -7 0 -21 -10 -31 -23 -20 -25 -53 -42 -53 -27 0 6 6
10 14 10 16 0 31 18 23 26 -3 3 -16 1 -29 -6 -22 -11 -22 -10 -4 4 11 9 28
14 37 11 11 -4 21 1 28 12 5 10 13 17 18 17 12 -3 96 77 89 84 -3 3 3 12 14
19 12 9 19 22 16 31 -3 10 -1 24 5 32 8 12 9 10 4 -7 -9 -32 13 -29 25 2 5
14 14 25 21 25 6 0 9 6 7 12 -3 7 6 21 19 32 13 10 22 21 19 24 -3 3 2 11
12 18 23 18 23 18 9 -9z m-2732 -17 c-3 -5 -11 -10 -16 -10 -6 0 -7 5 -4 10
3 6 11 10 16 10 6 0 7 -4 4 -10z m-4276 -49 c-1 -13 -2 -13 -6 2 -2 9 -9 17
-14 17 -13 0 -11 -24 4 -39 10 -10 9 -11 -5 -6 -11 4 -18 2 -18 -4 0 -6 -4
-11 -10 -11 -6 0 -6 8 -1 23 5 12 12 30 15 41 5 15 9 16 21 6 8 -7 14 -20
14 -29z m4291 29 c0 -6 -8 -14 -17 -17 -10 -4 -33 -18 -52 -32 l-34 -25 8 24
c7 23 7 24 -11 10 -18 -14 -18 -14 -5 3 11 14 17 15 28 5 12 -10 18 -9 27 2
9 12 43 37 54 39 1 1 2 -4 2 -9z m193 -37 c-3 -7 -1 -13 5 -13 6 0 13 6 15
13 4 9 6 9 6 0 1 -6 -3 -15 -9 -18 -16 -10 -12 -23 10 -30 11 -4 17 -11 14
-17 -4 -5 20 -37 52 -69 32 -32 56 -59 53 -59 -9 0 -119 112 -119 120 0 4
-6 13 -14 19 -22 18 -37 68 -21 68 7 0 11 -6 8 -14z m-2078 -39 c-7 -20 -16
-39 -21 -43 -5 -3 -15 -18 -23 -33 -8 -15 -28 -40 -45 -55 l-31 -28 28 31 c16
18 25 34 20 37 -11 6 -58 -44 -58 -62 0 -8 -15 -21 -33 -28 -25 -10 -31 -10
-30 -1 2 7 -3 12 -10 10 -8 -1 -11 2 -7 9 5 8 10 8 18 0 15 -15 30 -14 25 1
-3 7 9 22 26 33 17 11 41 36 54 55 18 26 22 29 17 11 -5 -17 -4 -22 6 -19 8
3 14 14 13 26 0 11 2 21 5 20 25 -2 33 4 28 22 -3 11 -1 20 4 20 5 0 9 7 9
15 0 8 4 15 9 15 5 0 3 -16 -4 -36z m1764 -10 c-6 -8 -16 -14 -21 -14 -5 0
-25 -12 -45 -27 -34 -26 -35 -27 -29 -5 7 22 7 22 -23 5 -16 -10 -27 -21 -24
-26 2 -4 11 -3 19 4 9 7 14 8 14 1 0 -6 -14 -17 -31 -26 -25 -13 -29 -13 -19
-1 6 8 9 18 6 24 -10 15 56 52 71 39 14 -11 47 8 38 22 -3 4 3 7 12 6 9 0
18 5 20 12 3 8 -2 10 -14 6 -14 -5 -15 -4 -3 4 21 15 45 -5 29 -24z m1271 32
c0 -2 -8 -10 -17 -17 -16 -13 -17 -12 -4 4 13 16 21 21 21 13z m-3073 -38
c-3 -8 -6 -5 -6 6 -1 11 2 17 5 13 3 -3 4 -12 1 -19z m988 2 c3 -5 1 -10 -4
-10 -6 0 -11 5 -11 10 0 6 2 10 4 10 3 0 8 -4 11 -10z m-1575 -30 c0 -15 -5
-12 -26 11 -19 22 -19 22 4 10 12 -6 22 -16 22 -21z m3615 20 c-3 -5 -12 -10
-18 -10 -7 0 -6 4 3 10 19 12 23 12 15 0z m-835 -20 c6 -11 8 -20 6 -20 -3 0
-10 9 -16 20 -6 11 -8 20 -6 20 3 0 10 -9 16 -20z m-2740 -27 c0 -3 -7 -2
-16 1 -10 4 -14 1 -11 -6 2 -7 11 -12 20 -12 9 1 19 -7 22 -17 7 -21 20 -25
30 -9 3 6 1 10 -6 10 -7 0 -10 2 -7 5 3 3 13 2 22 -1 14 -5 15 -9 5 -15 -8
-4 -10 -11 -6 -15 3 -4 12 -2 19 3 9 7 21 5 38 -3 19 -10 20 -14 8 -14 -10 0
-18 -4 -18 -10 0 -5 6 -10 14 -10 8 0 18 5 21 10 3 6 12 10 18 9 9 0 9 -2 0
-6 -21 -8 -15 -26 7 -20 13 3 20 0 20 -8 0 -11 -7 -12 -42 -1 -32 9 -43 17
-43 31 0 11 -5 18 -10 15 -6 -3 -9 -8 -7 -12 4 -15 -15 -8 -52 17 -20 14
-39 25 -42 25 -3 0 -12 6 -19 14 -10 9 -11 16 -3 24 10 10 38 6 38 -5z m5004
-5 c-29 -35 -64 -68 -72 -68 -3 0 14 20 38 45 47 47 66 60 34 23z m-2829 -16
c-6 -4 -10 -13 -10 -21 0 -8 -14 -20 -31 -27 -25 -10 -31 -10 -31 1 0 7 6 11
14 8 7 -3 13 0 13 6 0 6 -5 11 -12 11 -6 0 -8 3 -5 6 4 4 13 1 22 -6 9 -7 19
-9 23 -5 4 4 1 10 -6 12 -10 4 -8 8 5 18 10 7 20 11 23 9 2 -3 0 -8 -5 -12z
m643 -37 c-3 -3 -9 2 -12 12 -6 14 -5 15 5 6 7 -7 10 -15 7 -18z m657 6 c-10
-17 -45 -33 -45 -21 0 5 7 10 15 10 9 0 18 7 22 15 3 9 8 14 10 11 3 -3 2
-9 -2 -15z m-1389 -22 c9 -15 -6 -28 -44 -38 -25 -7 -32 -7 -32 4 0 8 7 11
20 8 11 -3 20 0 20 6 0 6 -5 11 -12 11 -6 0 -8 3 -5 6 4 4 13 1 22 -6 9 -7
19 -10 22 -6 4 4 1 11 -7 16 -9 6 -10 10 -3 10 6 0 15 -5 19 -11z m754 1 c-8
-5 -11 -12 -7 -16 3 -4 14 -1 24 7 13 11 15 11 9 1 -5 -8 -1 -19 10 -28 17
-12 15 -13 -14 -3 -17 6 -35 15 -38 20 -7 12 4 29 19 29 7 0 6 -4 -3 -10z
m570 0 c17 -11 9 -20 -32 -38 -17 -7 -28 -8 -28 -2 0 6 7 10 15 10 8 0 15 5
15 10 0 6 -6 10 -12 10 -9 0 -8 4 2 10 19 12 21 12 40 0z m-3205 -20 c3 -5
1 -10 -4 -10 -6 0 -11 5 -11 10 0 6 2 10 4 10 3 0 8 -4 11 -10z m1490 -18
c-8 -2 -15 -8 -15 -13 0 -12 24 -11 37 2 6 6 19 9 29 6 16 -4 15 -5 -3 -6
-42 -2 -24 -18 26 -23 63 -6 161 2 161 13 0 5 -10 10 -22 10 -19 1 -20 2 -4
6 10 3 23 0 29 -6 14 -14 37 -14 37 -1 0 6 -7 10 -17 10 -9 0 -14 2 -11 5 9
9 58 -6 58 -18 0 -6 -3 -7 -7 -4 -3 4 -11 3 -17 -3 -23 -18 -103 -31 -198
-31 -96 0 -204 16 -214 33 -8 13 6 28 24 27 15 -1 15 -2 0 -6z m-1098 -17
c0 -11 -19 -15 -25 -6 -3 5 1 10 9 10 9 0 16 -2 16 -4z m1200 -6 c0 -5 -2
-10 -4 -10 -3 0 -8 5 -11 10 -3 6 -1 10 4 10 6 0 11 -4 11 -10z m-4469 -27
c-12 -20 -14 -14 -5 12 4 9 9 14 11 11 3 -2 0 -13 -6 -23z m-561 14 c0 -2
-10 -12 -22 -23 l-23 -19 19 23 c18 21 26 27 26 19z m6831 -38 c-13 -10 -31
-19 -40 -19 -9 0 -21 -4 -26 -9 -15 -14 -104 -32 -155 -32 -63 -1 -153 23
-157 41 -4 13 -3 13 6 0 8 -12 14 -12 34 -1 14 7 31 11 39 8 7 -3 3 -6 -9
-6 -42 -2 -23 -19 27 -26 56 -8 170 2 170 15 0 4 9 6 20 3 11 -3 20 0 20 6
0 6 8 11 18 11 26 0 63 29 56 43 -4 7 -1 6 7 -1 12 -11 10 -16 -10 -33z m-124
-15 c-3 -3 -12 -4 -19 -1 -8 3 -5 6 6 6 11 1 17 -2 13 -5z m-48 -8 c-8 -8
-88 -10 -95 -3 -4 4 17 7 46 7 29 0 51 -2 49 -4z m-6138 -33 c-12 -20 -14
-14 -5 12 4 9 9 14 11 11 3 -2 0 -13 -6 -23z m-89 -155 c-7 -7 -12 -8 -12 -2
0 14 12 26 19 19 2 -3 -1 -11 -7 -17z m-745 -90 c-3 -8 -6 -5 -6 6 -1 11 2
17 5 13 3 -3 4 -12 1 -19z m683 18 c0 -2 -8 -10 -17 -17 -16 -13 -17 -12 -4
4 13 16 21 21 21 13z m-690 -77 c0 -22 -4 -38 -9 -34 -8 4 -9 24 -2 68 0 4
3 7 6 7 3 0 5 -18 5 -41z m585 -29 c-10 -11 -21 -18 -23 -15 -3 3 3 12 14 20
27 20 30 18 9 -5z m-601 -35 c-4 -8 -1 -15 6 -15 6 0 9 -4 6 -9 -6 -10 20
-35 47 -44 9 -4 17 -11 17 -16 0 -5 -13 -3 -30 5 -16 9 -30 20 -30 25 0 5
-4 9 -10 9 -5 0 -10 -13 -10 -30 0 -28 3 -30 34 -30 19 0 46 4 60 10 15 5 26
6 26 0 0 -5 10 -11 23 -13 12 -2 -17 -5 -65 -6 l-88 -1 0 65 c0 36 4 65 10
65 5 0 7 -7 4 -15z m561 5 c-3 -5 -12 -10 -18 -10 -7 0 -6 4 3 10 19 12 23
12 15 0z m-515 -35 c11 -13 10 -14 -4 -9 -9 3 -16 10 -16 15 0 13 6 11 20 -6z
m445 -5 c-3 -5 -12 -10 -18 -10 -7 0 -6 4 3 10 19 12 23 12 15 0z m-118 -46
c-3 -3 -12 -4 -19 -1 -8 3 -5 6 6 6 11 1 17 -2 13 -5z m-89 -21 c-21 -2 -55
-2 -75 0 -21 2 -4 4 37 4 41 0 58 -2 38 -4z"/>
<path d="M1720 4120 c0 -5 25 -10 55 -10 30 0 55 5 55 10 0 6 -25 10 -55 10
-30 0 -55 -4 -55 -10z"/>
<path d="M1460 4040 c0 -5 5 -10 11 -10 5 0 7 5 4 10 -3 6 -8 10 -11 10 -2 0
-4 -4 -4 -10z"/>
<path d="M4940 3120 c0 -5 23 -10 50 -10 28 0 50 5 50 10 0 6 -22 10 -50 10
-27 0 -50 -4 -50 -10z"/>
<path d="M6570 2980 c0 -5 7 -10 16 -10 8 0 12 5 9 10 -3 6 -10 10 -16 10
-5 0 -9 -4 -9 -10z"/>
<path d="M2610 2879 c0 -5 5 -7 10 -4 6 3 10 8 10 11 0 2 -4 4 -10 4 -5 0
-10 -5 -10 -11z"/>
<path d="M2650 2784 c0 -8 5 -12 10 -9 6 3 10 10 10 16 0 5 -4 9 -10 9 -5 0
-10 -7 -10 -16z"/>
<path d="M4467 1077 c-4 -13 72 -92 80 -83 3 3 -12 26 -35 50 -22 24 -43 39
-45 33z"/>
<path d="M2690 2694 c0 -8 5 -12 10 -9 6 3 10 10 10 16 0 5 -4 9 -10 9 -5 0
-10 -7 -10 -16z"/>
<path d="M6280 1844 c0 -8 5 -12 10 -9 6 3 10 10 10 16 0 5 -4 9 -10 9 -5 0
-10 -7 -10 -16z"/>
<path d="M5670 2091 c0 -6 5 -13 10 -16 6 -3 10 1 10 9 0 9 -4 16 -10 16 -5 0
-10 -4 -10 -9z"/>
<path d="M3110 2050 c0 -5 5 -10 10 -10 6 0 10 5 10 10 0 6 -4 10 -10 10
-5 0 -10 -4 -10 -10z"/>
<path d="M5430 1410 c0 -5 5 -10 10 -10 6 0 10 5 10 10 0 6 -4 10 -10 10
-5 0 -10 -4 -10 -10z"/>
<path d="M5100 1474 c0 -8 5 -12 10 -9 6 3 10 10 10 16 0 5 -4 9 -10 9 -5 0
-10 -7 -10 -16z"/>
<path d="M3510 1246 c0 -9 5 -16 10 -16 6 0 10 4 10 9 0 6 -4 13 -10 16 -5 3
-10 -1 -10 -9z"/>
<path d="M3350 1000 c0 -5 5 -10 10 -10 6 0 10 5 10 10 0 6 -4 10 -10 10
-5 0 -10 -4 -10 -10z"/>
<path d="M6305 1000 c3 -5 8 -10 11 -10 2 0 4 5 4 10 0 6 -5 10 -11 10 -5 0
-7 -4 -4 -10z"/>
<path d="M3150 960 c0 -6 28 -10 65 -10 37 0 65 4 65 10 0 6 -28 10 -65 10
-37 0 -65 -4 -65 -10z"/>
</g>
</svg>
