<?xml version="1.0" standalone="no"?>
<!DOCTYPE svg PUBLIC "-//W3C//DTD SVG 20010904//EN"
 "http://www.w3.org/TR/2001/REC-SVG-20010904/DTD/svg10.dtd">
<svg version="1.0" xmlns="http://www.w3.org/2000/svg"
 width="900.000000pt" height="504.000000pt" viewBox="0 0 900.000000 504.000000"
 preserveAspectRatio="xMidYMid meet">
<metadata>
Created by potrace 1.16, written by Peter Selinger 2001-2019
</metadata>
<g transform="translate(0.000000,504.000000) scale(0.100000,-0.100000)"
fill="#000000" stroke="none">
<path d="M570 2590 c0 -1333 3 -2010 10 -2010 13 0 13 -77 0 -85 -5 -3 -10
-35 -10 -71 l0 -64 93 1 c50 1 80 4 65 6 -16 2 -28 7 -28 11 0 4 47 6 105 4
58 -2 105 -7 105 -13 0 -5 1394 -9 3660 -9 l3660 0 0 2120 0 2120 -2231 0
c-1484 0 -2228 -3 -2224 -10 3 -6 -4 -10 -17 -10 -18 0 -20 2 -8 10 11 7 6 10
-20 10 -26 0 -31 -3 -20 -10 12 -8 10 -10 -8 -10 -13 0 -20 4 -17 10 4 7 -517
10 -1554 10 l-1561 0 0 -2010z m3002 1990 c-12 -5 -32 -19 -44 -30 -12 -11
-25 -20 -29 -20 -12 0 -52 -43 -68 -73 -8 -15 -18 -27 -21 -27 -4 0 -13 -13
-20 -30 -7 -16 -16 -30 -21 -30 -4 0 -13 -16 -20 -35 -7 -19 -16 -35 -19 -35
-4 0 -13 -25 -20 -55 -7 -30 -17 -55 -21 -55 -4 0 -13 -33 -20 -72 -7 -40 -16
-78 -20 -84 -14 -18 -29 -221 -29 -389 0 -182 19 -527 30 -535 4 -3 13 -72 20
-155 7 -82 16 -152 20 -155 4 -3 13 -83 21 -177 7 -95 17 -173 21 -173 4 0 8
-67 8 -150 0 -82 -4 -150 -8 -150 -5 0 -12 -19 -18 -42 -6 -30 -16 -46 -31
-53 -13 -5 -23 -13 -23 -17 0 -5 -18 -8 -40 -8 -22 0 -40 4 -40 9 0 5 -9 13
-21 16 -26 9 -159 136 -159 153 0 7 -5 12 -10 12 -6 0 -15 11 -20 25 -5 14
-14 25 -19 25 -6 0 -18 17 -27 38 -10 20 -23 40 -30 45 -7 4 -15 21 -19 37 -4
17 -11 30 -16 30 -6 0 -15 14 -20 30 -6 17 -15 30 -19 30 -5 0 -14 22 -21 50
-7 28 -16 50 -20 50 -5 0 -14 18 -20 40 -7 22 -15 40 -18 40 -4 0 -13 20 -20
45 -7 25 -16 45 -20 45 -4 0 -13 23 -20 50 -7 28 -17 50 -21 50 -4 0 -14 23
-21 50 -7 28 -16 50 -21 50 -4 0 -13 20 -19 45 -6 25 -15 45 -19 45 -4 0 -11
16 -14 35 -4 19 -12 40 -19 47 -7 7 -19 36 -26 63 -8 28 -19 59 -26 70 -6 11
-18 41 -26 68 -7 26 -16 47 -20 47 -4 0 -10 12 -14 27 -3 15 -15 46 -25 68
-10 22 -22 53 -25 68 -4 15 -11 27 -16 27 -5 0 -14 20 -20 45 -6 25 -15 45
-19 45 -4 0 -11 16 -14 35 -4 19 -12 40 -19 47 -7 7 -19 34 -26 61 -8 26 -17
47 -22 47 -4 0 -13 17 -20 38 -6 20 -18 41 -25 45 -8 4 -14 12 -14 17 0 14
-83 94 -115 110 -17 8 -34 20 -40 26 -5 7 -35 18 -65 25 -30 7 -58 18 -62 24
-11 15 -291 12 -296 -3 -2 -7 -12 -12 -22 -12 -26 0 -120 -32 -120 -40 0 -5
-10 -10 -22 -14 -25 -6 -59 -29 -93 -63 -12 -13 -26 -23 -30 -23 -10 0 -55
-43 -55 -54 0 -5 -10 -19 -23 -31 -33 -34 -42 -47 -57 -82 -8 -18 -18 -33 -21
-33 -4 0 -13 -20 -20 -45 -7 -25 -17 -45 -20 -45 -4 0 -13 -26 -20 -57 -7 -32
-18 -61 -23 -65 -15 -10 -13 -527 1 -536 6 -4 16 -72 23 -152 7 -80 16 -147
20 -150 7 -5 30 -318 30 -407 0 -29 5 -53 10 -53 6 0 10 -82 10 -225 0 -143
-4 -225 -10 -225 -6 0 -10 -27 -10 -60 0 -74 -21 -263 -30 -270 -3 -3 -12 -44
-20 -93 -7 -48 -16 -87 -20 -87 -3 0 -13 -23 -20 -50 -7 -28 -17 -50 -20 -50
-4 0 -12 -18 -19 -40 -6 -22 -15 -40 -19 -40 -4 0 -13 -15 -21 -32 -19 -44
-60 -91 -131 -148 -17 -14 -46 -40 -66 -57 -20 -18 -39 -33 -44 -33 -5 0 -21
-13 -37 -30 -15 -16 -31 -30 -35 -30 -14 0 -45 -36 -59 -68 -8 -18 -17 -32
-21 -32 -5 0 -8 878 -8 1950 l0 1950 1503 -1 c911 0 1493 -4 1479 -9z m88 6
c0 -2 -7 -6 -15 -10 -8 -3 -15 -1 -15 4 0 6 7 10 15 10 8 0 15 -2 15 -4z m160
-6 c0 -5 -2 -10 -4 -10 -3 0 -8 5 -11 10 -3 6 -1 10 4 10 6 0 11 -4 11 -10z
m4390 -1494 l0 -1503 -46 -6 c-28 -3 -53 -13 -65 -26 -11 -11 -23 -21 -28 -21
-4 0 -26 -18 -49 -39 -23 -22 -50 -42 -62 -46 -11 -3 -20 -11 -20 -16 0 -5
-12 -9 -26 -9 -23 0 -104 65 -104 84 0 4 -9 26 -19 49 -10 23 -22 74 -26 112
-4 39 -11 72 -15 75 -12 7 -30 334 -30 525 0 103 -4 165 -10 165 -6 0 -10 48
-10 123 -1 128 -14 267 -28 276 -4 3 -14 25 -21 48 -8 23 -20 44 -27 47 -8 3
-14 11 -14 17 0 15 -79 93 -102 102 -10 3 -18 10 -18 15 0 5 -18 15 -40 22
-22 7 -40 16 -40 20 0 9 -71 30 -104 30 -14 0 -26 5 -26 10 0 6 -57 10 -150
10 -93 0 -150 -4 -150 -10 0 -5 -13 -10 -28 -10 -40 0 -142 -21 -142 -30 0 -4
-25 -13 -55 -20 -30 -7 -55 -17 -55 -21 0 -5 -20 -14 -45 -20 -25 -6 -45 -15
-45 -20 0 -4 -18 -14 -40 -20 -22 -7 -40 -16 -40 -21 0 -5 -13 -14 -30 -19
-16 -6 -30 -14 -30 -19 0 -4 -13 -13 -30 -20 -16 -7 -30 -16 -30 -20 0 -4 -13
-13 -30 -20 -16 -7 -30 -16 -30 -20 0 -4 -14 -13 -30 -20 -17 -7 -35 -21 -41
-31 -5 -11 -15 -19 -21 -19 -6 0 -25 -15 -42 -32 -17 -18 -43 -39 -58 -47 -16
-8 -28 -17 -28 -21 0 -4 -49 -57 -110 -117 -60 -61 -110 -114 -110 -118 0 -4
-16 -22 -35 -41 -19 -18 -35 -37 -35 -43 0 -6 -9 -16 -20 -23 -11 -7 -20 -17
-20 -23 0 -5 -11 -23 -25 -39 -13 -16 -27 -36 -30 -46 -3 -10 -12 -21 -19 -23
-8 -3 -17 -19 -21 -36 -4 -17 -11 -31 -16 -31 -6 0 -15 -13 -20 -30 -6 -16
-14 -30 -18 -30 -4 0 -13 -18 -20 -40 -6 -22 -16 -40 -20 -40 -5 0 -14 -21
-22 -47 -7 -27 -18 -54 -25 -61 -7 -7 -16 -34 -20 -60 -4 -26 -10 -49 -15 -52
-13 -9 -29 -156 -29 -266 0 -97 -1 -104 -20 -104 -11 0 -20 5 -20 10 0 13 -37
13 -42 0 -1 -5 -35 -15 -74 -22 -98 -16 -159 -4 -182 37 -9 16 -22 35 -29 42
-20 22 -26 156 -13 302 7 78 16 141 20 141 4 0 13 51 20 113 7 61 17 114 21
117 4 3 13 48 20 100 7 52 15 97 19 100 8 6 30 181 30 239 0 23 5 41 10 41 6
0 10 40 10 100 0 60 -4 100 -10 100 -5 0 -10 13 -10 29 0 41 -22 131 -32 131
-4 0 -8 7 -8 15 0 30 -71 95 -117 108 -23 6 -43 15 -43 19 0 4 -27 8 -60 8
-33 0 -60 -3 -60 -8 0 -4 -35 -13 -77 -20 -42 -6 -79 -16 -82 -21 -3 -4 -30
-14 -58 -21 -29 -8 -53 -17 -53 -21 0 -5 -18 -14 -40 -20 -22 -7 -40 -15 -40
-19 0 -4 -13 -13 -30 -20 -16 -7 -30 -15 -30 -19 0 -3 -15 -13 -32 -21 -33
-14 -43 -21 -77 -50 -9 -8 -30 -22 -46 -30 -15 -8 -46 -32 -67 -52 -33 -32
-38 -42 -38 -81 0 -50 9 -57 66 -57 19 0 34 -3 35 -7 13 -127 15 -239 6 -533
-6 -195 -14 -356 -19 -358 -12 -5 -10 -402 2 -402 6 0 10 -19 10 -43 0 -54 20
-157 31 -157 4 0 10 -18 14 -41 4 -22 13 -43 20 -45 7 -3 16 -16 19 -29 7 -28
38 -61 99 -105 32 -23 59 -33 100 -37 32 -3 57 -10 57 -14 0 -12 67 -11 75 1
3 6 22 10 42 10 46 0 138 24 188 50 21 11 45 20 52 20 7 0 13 4 13 9 0 5 14
14 30 20 17 5 30 14 30 18 0 5 16 15 35 22 19 7 35 16 35 20 0 5 14 14 30 21
17 7 30 16 30 20 0 4 14 13 30 20 17 7 30 16 30 20 0 4 14 13 30 20 17 7 30
16 30 20 0 3 12 13 27 21 15 8 44 32 65 54 l38 39 6 -32 c4 -17 10 -32 13 -32
4 0 13 -22 20 -50 7 -27 17 -50 21 -50 5 0 12 -9 15 -20 4 -12 33 -48 66 -82
64 -66 147 -113 216 -124 24 -3 43 -10 43 -15 0 -5 54 -9 120 -9 73 0 120 4
120 10 0 6 10 10 23 10 31 0 129 27 136 38 3 4 22 14 41 22 19 8 39 20 43 27
4 7 14 13 22 13 8 0 18 6 22 13 4 6 21 19 38 27 27 14 265 245 265 257 0 5 36
50 75 96 8 9 15 22 15 27 0 6 7 13 15 16 8 4 15 12 15 20 0 7 8 19 18 26 10 7
26 29 35 49 9 20 24 39 32 43 8 3 15 13 15 21 0 9 5 13 10 10 6 -3 10 -15 10
-26 0 -10 4 -27 9 -37 6 -9 17 -64 27 -122 9 -58 19 -107 24 -110 4 -3 10 -26
14 -52 4 -26 14 -54 22 -62 8 -8 14 -21 14 -29 0 -18 59 -131 71 -135 5 -2 9
-9 9 -15 0 -7 14 -25 30 -41 17 -16 30 -35 30 -42 0 -6 14 -17 30 -23 17 -5
30 -15 30 -21 0 -6 11 -15 25 -20 14 -5 25 -14 25 -19 0 -6 27 -16 60 -23 33
-6 60 -16 60 -20 0 -4 32 -8 70 -8 39 0 70 4 70 8 0 5 29 14 65 21 36 7 65 16
65 20 0 3 15 13 33 21 34 15 45 22 83 58 14 12 28 22 32 22 4 0 28 23 52 50
25 28 61 68 81 89 19 21 41 52 48 70 8 17 17 31 22 31 5 0 14 11 19 25 5 14
14 25 20 25 5 0 10 7 10 15 0 7 6 18 13 22 7 4 21 27 31 51 11 23 23 42 28 42
4 0 8 -232 8 -515 l0 -515 -3597 1 c-2414 1 -3586 4 -3563 11 19 5 38 16 42
23 4 7 19 16 33 19 14 4 33 13 43 22 50 44 172 167 172 173 0 4 18 26 39 49
22 23 42 55 46 72 4 16 10 30 15 30 4 0 13 14 20 30 7 17 16 30 20 30 4 0 12
18 19 40 6 22 16 40 20 40 5 0 12 16 15 35 4 19 13 40 20 48 8 7 19 39 26 70
7 31 16 57 20 57 4 0 13 27 20 60 7 33 16 60 19 60 8 0 31 126 31 165 0 14 4
25 9 25 4 0 14 50 21 110 8 61 16 110 20 110 4 0 13 93 20 207 7 115 16 210
20 213 3 3 11 63 17 134 7 71 16 132 21 135 4 3 12 15 16 26 7 18 9 17 36 -14
16 -18 32 -41 35 -52 4 -10 10 -19 15 -19 5 0 11 -8 15 -19 3 -10 17 -31 30
-47 14 -16 25 -35 25 -41 0 -7 4 -13 10 -13 5 0 17 -17 26 -37 10 -21 24 -42
31 -46 7 -4 13 -15 13 -22 0 -8 4 -15 8 -15 5 0 24 -24 42 -52 19 -29 40 -57
47 -61 7 -4 13 -15 13 -23 0 -8 7 -17 15 -20 8 -4 23 -22 32 -42 10 -20 23
-43 31 -52 38 -43 62 -76 62 -86 0 -7 7 -14 15 -18 8 -3 15 -11 15 -17 0 -6
10 -22 23 -33 12 -12 29 -33 37 -46 8 -13 23 -31 32 -41 9 -10 22 -28 29 -41
7 -13 20 -29 31 -36 10 -7 18 -18 18 -23 0 -6 16 -25 35 -43 19 -19 35 -37 35
-41 0 -5 18 -26 40 -47 22 -22 40 -43 40 -47 0 -11 139 -151 150 -151 5 0 15
-9 22 -19 8 -11 26 -25 41 -32 15 -7 27 -15 27 -19 0 -4 14 -13 30 -20 17 -7
30 -16 30 -20 0 -5 23 -14 50 -21 28 -7 50 -16 50 -20 0 -4 30 -12 66 -19 91
-17 188 -9 245 22 48 26 89 62 89 78 0 5 6 13 13 17 16 10 37 49 37 68 0 8 4
15 9 15 5 0 14 20 20 45 6 25 15 45 19 45 5 0 14 36 21 80 8 44 17 80 20 80 4
0 13 37 20 83 7 45 16 87 21 92 5 6 16 58 26 118 9 59 20 107 24 107 4 0 13
37 20 82 7 46 17 85 21 88 4 3 13 39 20 80 6 41 14 77 18 80 4 3 13 38 20 78
7 39 16 72 21 72 4 0 13 36 21 80 7 44 16 80 20 80 3 0 12 36 20 80 7 44 16
80 20 80 3 0 12 36 20 80 7 44 16 80 19 80 4 0 13 34 20 75 7 41 16 75 20 75
4 0 13 43 21 95 7 52 16 95 19 95 4 0 13 45 20 100 7 55 16 100 20 100 7 0 30
203 30 263 0 19 5 37 12 39 17 6 18 570 0 576 -6 2 -12 16 -12 31 0 40 -22
141 -30 141 -4 0 -13 21 -19 46 -12 47 -20 61 -58 96 -13 12 -23 27 -23 34 0
7 -9 16 -20 19 -11 3 -20 11 -20 16 0 5 -10 14 -22 19 -14 5 846 9 2155 9
l2177 1 0 -1504z m-4429 1472 c19 -6 36 -14 39 -17 3 -3 18 -13 34 -21 16 -8
31 -21 34 -30 3 -8 18 -26 32 -40 15 -14 33 -41 39 -60 7 -19 19 -46 26 -60 7
-14 16 -43 20 -65 4 -22 11 -45 16 -50 19 -25 29 -296 18 -488 -6 -105 -14
-194 -18 -197 -4 -3 -13 -59 -20 -125 -7 -66 -16 -122 -20 -125 -4 -3 -14 -48
-21 -100 -7 -52 -16 -97 -20 -100 -3 -3 -12 -41 -19 -85 -7 -44 -16 -82 -20
-85 -4 -3 -14 -40 -21 -82 -7 -43 -16 -78 -20 -78 -3 0 -12 -36 -19 -80 -8
-44 -16 -80 -20 -80 -4 0 -13 -35 -20 -78 -7 -42 -16 -81 -21 -87 -4 -5 -12
-39 -19 -74 -6 -36 -15 -67 -19 -70 -5 -3 -15 -37 -21 -76 -7 -38 -19 -89 -27
-113 -8 -24 -19 -75 -24 -113 -6 -38 -14 -77 -20 -87 -5 -9 -16 -51 -24 -92
-13 -69 -26 -125 -76 -330 -40 -164 -51 -205 -58 -210 -4 -3 -14 -25 -21 -50
-33 -115 -97 -186 -191 -214 -36 -11 -72 -16 -88 -12 -15 4 -43 10 -62 15 -58
13 -175 73 -255 131 -53 39 -185 168 -185 181 0 4 -17 25 -39 46 -21 22 -41
48 -45 59 -3 12 -18 26 -31 32 -14 7 -25 20 -25 31 0 10 -6 21 -14 24 -17 7
-106 121 -106 137 0 7 -11 21 -25 32 -14 11 -25 26 -25 34 0 8 -7 17 -15 20
-8 4 -15 14 -15 24 0 10 -9 22 -20 25 -11 3 -20 14 -20 23 0 10 -9 23 -20 30
-11 7 -20 18 -20 26 0 8 -7 16 -15 20 -8 3 -15 12 -15 21 0 8 -4 15 -8 15 -5
0 -15 12 -23 28 -8 15 -22 33 -31 40 -10 7 -18 20 -18 28 0 8 -4 14 -10 14 -5
0 -10 8 -10 18 0 9 -9 23 -20 30 -11 7 -20 17 -20 23 0 6 -6 16 -12 23 -7 8
-20 24 -28 36 -8 12 -21 28 -27 36 -7 7 -13 19 -13 27 0 8 -7 17 -15 21 -8 3
-15 12 -15 20 0 7 -7 16 -15 20 -8 3 -15 12 -15 21 0 8 -4 15 -10 15 -5 0 -10
7 -10 15 0 8 -8 23 -17 33 -10 10 -28 31 -40 45 -17 20 -32 27 -57 27 -52 0
-65 -9 -72 -48 -4 -21 -10 -39 -14 -42 -4 -3 -14 -86 -21 -185 -7 -99 -15
-182 -19 -185 -3 -3 -12 -81 -18 -174 -9 -128 -10 -172 -1 -180 9 -8 10 0 6
32 -3 23 -2 40 3 37 4 -2 5 6 3 18 -2 12 1 33 7 47 8 19 9 4 4 -65 -3 -49 -8
-92 -11 -95 -2 -3 -11 4 -19 14 -7 11 -15 18 -17 15 -2 -2 -10 -51 -17 -109
-7 -58 -16 -109 -20 -115 -4 -5 -13 -40 -20 -78 -7 -37 -16 -67 -20 -67 -4 0
-13 -27 -20 -60 -7 -33 -16 -60 -20 -60 -4 0 -12 -25 -19 -55 -7 -30 -17 -55
-22 -55 -5 0 -14 -20 -20 -45 -6 -25 -15 -45 -19 -45 -4 0 -13 -18 -20 -40 -8
-23 -19 -44 -25 -48 -6 -4 -17 -23 -25 -42 -8 -19 -20 -39 -27 -43 -7 -4 -13
-13 -13 -20 0 -7 -11 -24 -25 -39 -14 -15 -25 -30 -25 -34 0 -12 -144 -154
-156 -154 -7 0 -14 -6 -17 -14 -3 -7 -17 -16 -31 -20 -15 -4 -35 -15 -46 -26
-11 -11 -31 -20 -45 -20 -14 0 -25 -4 -25 -9 0 -11 -102 -31 -159 -31 -51 0
-129 21 -139 36 -4 6 -15 13 -25 17 -9 4 -20 15 -24 24 -4 10 -11 21 -17 25
-18 12 -10 72 18 133 16 33 32 62 36 65 4 3 12 15 19 28 6 12 17 22 24 22 7 0
25 16 42 35 16 19 35 35 42 35 6 0 20 11 31 25 11 14 26 25 34 25 8 0 24 14
37 31 12 16 33 34 47 39 13 5 29 21 34 35 5 14 14 25 20 25 6 0 15 11 20 25 5
14 14 25 19 25 5 0 12 13 16 30 4 16 11 30 16 30 5 0 14 20 21 45 7 25 15 45
19 45 4 0 13 26 20 58 7 31 16 59 20 62 5 3 14 48 20 100 7 52 16 97 20 100
12 8 29 310 29 504 0 207 -19 609 -29 616 -4 3 -13 79 -20 170 -7 91 -17 167
-21 170 -5 3 -14 89 -20 192 -13 202 -4 360 25 414 8 16 18 44 21 62 3 17 10
32 14 32 4 0 13 18 20 41 8 23 19 43 26 46 7 3 16 17 19 33 3 15 19 39 34 52
16 12 31 33 35 45 4 12 16 25 27 28 11 4 33 20 48 36 16 16 33 29 39 29 6 0
12 4 14 8 2 5 37 25 79 45 101 49 221 64 336 42 43 -8 79 -19 81 -25 2 -5 10
-10 18 -10 18 0 57 -21 67 -37 4 -7 13 -13 19 -13 17 0 88 -76 88 -94 0 -9 7
-16 15 -16 8 0 15 -9 15 -19 0 -11 6 -26 13 -33 8 -7 20 -30 26 -51 7 -20 17
-37 22 -37 5 0 9 -7 9 -15 0 -8 14 -44 30 -80 17 -36 30 -74 30 -85 0 -11 3
-20 8 -20 8 0 32 -49 32 -67 0 -7 4 -13 9 -13 5 0 12 -18 16 -40 4 -22 15 -50
26 -64 10 -13 19 -29 19 -36 0 -6 11 -36 25 -66 14 -30 25 -59 25 -64 0 -6 9
-27 20 -47 11 -21 20 -45 20 -53 0 -9 5 -21 11 -27 11 -11 52 -120 68 -180 5
-18 16 -39 25 -48 9 -9 16 -24 16 -33 0 -9 12 -39 25 -67 14 -27 25 -58 25
-67 0 -10 4 -18 10 -18 5 0 15 -18 21 -40 7 -22 15 -40 19 -40 4 0 13 -20 19
-45 6 -25 20 -54 31 -65 11 -11 20 -30 20 -43 0 -12 9 -30 20 -40 11 -9 20
-26 20 -37 0 -11 7 -20 15 -20 8 0 15 -4 15 -9 0 -5 6 -16 13 -23 28 -31 77
-107 77 -122 0 -9 4 -16 8 -16 13 0 112 -97 112 -109 0 -6 9 -11 20 -11 11 0
20 -6 20 -14 0 -18 109 -31 166 -21 85 14 104 67 104 293 0 158 -17 414 -30
447 -9 22 -30 218 -30 278 0 20 -4 37 -8 37 -9 0 -32 261 -32 353 0 26 -4 47
-10 47 -6 0 -10 65 -10 174 0 106 4 177 10 181 6 3 10 25 10 48 0 52 21 200
30 207 4 3 13 33 20 68 7 34 16 62 20 62 4 0 11 12 14 28 9 37 39 102 49 102
4 0 7 7 7 15 0 9 7 18 15 21 8 4 15 14 15 24 0 10 9 22 20 25 11 3 20 13 20
21 0 18 31 54 47 54 6 0 18 8 25 19 7 10 24 22 38 26 14 4 28 12 31 18 6 9 60
23 100 26 9 0 31 -4 50 -11z m-221 -23 c-7 -9 -15 -13 -17 -11 -7 7 7 26 19
26 6 0 6 -6 -2 -15z m356 -10 c13 -13 13 -15 1 -15 -8 0 -17 7 -21 15 -3 8 -3
15 0 15 3 0 12 -7 20 -15z m-396 -20 c0 -9 -52 -56 -58 -51 -6 7 37 56 50 56
4 0 8 -2 8 -5z m460 -56 c0 -14 -17 -10 -23 5 -4 10 -1 13 9 9 7 -3 14 -9 14
-14z m-540 -34 c-7 -9 -15 -13 -18 -10 -3 2 1 11 8 20 7 9 15 13 18 10 3 -2
-1 -11 -8 -20z m550 5 c0 -5 -2 -10 -4 -10 -3 0 -8 5 -11 10 -3 6 -1 10 4 10
6 0 11 -4 11 -10z m17 -26 c-3 -3 -12 -4 -19 -1 -8 3 -5 6 6 6 11 1 17 -2 13
-5z m-604 -34 c-3 -11 -10 -20 -15 -20 -5 0 -6 -4 -3 -10 3 -5 2 -10 -4 -10
-17 0 -22 18 -6 24 8 3 15 12 15 21 0 8 4 15 9 15 5 0 7 -9 4 -20z m614 -6
c-3 -3 -12 -4 -19 -1 -8 3 -5 6 6 6 11 1 17 -2 13 -5z m13 -29 c0 -8 -2 -15
-4 -15 -2 0 -6 7 -10 15 -3 8 -1 15 4 15 6 0 10 -7 10 -15z m-670 -30 c-6 -8
-9 -19 -5 -25 3 -5 1 -10 -4 -10 -6 0 -11 4 -11 9 0 18 12 41 22 41 6 0 5 -6
-2 -15z m680 -11 c0 -8 -5 -12 -10 -9 -6 4 -8 11 -5 16 9 14 15 11 15 -7z m19
-76 c0 -18 -3 -26 -6 -18 -3 8 -10 23 -15 33 -6 12 -5 17 7 17 10 0 15 -10 14
-32z m-734 -10 c-4 -13 -12 -27 -18 -33 -7 -7 -8 -4 -3 8 3 10 6 25 6 33 0 8
5 14 11 14 6 0 8 -9 4 -22z m744 -80 l-2 -53 -7 45 c-7 42 -5 60 6 60 2 0 3
-24 3 -52z m-764 12 c3 -5 1 -10 -4 -10 -6 0 -11 5 -11 10 0 6 2 10 4 10 3 0
8 -4 11 -10z m-1475 -12 c0 -9 -17 -13 -55 -13 -33 0 -55 4 -55 11 0 6 23 12
55 13 39 1 55 -2 55 -11z m-150 -12 c0 -9 -40 -13 -46 -5 -3 5 6 9 20 9 14 0
26 -2 26 -4z m215 -6 c-3 -5 -12 -7 -20 -3 -21 7 -19 13 6 13 11 0 18 -4 14
-10z m-275 -4 c0 -2 -9 -6 -20 -9 -11 -3 -20 -1 -20 4 0 5 9 9 20 9 11 0 20
-2 20 -4z m330 -6 c0 -5 -7 -7 -15 -4 -8 4 -15 8 -15 10 0 2 7 4 15 4 8 0 15
-4 15 -10z m-390 -9 c0 -6 -4 -13 -10 -16 -5 -3 -10 1 -10 9 0 9 5 16 10 16 6
0 10 -4 10 -9z m415 0 c3 -5 2 -12 -3 -15 -5 -3 -9 1 -9 9 0 17 3 19 12 6z
m1309 -18 c-10 -40 -14 -41 -14 -5 0 18 5 32 10 32 6 0 8 -11 4 -27z m-1259
-9 c1 -5 0 -6 -3 -1 -2 4 -8 5 -13 1 -5 -3 -9 0 -9 6 0 14 23 8 25 -6z m-525
2 c0 -3 -4 -8 -10 -11 -5 -3 -10 -1 -10 4 0 6 5 11 10 11 6 0 10 -2 10 -4z
m-33 -28 c-3 -8 -6 -5 -6 6 -1 11 2 17 5 13 3 -3 4 -12 1 -19z m603 -10 c0 -5
-7 -3 -15 6 -8 8 -15 18 -15 22 0 3 7 1 15 -6 8 -7 15 -17 15 -22z m-620 3 c0
-5 -7 -11 -15 -15 -15 -5 -20 5 -8 17 9 10 23 9 23 -2z m729 -88 c2 -2 -2 -3
-10 -2 -8 0 -32 22 -54 47 l-39 47 49 -45 c27 -25 52 -46 54 -47z m1095 72
c-4 -8 -8 -15 -10 -15 -2 0 -4 7 -4 15 0 8 4 15 10 15 5 0 7 -7 4 -15z m-1874
-16 c-7 -11 -14 -19 -16 -16 -7 7 7 37 17 37 6 0 5 -9 -1 -21z m2670 -183 c-7
-7 -10 21 -10 90 0 131 14 145 18 18 2 -58 -1 -101 -8 -108z m-2730 137 c0
-12 -33 -43 -46 -43 -9 0 -7 8 8 25 21 24 38 32 38 18z m1930 -5 c0 -7 -4 -19
-9 -26 -6 -10 -10 -7 -13 12 -4 18 -1 26 8 26 8 0 14 -6 14 -12z m-1070 -49
c0 -5 -4 -9 -10 -9 -5 0 -10 7 -10 16 0 8 5 12 10 9 6 -3 10 -10 10 -16z m17
-25 c-3 -3 -12 -4 -19 -1 -8 3 -5 6 6 6 11 1 17 -2 13 -5z m-970 -29 c-13 -28
-30 -34 -20 -7 5 14 21 31 30 32 0 0 -4 -11 -10 -25z m983 5 c0 -5 -4 -10 -10
-10 -5 0 -10 5 -10 10 0 6 5 10 10 10 6 0 10 -4 10 -10z m1018 -52 c-6 -25 -8
-110 -4 -205 3 -102 2 -163 -4 -163 -6 0 -10 80 -10 205 0 169 2 205 14 205
11 0 12 -8 4 -42z m-1008 22 c0 -5 -2 -10 -4 -10 -3 0 -8 5 -11 10 -3 6 -1 10
4 10 6 0 11 -4 11 -10z m17 -26 c-3 -3 -12 -4 -19 -1 -8 3 -5 6 6 6 11 1 17
-2 13 -5z m-1054 -24 c-10 -11 -18 -20 -19 -20 -1 0 0 9 3 20 3 11 12 20 19
20 11 0 10 -5 -3 -20z m1067 -6 c0 -8 -4 -12 -10 -9 -5 3 -10 10 -10 16 0 5 5
9 10 9 6 0 10 -7 10 -16z m1796 -132 c-13 -12 -16 8 -9 69 l8 64 3 -64 c2 -35
1 -66 -2 -69z m-2881 98 c3 -5 2 -10 -4 -10 -5 0 -13 5 -16 10 -3 6 -2 10 4
10 5 0 13 -4 16 -10z m1095 0 c0 -5 -2 -10 -4 -10 -3 0 -8 5 -11 10 -3 6 -1
10 4 10 6 0 11 -4 11 -10z m-1118 -45 c-2 -14 -8 -28 -13 -30 -4 -3 -6 -12 -2
-20 3 -8 1 -15 -4 -15 -19 0 -22 13 -8 34 8 11 15 28 15 38 0 10 4 18 9 18 4
0 6 -11 3 -25z m1133 15 c-3 -5 -11 -10 -16 -10 -6 0 -7 5 -4 10 3 6 11 10 16
10 6 0 7 -4 4 -10z m15 -30 c0 -5 -2 -10 -4 -10 -3 0 -8 5 -11 10 -3 6 -1 10
4 10 6 0 11 -4 11 -10z m20 -60 c0 -5 -5 -10 -11 -10 -5 0 -7 5 -4 10 3 6 8
10 11 10 2 0 4 -4 4 -10z m1730 -45 c0 -44 -3 -55 -16 -55 -11 0 -14 5 -9 18
4 9 9 34 12 55 8 53 13 46 13 -18z m-2927 26 c-6 -3 -13 -13 -16 -21 -4 -11
-6 -9 -6 6 -1 24 8 36 21 27 7 -3 7 -8 1 -12z m1217 -21 c0 -5 -2 -10 -4 -10
-3 0 -8 5 -11 10 -3 6 -1 10 4 10 6 0 11 -4 11 -10z m-1231 -37 c-1 -10 -5
-29 -9 -43 -7 -21 -8 -19 -9 18 -1 23 4 42 9 42 6 0 10 -8 9 -17z m1246 -23
c-3 -6 1 -10 9 -10 9 0 16 -7 16 -15 0 -14 -29 -11 -31 4 -1 3 -3 20 -5 36 -2
24 -1 27 7 12 6 -9 7 -22 4 -27z m1673 -89 c-15 -5 -18 3 -11 29 l7 25 6 -25
c3 -14 2 -27 -2 -29z m-1638 24 c0 -8 -2 -15 -4 -15 -2 0 -6 7 -10 15 -3 8 -1
15 4 15 6 0 10 -7 10 -15z m-1290 -110 c0 -85 -3 -115 -12 -115 -10 0 -12 28
-11 112 1 62 2 114 3 116 0 1 5 2 10 2 6 0 10 -45 10 -115z m2920 13 c0 -23
-3 -29 -11 -21 -6 6 -8 20 -4 32 9 30 15 26 15 -11z m-1590 7 c0 -8 -4 -15 -8
-15 -5 0 -9 7 -9 15 0 8 4 15 9 15 4 0 8 -7 8 -15z m829 -62 c1 -13 -3 -23 -9
-23 -5 0 -10 19 -9 43 0 32 2 37 9 22 5 -11 9 -30 9 -42z m747 -31 c-11 -10
-15 4 -8 28 l7 25 3 -23 c2 -13 1 -26 -2 -30z m-1546 28 c0 -5 -4 -10 -10 -10
-5 0 -10 5 -10 10 0 6 5 10 10 10 6 0 10 -4 10 -10z m10 -40 c0 -5 -2 -10 -4
-10 -3 0 -8 5 -11 10 -3 6 -1 10 4 10 6 0 11 -4 11 -10z m10 -30 c0 -5 -4 -10
-10 -10 -5 0 -10 5 -10 10 0 6 5 10 10 10 6 0 10 -4 10 -10z m789 -57 c1 -13
-3 -23 -9 -23 -5 0 -10 19 -9 43 0 32 2 37 9 22 5 -11 9 -30 9 -42z m717 30
c-10 -10 -19 5 -10 18 6 11 8 11 12 0 2 -7 1 -15 -2 -18z m-2877 -110 c0 -18
-3 -33 -9 -33 -6 0 -9 27 -9 63 1 49 3 56 9 32 4 -16 8 -45 9 -62z m1401 72
c0 -8 -2 -15 -4 -15 -2 0 -6 7 -10 15 -3 8 -1 15 4 15 6 0 10 -7 10 -15z
m1466 -22 c-10 -10 -19 5 -10 18 6 11 8 11 12 0 2 -7 1 -15 -2 -18z m1059 -3
c4 -6 -21 -10 -71 -9 -55 1 -79 -3 -85 -12 -7 -11 -9 -10 -9 3 0 11 10 18 33
21 66 8 126 7 132 -3z m2024 6 c-11 -9 -69 -14 -69 -6 0 6 17 10 37 10 20 0
34 -2 32 -4z m191 -6 c0 -11 -14 -11 -50 0 -22 7 -21 8 13 9 20 1 37 -3 37 -9z
m-3976 -52 c5 -32 4 -48 -3 -48 -7 0 -11 22 -11 52 0 62 5 60 14 -4z m1796 42
c0 -5 -2 -10 -4 -10 -3 0 -8 5 -11 10 -3 6 -1 10 4 10 6 0 11 -4 11 -10z
m1909 6 c-11 -9 -69 -14 -69 -6 0 6 17 10 37 10 20 0 34 -2 32 -4z m341 -12
c0 -12 -3 -14 -12 -6 -7 5 -22 12 -33 15 -13 3 -9 5 13 6 23 1 32 -3 32 -15z
m-2489 -17 c-13 -13 -26 -3 -16 12 3 6 11 8 17 5 6 -4 6 -10 -1 -17z m2044 14
c3 -5 1 -12 -5 -16 -5 -3 -10 1 -10 9 0 18 6 21 15 7z m481 -18 c-10 -10 -19
5 -10 18 6 11 8 11 12 0 2 -7 1 -15 -2 -18z m-3386 -8 c0 -15 -6 -25 -14 -25
-11 0 -12 5 -3 25 15 31 17 31 17 0z m1069 7 c3 -5 22 -14 42 -21 22 -7 41
-22 50 -39 7 -15 18 -34 25 -42 6 -8 15 -33 19 -55 4 -22 12 -46 18 -54 15
-17 14 -300 0 -310 -5 -3 -15 -53 -22 -111 -7 -58 -16 -107 -20 -110 -4 -3
-13 -50 -20 -105 -8 -55 -17 -104 -21 -110 -4 -5 -13 -57 -20 -115 -6 -58 -17
-116 -23 -129 -16 -33 -17 -409 -1 -419 6 -4 15 -17 18 -30 4 -12 20 -35 34
-50 27 -27 29 -27 156 -27 95 0 130 3 134 13 3 11 52 18 52 7 0 -9 -80 -85
-89 -85 -6 0 -15 -9 -21 -20 -6 -11 -17 -20 -25 -20 -8 0 -18 -6 -22 -13 -4
-7 -25 -21 -45 -31 -21 -9 -38 -21 -38 -26 0 -6 -5 -10 -12 -10 -6 0 -19 -6
-27 -14 -20 -18 -101 -65 -123 -73 -10 -3 -18 -9 -18 -14 0 -4 -18 -14 -40
-20 -22 -7 -40 -16 -40 -20 0 -5 -19 -13 -42 -19 -24 -6 -57 -18 -75 -26 -44
-20 -173 -18 -223 3 -22 10 -40 21 -40 25 0 5 -6 8 -12 8 -17 0 -78 57 -78 73
0 7 -9 23 -20 37 -11 14 -20 35 -20 48 0 12 -4 22 -9 22 -4 0 -14 28 -21 63
-7 34 -18 65 -24 69 -15 10 -12 688 4 698 16 10 19 645 3 661 -7 7 -13 21 -13
31 0 15 -8 18 -45 18 -25 0 -45 4 -45 9 0 15 57 71 73 71 8 0 17 7 21 15 3 8
12 15 20 15 8 0 21 9 28 19 8 11 26 23 42 27 15 3 30 12 33 20 2 7 18 16 35
19 16 4 32 13 35 21 3 8 23 19 44 25 21 7 39 16 39 20 0 5 20 14 45 20 25 6
45 15 45 19 0 4 29 14 65 21 36 7 65 16 65 20 0 18 137 19 149 1z m2249 0 c2
-7 12 -12 22 -12 23 0 70 -20 88 -37 7 -7 20 -13 28 -13 8 0 17 -7 20 -15 4
-8 12 -15 19 -15 8 0 31 -18 52 -39 55 -57 63 -68 63 -86 0 -8 4 -15 9 -15 11
0 41 -118 41 -159 0 -16 4 -32 9 -35 4 -3 11 -119 15 -258 11 -436 18 -598 27
-598 5 0 9 7 9 15 0 8 7 15 15 15 11 0 15 -11 15 -39 0 -21 3 -60 6 -87 4 -38
3 -45 -6 -32 -6 10 -10 24 -9 30 1 7 1 35 0 61 -1 56 -21 56 -21 0 0 -56 23
-213 31 -213 4 0 10 -18 14 -40 5 -28 20 -54 49 -86 36 -38 48 -45 72 -41 27
4 28 5 7 12 -13 4 -23 12 -23 17 0 5 -4 7 -9 3 -5 -3 -19 8 -31 25 -28 39 -12
39 25 0 22 -23 37 -30 68 -30 34 0 38 -2 27 -15 -11 -13 -8 -15 14 -15 39 0
82 26 129 78 11 12 27 22 34 22 7 0 18 9 25 20 13 21 58 28 58 9 0 -6 -8 -23
-18 -37 -10 -15 -22 -34 -26 -42 -22 -48 -109 -180 -118 -180 -4 0 -8 -6 -8
-14 0 -7 -22 -38 -50 -67 -27 -29 -50 -56 -50 -59 0 -19 -134 -134 -174 -150
-14 -5 -26 -14 -26 -19 0 -5 -24 -15 -52 -21 -29 -7 -56 -18 -60 -24 -9 -13
-147 -13 -156 0 -4 6 -20 14 -37 18 -16 4 -47 20 -67 37 -20 16 -42 29 -47 29
-6 0 -11 4 -11 10 0 5 -20 32 -45 60 -25 28 -45 57 -45 64 0 8 -6 16 -14 19
-7 3 -17 18 -20 34 -4 15 -13 35 -20 43 -7 8 -19 35 -26 60 -7 25 -16 50 -19
55 -10 16 -90 372 -91 398 0 5 -15 7 -32 5 -25 -2 -36 -10 -48 -34 -8 -17 -30
-49 -47 -71 -18 -23 -33 -46 -33 -52 0 -6 -9 -16 -20 -23 -11 -7 -20 -19 -20
-26 0 -7 -7 -15 -15 -18 -8 -4 -15 -12 -15 -19 0 -6 -10 -24 -22 -38 -13 -14
-34 -40 -48 -57 -48 -62 -245 -260 -258 -260 -7 0 -15 -6 -18 -13 -3 -8 -20
-20 -39 -27 -19 -8 -35 -17 -35 -21 0 -8 -71 -44 -163 -84 -52 -23 -190 -31
-271 -15 -36 7 -66 16 -66 20 0 4 -18 13 -40 20 -22 7 -40 17 -40 22 0 4 -6 8
-12 8 -7 0 -32 20 -56 45 -24 25 -47 45 -52 45 -6 0 -10 9 -10 19 0 10 -6 21
-13 24 -7 3 -19 23 -26 46 -6 23 -16 41 -20 41 -5 0 -14 28 -21 63 -7 34 -17
66 -21 71 -13 14 -11 226 1 226 6 0 10 16 10 35 0 40 19 135 30 150 4 6 10 23
14 39 10 40 58 146 66 146 4 0 13 20 20 43 6 24 25 59 41 78 16 19 29 40 29
47 0 6 5 12 10 12 6 0 10 9 10 20 0 11 5 20 10 20 6 0 15 11 20 25 5 14 14 25
20 25 6 0 16 14 21 30 6 17 17 30 25 30 8 0 14 8 14 17 0 9 13 31 29 47 16 17
60 63 98 102 37 40 77 83 89 95 35 41 103 99 113 99 6 0 20 14 33 30 12 17 27
30 33 30 7 0 31 18 54 40 23 22 50 40 60 40 11 0 21 7 25 15 3 8 12 15 21 15
8 0 15 5 15 10 0 6 7 10 15 10 9 0 18 6 21 14 3 8 16 17 30 20 13 4 33 15 44
26 11 11 27 20 35 20 8 0 15 4 15 8 0 8 58 32 79 32 7 0 19 7 27 15 9 8 26 15
39 15 13 0 30 6 37 14 8 7 41 20 74 27 32 7 61 16 64 20 14 21 351 21 358 1z
m-2491 2 c-3 -3 -12 -4 -19 -1 -8 3 -5 6 6 6 11 1 17 -2 13 -5z m376 -56 c-2
-5 -9 -8 -15 -8 -6 0 -8 3 -5 7 4 4 -5 20 -20 37 l-28 30 36 -29 c20 -17 34
-33 32 -37z m2217 52 c0 -5 -2 -10 -4 -10 -3 0 -8 5 -11 10 -3 6 -1 10 4 10 6
0 11 -4 11 -10z m-2635 -10 c-3 -5 -10 -10 -16 -10 -5 0 -9 5 -9 10 0 6 7 10
16 10 8 0 12 -4 9 -10z m2055 6 c0 -2 -7 -6 -15 -10 -8 -3 -15 -1 -15 4 0 6 7
10 15 10 8 0 15 -2 15 -4z m597 -18 c-3 -8 -6 -5 -6 6 -1 11 2 17 5 13 3 -3 4
-12 1 -19z m-2690 -10 c-3 -8 -6 -5 -6 6 -1 11 2 17 5 13 3 -3 4 -12 1 -19z
m-2167 -4 c0 -8 -4 -12 -10 -9 -5 3 -10 10 -10 16 0 5 5 9 10 9 6 0 10 -7 10
-16z m2140 -4 c0 -5 -4 -10 -10 -10 -5 0 -10 5 -10 10 0 6 5 10 10 10 6 0 10
-4 10 -10z m2036 1 c-8 -12 -46 -21 -46 -11 0 5 8 11 18 13 29 8 33 7 28 -2z
m749 -2 c11 -17 -1 -21 -15 -4 -8 9 -8 15 -2 15 6 0 14 -5 17 -11z m-2815 -3
c0 -3 -4 -8 -10 -11 -5 -3 -10 -1 -10 4 0 6 5 11 10 11 6 0 10 -2 10 -4z
m-3539 -72 c5 -6 6 -14 2 -17 -16 -17 -23 -4 -22 41 2 34 3 39 6 17 3 -16 9
-35 14 -41z m3509 49 c0 -9 -3 -13 -7 -10 -3 4 -12 2 -20 -4 -7 -6 -13 -8 -13
-4 0 7 29 34 38 35 1 0 2 -7 2 -17z m2030 4 c0 -8 -16 -18 -35 -24 -44 -14
-45 -3 -2 18 17 9 33 17 35 18 1 0 2 -5 2 -12z m919 -86 c-7 -2 -16 4 -21 13
-16 28 -55 66 -61 59 -4 -3 -7 2 -7 12 0 15 12 7 50 -30 28 -28 45 -52 39 -54z
m-3629 55 c-14 -14 -22 -2 -14 18 5 14 9 15 15 4 4 -7 4 -17 -1 -22z m-1370 4
c0 -5 -4 -10 -10 -10 -5 0 -10 5 -10 10 0 6 5 10 10 10 6 0 10 -4 10 -10z
m2000 1 c0 -5 -7 -11 -14 -14 -10 -4 -13 -1 -9 9 6 15 23 19 23 5z m617 -23
c-3 -8 -6 -5 -6 6 -1 11 2 17 5 13 3 -3 4 -12 1 -19z m1383 6 c0 -8 -4 -13 -9
-10 -5 4 -11 0 -14 -6 -2 -7 -8 -10 -12 -5 -5 4 0 14 11 22 24 18 24 18 24 -1z
m-3289 -67 c-8 -8 -11 0 -10 29 1 39 1 39 11 11 7 -21 7 -32 -1 -40z m649 42
c0 -11 -4 -18 -10 -14 -5 3 -7 12 -3 20 7 21 13 19 13 -6z m-1350 1 c0 -5 -2
-10 -4 -10 -3 0 -8 5 -11 10 -3 6 -1 10 4 10 6 0 11 -4 11 -10z m1920 1 c0 -5
-7 -12 -16 -15 -14 -5 -15 -4 -4 9 14 17 20 19 20 6z m-1910 -31 c0 -5 -5 -10
-11 -10 -5 0 -7 5 -4 10 3 6 8 10 11 10 2 0 4 -4 4 -10z m1330 -20 c0 -11 -4
-20 -9 -20 -5 0 -7 9 -4 20 3 11 7 20 9 20 2 0 4 -9 4 -20z m514 6 c-3 -8 -14
-16 -26 -19 -19 -5 -19 -5 -2 14 20 22 36 25 28 5z m3164 -4 c6 -18 -15 -14
-22 4 -4 10 -1 14 6 12 6 -2 14 -10 16 -16z m-1158 4 c0 -3 -4 -8 -10 -11 -5
-3 -10 -1 -10 4 0 6 5 11 10 11 6 0 10 -2 10 -4z m-1220 -36 c0 -16 -2 -30 -4
-30 -2 0 -6 14 -8 30 -3 17 -1 30 4 30 4 0 8 -13 8 -30z m-4091 -22 c1 -5 -5
-8 -13 -8 -9 0 -12 8 -8 27 5 25 6 25 13 8 4 -11 8 -23 8 -27z m3251 23 c0 -5
-7 -12 -16 -15 -14 -5 -15 -4 -4 9 14 17 20 19 20 6z m2010 -1 c0 -5 -5 -10
-11 -10 -5 0 -7 5 -4 10 3 6 8 10 11 10 2 0 4 -4 4 -10z m-3770 -10 c0 -5 -4
-10 -10 -10 -5 0 -10 5 -10 10 0 6 5 10 10 10 6 0 10 -4 10 -10z m675 -29 c2
-18 0 -29 -6 -26 -5 4 -9 20 -9 37 0 39 9 32 15 -11z m609 -2 c-3 -5 -10 -7
-15 -3 -5 3 -7 10 -3 15 3 5 10 7 15 3 5 -3 7 -10 3 -15z m426 6 c-7 -8 -18
-15 -24 -15 -6 0 -2 7 8 15 25 19 32 19 16 0z m3300 0 c0 -8 -2 -15 -4 -15 -2
0 -6 7 -10 15 -3 8 -1 15 4 15 6 0 10 -7 10 -15z m-5000 -11 c0 -8 -5 -12 -10
-9 -6 4 -8 11 -5 16 9 14 15 11 15 -7z m2600 -84 c0 -49 -4 -90 -9 -90 -9 0
-15 155 -6 170 13 20 15 8 15 -80z m1090 81 c0 -5 -7 -11 -14 -14 -10 -4 -13
-1 -9 9 6 15 23 19 23 5z m-5189 -84 c-8 -8 -11 0 -10 29 1 39 1 39 11 11 7
-21 7 -32 -1 -40z m1519 59 c0 -3 -4 -8 -10 -11 -5 -3 -10 -1 -10 4 0 6 5 11
10 11 6 0 10 -2 10 -4z m1233 -39 c-3 -20 -9 -37 -14 -37 -5 0 -7 6 -5 13 3 6
7 25 11 41 9 40 16 27 8 -17z m-579 -9 c4 -24 3 -38 -4 -38 -5 0 -10 19 -10
42 0 49 5 47 14 -4z m976 38 c0 -3 -4 -8 -10 -11 -5 -3 -10 -1 -10 4 0 6 5 11
10 11 6 0 10 -2 10 -4z m-1620 -31 c0 -8 -2 -15 -4 -15 -2 0 -6 7 -10 15 -3 8
-1 15 4 15 6 0 10 -7 10 -15z m3590 7 c0 -4 -9 -13 -20 -20 -22 -13 -27 -3 -8
16 14 14 28 16 28 4z m1403 -12 c-3 -11 -7 -20 -8 -20 -1 0 -5 9 -8 20 -3 12
0 20 8 20 8 0 11 -8 8 -20z m-3372 -37 c13 -16 12 -17 -3 -4 -17 13 -22 21
-14 21 2 0 10 -8 17 -17z m-3127 -102 c4 -6 0 -11 -8 -11 -13 0 -16 12 -15 63
l1 62 8 -51 c4 -29 11 -57 14 -63z m1531 89 c3 -5 1 -10 -4 -10 -6 0 -11 5
-11 10 0 6 2 10 4 10 3 0 8 -4 11 -10z m1652 4 c-3 -3 -12 -4 -19 -1 -8 3 -5
6 6 6 11 1 17 -2 13 -5z m1827 -17 c-3 -9 -14 -19 -24 -22 -11 -3 -66 -55
-123 -116 -58 -60 -108 -109 -113 -109 -5 0 52 61 126 135 74 74 135 133 137
131 2 -2 1 -10 -3 -19z m-1794 -13 c0 -8 -4 -12 -10 -9 -5 3 -10 10 -10 16 0
5 5 9 10 9 6 0 10 -7 10 -16z m-1670 -10 c0 -8 -4 -12 -10 -9 -5 3 -10 10 -10
16 0 5 5 9 10 9 6 0 10 -7 10 -16z m1167 10 c-3 -3 -12 -4 -19 -1 -8 3 -5 6 6
6 11 1 17 -2 13 -5z m3801 -121 l-2 -128 -3 114 c-2 63 -9 121 -15 128 -8 10
-6 13 6 13 14 0 16 -16 14 -127z m-4338 65 c0 -10 -6 -18 -13 -18 -9 0 -12 10
-9 31 3 22 7 27 13 18 5 -8 9 -22 9 -31z m512 -10 c-7 -7 -10 -5 -7 8 5 29 6
30 12 16 3 -8 1 -18 -5 -24z m1378 -24 c0 -40 -3 -54 -12 -51 -7 2 -11 11 -9
18 2 8 6 31 9 52 6 54 12 45 12 -19z m-830 -4 c0 -21 -4 -42 -10 -45 -6 -4
-10 13 -10 45 0 32 4 49 10 45 6 -3 10 -24 10 -45z m-1650 0 c0 -5 -4 -10 -10
-10 -5 0 -10 5 -10 10 0 6 5 10 10 10 6 0 10 -4 10 -10z m1100 -5 c0 -8 -4
-15 -10 -15 -5 0 -7 7 -4 15 4 8 8 15 10 15 2 0 4 -7 4 -15z m-1090 -31 c0 -8
-5 -12 -10 -9 -6 4 -8 11 -5 16 9 14 15 11 15 -7z m589 -51 c1 -13 -3 -23 -9
-23 -5 0 -10 19 -9 43 0 32 2 37 9 22 5 -11 9 -30 9 -42z m-2174 -42 c-12 -12
-20 14 -16 46 l5 38 7 -40 c4 -22 5 -42 4 -44z m2660 69 c3 -5 -1 -10 -10 -10
-9 0 -13 5 -10 10 3 6 8 10 10 10 2 0 7 -4 10 -10z m-19 -67 c-11 -11 -17 4
-9 23 7 18 8 18 11 1 2 -10 1 -21 -2 -24z m1390 0 c-11 -11 -17 4 -9 23 7 18
8 18 11 1 2 -10 1 -21 -2 -24z m-1852 -251 c-4 -51 -11 -95 -17 -99 -7 -4 -8
5 -4 27 4 18 8 101 8 184 2 146 2 148 10 66 5 -47 6 -127 3 -178z m452 201
c-11 -11 -17 4 -9 23 7 18 8 18 11 1 2 -10 1 -21 -2 -24z m-1953 -5 c31 -29
53 -80 32 -71 -8 3 -15 10 -15 16 0 18 -42 57 -63 57 -10 0 -21 -9 -24 -20 -3
-11 -9 -20 -15 -20 -5 0 -4 9 2 20 6 11 7 20 3 20 -16 0 22 20 39 20 9 0 28
-10 41 -22z m3347 -5 c0 -19 -3 -24 -10 -17 -6 6 -8 18 -4 27 9 24 14 21 14
-10z m2489 -146 c-1 -116 -4 -151 -10 -122 -11 53 -10 296 2 289 5 -3 8 -78 8
-167z m-4851 138 c-3 -3 -9 2 -12 12 -6 14 -5 15 5 6 7 -7 10 -15 7 -18z
m3037 -5 c-10 -11 -21 -17 -24 -14 -3 3 3 12 13 20 28 20 32 17 11 -6z m-4686
-68 c1 -26 -3 -41 -9 -37 -5 3 -10 32 -9 63 1 67 17 44 18 -26z m2606 48 c3
-5 -1 -10 -10 -10 -9 0 -13 5 -10 10 3 6 8 10 10 10 2 0 7 -4 10 -10z m604
-62 c-2 -122 -16 -147 -18 -30 -1 62 3 102 9 102 6 0 10 -30 9 -72z m791 37
c0 -15 -6 -25 -14 -25 -11 0 -12 5 -3 25 15 31 17 31 17 0z m-3420 -5 c0 -11
-7 -20 -15 -20 -18 0 -19 6 -2 25 16 19 17 18 17 -5z m4068 0 c-7 -11 -17 -20
-22 -20 -5 0 -1 9 9 20 10 11 20 20 22 20 2 0 -2 -9 -9 -20z m-2062 -37 c-11
-11 -19 6 -11 24 8 17 8 17 12 0 3 -10 2 -21 -1 -24z m-1852 -12 c-9 -10 -26
18 -18 30 5 9 9 8 14 -7 4 -10 6 -21 4 -23z m986 5 c0 -7 9 -22 20 -34 12 -12
17 -22 12 -22 -5 0 -21 18 -36 40 -17 25 -21 37 -11 34 8 -4 15 -12 15 -18z
m2894 -1 c-4 -8 -10 -15 -16 -15 -5 0 -6 -4 -3 -10 3 -5 1 -10 -4 -10 -16 0
-14 11 6 32 20 22 24 23 17 3z m-2034 -21 c0 -8 -5 -12 -10 -9 -6 4 -8 11 -5
16 9 14 15 11 15 -7z m-2020 -30 c0 -21 -4 -33 -10 -29 -17 10 -11 65 7 65 2
0 3 -16 3 -36z m195 26 c-3 -5 -1 -10 6 -10 7 0 10 -2 7 -5 -7 -8 -38 5 -38
16 0 5 7 9 16 9 8 0 12 -4 9 -10z m3223 -29 c-15 -5 -19 4 -11 24 6 18 7 18
13 -1 4 -10 3 -21 -2 -23z m592 -6 c-7 -9 -15 -13 -19 -10 -3 3 1 10 9 15 21
14 24 12 10 -5z m-3790 -10 c11 -13 10 -14 -4 -9 -9 3 -16 10 -16 15 0 13 6
11 20 -6z m1790 -5 c0 -5 -4 -10 -10 -10 -5 0 -10 5 -10 10 0 6 5 10 10 10 6
0 10 -4 10 -10z m-2573 -272 c-1 -51 -3 -10 -3 92 0 102 2 143 3 93 2 -51 2
-135 0 -185z m3970 240 c-3 -7 -5 -2 -5 12 0 14 2 19 5 13 2 -7 2 -19 0 -25z
m577 7 c-4 -8 -11 -12 -16 -9 -6 4 -5 10 3 15 19 12 19 11 13 -6z m-3728 -22
c-7 -7 -26 7 -26 19 0 6 6 6 15 -2 9 -7 13 -15 11 -17z m-266 -33 c0 -27 -4
-50 -8 -50 -8 0 -9 20 -4 80 4 40 12 19 12 -30z m2000 30 c0 -5 -2 -10 -4 -10
-3 0 -8 5 -11 10 -3 6 -1 10 4 10 6 0 11 -4 11 -10z m1406 -58 c-11 -10 -14 3
-8 33 l7 30 3 -28 c2 -16 1 -31 -2 -35z m-3122 32 c5 -14 4 -15 -9 -4 -17 14
-19 20 -6 20 5 0 12 -7 15 -16z m1021 -24 c21 -22 37 -40 34 -40 -3 0 -23 18
-44 40 -21 22 -37 40 -34 40 3 0 23 -18 44 -40z m685 -1 c0 -11 -4 -18 -10
-14 -5 3 -7 12 -3 20 7 21 13 19 13 -6z m1967 5 c-3 -3 -12 -4 -19 -1 -8 3 -5
6 6 6 11 1 17 -2 13 -5z m-3647 -19 c11 -13 10 -14 -4 -9 -9 3 -16 10 -16 15
0 13 6 11 20 -6z m3620 -15 c-6 -11 -12 -20 -14 -20 -2 0 -2 9 1 20 3 11 9 20
15 20 5 0 4 -9 -2 -20z m-3581 -45 c1 -5 -6 -2 -15 7 -10 9 -13 21 -8 29 5 9
9 8 15 -7 4 -10 8 -23 8 -29z m-359 -30 c0 -53 -3 -65 -16 -65 -12 0 -15 6
-10 23 4 12 10 41 13 65 3 23 7 42 9 42 2 0 4 -29 4 -65z m1390 45 c0 -5 -2
-10 -4 -10 -3 0 -8 5 -11 10 -3 6 -1 10 4 10 6 0 11 -4 11 -10z m600 -11 c0
-5 -7 -9 -15 -9 -15 0 -20 12 -9 23 8 8 24 -1 24 -14z m661 -10 c-2 -13 -7
-73 -11 -134 l-7 -110 -2 138 c-1 107 2 138 12 134 6 -2 10 -15 8 -28z m745
-11 c-14 -9 -20 7 -11 30 6 15 8 15 15 -3 4 -12 3 -23 -4 -27z m-1846 8 c0 -3
-4 -8 -10 -11 -5 -3 -10 -1 -10 4 0 6 5 11 10 11 6 0 10 -2 10 -4z m-1166 -22
c3 -8 2 -12 -4 -9 -6 3 -10 10 -10 16 0 14 7 11 14 -7z m1131 6 c-8 -13 -35
-13 -55 0 -11 7 -5 10 23 10 23 0 36 -4 32 -10z m451 -17 c-10 -10 -19 5 -10
18 6 11 8 11 12 0 2 -7 1 -15 -2 -18z m1934 7 c-6 -11 -12 -20 -14 -20 -2 0
-2 9 1 20 3 11 9 20 15 20 5 0 4 -9 -2 -20z m2074 -71 c4 -82 4 -83 -10 -44
-14 42 -19 117 -7 128 11 12 14 2 17 -84z m-2588 23 c-11 -10 -15 4 -8 28 l7
25 3 -23 c2 -13 1 -26 -2 -30z m-2922 -57 c7 -18 6 -18 -13 2 -12 12 -21 27
-21 32 0 6 -9 16 -20 23 -11 7 -20 17 -20 23 0 14 65 -56 74 -80z m1492 28
c-11 -11 -19 6 -11 24 8 17 8 17 12 0 3 -10 2 -21 -1 -24z m1424 -23 c0 -29
-4 -40 -15 -40 -12 0 -13 4 -5 19 5 11 10 29 10 40 0 12 2 21 5 21 3 0 5 -18
5 -40z m490 31 c0 -6 -4 -13 -10 -16 -5 -3 -10 1 -10 9 0 9 5 16 10 16 6 0 10
-4 10 -9z m-1924 -58 c-11 -11 -19 6 -11 24 8 17 8 17 12 0 3 -10 2 -21 -1
-24z m-1964 -66 c-2 -4 -8 -5 -13 -2 -11 7 -12 68 -1 79 7 8 21 -63 14 -77z
m512 47 c5 -14 4 -15 -9 -4 -17 14 -19 20 -6 20 5 0 12 -7 15 -16z m3356 6 c0
-5 -4 -10 -9 -10 -6 0 -13 5 -16 10 -3 6 1 10 9 10 9 0 16 -4 16 -10z m-1924
-37 c-10 -10 -19 5 -10 18 6 11 8 11 12 0 2 -7 1 -15 -2 -18z m-1409 10 c-4
-3 -2 -12 4 -20 7 -8 8 -13 1 -13 -12 0 -23 26 -15 34 4 3 9 6 11 6 3 0 2 -3
-1 -7z m3313 -10 c0 -5 -5 -15 -10 -23 -8 -12 -10 -11 -10 8 0 12 5 22 10 22
6 0 10 -3 10 -7z m-473 -72 c-15 -6 -20 8 -12 36 l8 28 6 -30 c4 -16 3 -32 -2
-34z m-3906 -51 c-8 -21 -10 -16 -10 31 -1 31 2 59 7 63 11 12 14 -67 3 -94z
m2469 80 c0 -11 -4 -20 -9 -20 -5 0 -7 9 -4 20 3 11 7 20 9 20 2 0 4 -9 4 -20z
m-1354 -27 c-7 -7 -26 7 -26 19 0 6 6 6 15 -2 9 -7 13 -15 11 -17z m2070 -157
c-1 -101 -4 -188 -8 -192 -5 -4 -8 0 -8 9 0 9 -1 87 -1 172 0 85 1 164 1 175
0 11 4 20 8 20 5 0 8 -83 8 -184z m1184 175 c0 -6 -4 -13 -10 -16 -5 -3 -10 1
-10 9 0 9 5 16 10 16 6 0 10 -4 10 -9z m-1914 -69 c-12 -11 -18 7 -10 30 l8
23 4 -23 c2 -13 1 -26 -2 -30z m-1312 12 c3 -8 2 -12 -4 -9 -6 3 -10 10 -10
16 0 14 7 11 14 -7z m3216 -3 c0 -17 -18 -21 -24 -6 -3 9 0 15 9 15 8 0 15 -4
15 -9z m-3174 -46 c12 -24 12 -24 -11 -7 -13 9 -21 20 -18 25 8 13 18 7 29
-18z m4588 10 c-4 -8 -11 -15 -16 -15 -6 0 -5 6 2 15 7 8 14 15 16 15 2 0 1
-7 -2 -15z m-3338 -32 c-11 -11 -19 6 -11 24 8 17 8 17 12 0 3 -10 2 -21 -1
-24z m1461 -25 c-2 -13 -4 -3 -4 22 0 25 2 35 4 23 2 -13 2 -33 0 -45z m1913
42 c0 -11 -4 -20 -10 -20 -5 0 -10 9 -10 20 0 11 5 20 10 20 6 0 10 -9 10 -20z
m-1479 -141 c-2 -83 1 -124 9 -134 10 -12 9 -15 -3 -15 -13 0 -15 22 -16 142
-1 78 2 139 6 135 4 -5 6 -62 4 -128z m1429 122 c0 -5 -7 -12 -16 -15 -24 -9
-28 -7 -14 9 14 17 30 20 30 6z m803 -16 c-3 -8 -9 -15 -14 -15 -10 0 -12 24
-3 33 11 11 24 -3 17 -18z m-6564 -2 c0 -5 -4 -17 -8 -28 -7 -17 -8 -17 -13 8
-4 19 -1 27 8 27 8 0 14 -3 13 -7z m2431 -13 c0 -11 -4 -20 -9 -20 -5 0 -7 9
-4 20 3 11 7 20 9 20 2 0 4 -9 4 -20z m-1194 -17 c-7 -7 -26 7 -26 19 0 6 6 6
15 -2 9 -7 13 -15 11 -17z m4589 18 c3 -5 1 -12 -5 -16 -5 -3 -10 1 -10 9 0
18 6 21 15 7z m-4562 -51 c3 -11 4 -20 3 -20 -2 0 -11 9 -21 20 -15 17 -16 20
-3 20 9 0 18 -9 21 -20z m1153 -17 c-11 -11 -17 4 -9 23 7 18 8 18 11 1 2 -10
1 -21 -2 -24z m4164 25 c0 -7 3 -23 6 -35 4 -14 2 -23 -5 -23 -6 0 -11 11 -11
25 0 14 -5 25 -11 25 -5 0 -7 5 -4 10 9 14 25 12 25 -2z m-889 -16 c-5 -10
-18 -25 -28 -33 -12 -10 -11 -5 6 19 24 35 38 43 22 14z m1309 9 c0 -11 -26
-22 -34 -14 -12 12 -5 23 14 23 11 0 20 -4 20 -9z m-6507 -23 c7 -25 3 -33
-12 -23 -13 8 -15 45 -2 45 5 0 11 -10 14 -22z m5340 -3 c-7 -21 -13 -19 -13
6 0 11 4 18 10 14 5 -3 7 -12 3 -20z m-1920 -6 c-4 -16 -8 -17 -14 -7 -13 19
-11 28 5 28 9 0 12 -7 9 -21z m3036 18 c-2 -1 -13 -9 -24 -17 -19 -14 -19 -14
-6 3 7 9 18 17 24 17 6 0 8 -1 6 -3z m-6977 -59 c-2 -29 -9 -60 -14 -68 -6
-10 -8 -2 -4 25 3 22 6 52 6 68 0 15 4 27 9 27 4 0 6 -24 3 -52z m1334 17 c12
-24 12 -24 -12 -7 -26 19 -31 32 -11 32 6 0 17 -11 23 -25z m1090 -32 c-11
-11 -19 6 -11 24 8 17 8 17 12 0 3 -10 2 -21 -1 -24z m3453 -5 c1 -5 -3 -8 -9
-8 -5 0 -10 12 -9 28 0 24 1 25 9 7 5 -11 9 -23 9 -27z m1051 32 c0 -6 -8 -13
-17 -17 -10 -3 -27 -13 -38 -22 -11 -9 -7 -1 9 17 30 33 46 40 46 22z m-1255
-19 c-3 -6 -11 -11 -17 -11 -6 0 -6 6 2 15 14 17 26 13 15 -4z m965 15 c0 -2
-7 -7 -16 -10 -8 -3 -12 -2 -9 4 6 10 25 14 25 6z m-6135 -58 c-9 -75 -13 -84
-28 -69 -9 9 -9 14 -1 19 7 4 14 27 17 52 3 25 6 46 6 48 1 1 3 2 6 2 3 0 3
-24 0 -52z m3455 42 c0 -5 -4 -10 -10 -10 -5 0 -10 5 -10 10 0 6 5 10 10 10 6
0 10 -4 10 -10z m3100 -5 c0 -8 -7 -15 -15 -15 -8 0 -15 5 -15 11 0 5 5 7 10
4 6 -3 10 -1 10 4 0 6 2 11 5 11 3 0 5 -7 5 -15z m-5672 -35 c7 -11 9 -20 4
-20 -10 0 -32 22 -32 32 0 15 15 8 28 -12z m1028 -17 c-11 -11 -19 6 -11 24 8
17 8 17 12 0 3 -10 2 -21 -1 -24z m1554 27 c0 -5 -2 -10 -4 -10 -3 0 -8 5 -11
10 -3 6 -1 10 4 10 6 0 11 -4 11 -10z m1675 -10 c-20 -23 -29 -21 -19 4 3 9
13 16 22 16 13 0 12 -3 -3 -20z m1205 -4 c0 -17 -14 -29 -23 -20 -8 8 3 34 14
34 5 0 9 -6 9 -14z m200 5 c0 -12 -28 -22 -34 -12 -3 5 -3 11 1 15 9 9 33 7
33 -3z m-3044 -39 c-4 -3 -14 2 -24 12 -16 18 -16 18 6 6 13 -6 21 -14 18 -18z
m1894 18 c0 -5 -4 -10 -10 -10 -5 0 -10 5 -10 10 0 6 5 10 10 10 6 0 10 -4 10
-10z m-1610 -10 c0 -5 -4 -10 -10 -10 -5 0 -10 5 -10 10 0 6 5 10 10 10 6 0
10 -4 10 -10z m2520 6 c0 -3 -4 -8 -10 -11 -5 -3 -10 -1 -10 4 0 6 5 11 10 11
6 0 10 -2 10 -4z m-2558 -13 c-6 -2 -9 -10 -6 -15 4 -7 2 -8 -5 -4 -13 9 -5
26 12 25 9 0 8 -2 -1 -6z m82 -9 c10 -26 7 -56 -5 -49 -6 4 -8 9 -5 12 2 3 1
16 -4 29 -5 13 -6 24 -1 24 5 0 12 -7 15 -16z m1279 9 c2 -5 -8 -18 -24 -31
l-28 -22 15 30 c15 29 28 38 37 23z m1407 -2 c0 -5 -7 -12 -16 -15 -14 -5 -15
-4 -4 9 14 17 20 19 20 6z m-4614 -28 c-10 -10 -19 5 -10 18 6 11 8 11 12 0 2
-7 1 -15 -2 -18z m-2416 8 c0 -17 -18 -21 -24 -6 -3 9 0 15 9 15 8 0 15 -4 15
-9z m3244 -69 c4 -7 1 -12 -8 -12 -13 0 -16 11 -15 48 1 45 2 46 8 12 4 -20
11 -41 15 -48z m816 68 c0 -5 -4 -10 -10 -10 -5 0 -10 5 -10 10 0 6 5 10 10
10 6 0 10 -4 10 -10z m155 0 c-3 -5 -10 -10 -16 -10 -5 0 -9 5 -9 10 0 6 7 10
16 10 8 0 12 -4 9 -10z m-2742 -36 c37 -44 30 -44 -13 1 -19 19 -30 35 -24 34
5 0 22 -16 37 -35z m2675 24 c-19 -6 -37 -6 -55 0 -25 9 -21 10 27 10 48 0 52
-1 28 -10z m1766 -3 c3 -8 1 -15 -4 -15 -6 0 -10 7 -10 15 0 8 2 15 4 15 2 0
6 -7 10 -15z m1086 -1 c0 -11 -55 -93 -62 -94 -11 0 4 34 19 43 7 5 11 12 8
18 -4 5 1 12 9 15 9 3 13 10 10 15 -3 5 0 9 5 9 6 0 11 -3 11 -6z m-6507 -28
c6 -16 -2 -28 -14 -20 -12 7 -11 34 0 34 5 0 11 -6 14 -14z m1903 -23 c-11
-11 -17 4 -9 23 7 18 8 18 11 1 2 -10 1 -21 -2 -24z m-2417 10 c-7 -10 -15
-20 -16 -22 -2 -2 -3 5 -3 17 0 14 6 22 16 22 14 0 15 -3 3 -17z m5591 13 c0
-7 -102 -107 -106 -104 -3 4 96 108 102 108 2 0 4 -2 4 -4z m360 -28 c0 -5 -4
-8 -10 -8 -5 0 -10 10 -10 23 0 18 2 19 10 7 5 -8 10 -18 10 -22z m-1530 12
c0 -5 -4 -10 -10 -10 -5 0 -10 5 -10 10 0 6 5 10 10 10 6 0 10 -4 10 -10z
m-3925 -64 c-4 -21 -13 -36 -21 -36 -8 0 -14 5 -14 10 0 6 5 10 10 10 6 0 10
11 10 23 0 23 9 41 17 33 2 -2 1 -20 -2 -40z m1134 -58 c30 -32 53 -58 49 -58
-10 0 -148 143 -148 153 0 6 10 0 22 -14 11 -13 46 -50 77 -81z m-1645 77 c-4
-8 -8 -15 -10 -15 -2 0 -4 7 -4 15 0 8 4 15 10 15 5 0 7 -7 4 -15z m2422 -12
c-10 -10 -19 5 -10 18 6 11 8 11 12 0 2 -7 1 -15 -2 -18z m1894 12 c-7 -9 -15
-13 -19 -10 -3 3 1 10 9 15 21 14 24 12 10 -5z m125 5 c3 -5 1 -10 -4 -10 -6
0 -11 5 -11 10 0 6 2 10 4 10 3 0 8 -4 11 -10z m1545 -10 c0 -5 -4 -10 -10
-10 -5 0 -10 5 -10 10 0 6 5 10 10 10 6 0 10 -4 10 -10z m-2695 -10 c3 -5 -1
-10 -10 -10 -9 0 -13 5 -10 10 3 6 8 10 10 10 2 0 7 -4 10 -10z m980 -20 c-19
-21 -35 -26 -35 -12 0 5 10 14 23 20 31 15 32 14 12 -8z m185 -1 c0 -5 -4 -9
-10 -9 -5 0 -10 7 -10 16 0 8 5 12 10 9 6 -3 10 -10 10 -16z m2520 18 c0 -2
-9 -12 -19 -21 -19 -17 -19 -17 -14 3 3 12 12 21 19 21 8 0 14 -2 14 -3z
m-6985 -17 c3 -5 1 -10 -4 -10 -6 0 -11 5 -11 10 0 6 2 10 4 10 3 0 8 -4 11
-10z m2425 0 c0 -5 -5 -10 -11 -10 -5 0 -7 5 -4 10 3 6 8 10 11 10 2 0 4 -4 4
-10z m3575 0 c3 -5 1 -10 -4 -10 -6 0 -11 5 -11 10 0 6 2 10 4 10 3 0 8 -4 11
-10z m-6010 -30 c-3 -5 -10 -10 -16 -10 -5 0 -9 5 -9 10 0 6 7 10 16 10 8 0
12 -4 9 -10z m4239 -5 c-4 -8 -12 -15 -20 -15 -7 0 -18 -8 -23 -17 -6 -10 -11
-13 -11 -6 0 6 12 21 28 32 33 25 33 25 26 6z m253 9 c-3 -3 -12 -4 -19 -1 -8
3 -5 6 6 6 11 1 17 -2 13 -5z m1003 -14 c0 -5 -5 -10 -11 -10 -5 0 -7 5 -4 10
3 6 8 10 11 10 2 0 4 -4 4 -10z m530 0 c0 -5 -4 -10 -10 -10 -5 0 -10 5 -10
10 0 6 5 10 10 10 6 0 10 -4 10 -10z m930 0 c0 -5 -5 -10 -10 -10 -6 0 -14 -8
-17 -17 -7 -19 -63 -79 -63 -68 0 4 16 25 35 48 19 22 35 44 35 49 0 4 5 8 10
8 6 0 10 -4 10 -10z m-6440 -10 c0 -5 -4 -10 -9 -10 -6 0 -13 5 -16 10 -3 6 1
10 9 10 9 0 16 -4 16 -10z m3985 0 c3 -5 1 -10 -4 -10 -6 0 -11 5 -11 10 0 6
2 10 4 10 3 0 8 -4 11 -10z m-1170 -10 c3 -5 1 -10 -4 -10 -6 0 -11 5 -11 10
0 6 2 10 4 10 3 0 8 -4 11 -10z m-2841 -48 c-4 -18 -10 -32 -14 -32 -7 0 -5
24 6 59 8 26 14 4 8 -27z m4026 28 c0 -5 -4 -10 -10 -10 -5 0 -10 5 -10 10 0
6 5 10 10 10 6 0 10 -4 10 -10z m911 -29 c-16 -17 -33 -31 -39 -31 -5 0 -15
-7 -22 -15 -7 -9 -15 -13 -18 -11 -5 6 23 36 35 36 4 0 21 14 37 30 16 17 30
29 33 27 2 -2 -10 -18 -26 -36z m-1266 19 c-3 -5 -11 -10 -16 -10 -6 0 -7 5
-4 10 3 6 11 10 16 10 6 0 7 -4 4 -10z m1890 0 c3 -5 1 -10 -4 -10 -6 0 -11 5
-11 10 0 6 2 10 4 10 3 0 8 -4 11 -10z m-3655 -10 c0 -5 -5 -10 -11 -10 -5 0
-7 5 -4 10 3 6 8 10 11 10 2 0 4 -4 4 -10z m960 0 c0 -5 -7 -10 -16 -10 -8 0
-12 5 -9 10 3 6 10 10 16 10 5 0 9 -4 9 -10z m-1577 -49 c-2 -3 -16 8 -31 24
l-27 28 31 -24 c17 -13 30 -26 27 -28z m2341 34 c-4 -8 -11 -15 -16 -15 -6 0
-5 6 2 15 7 8 14 15 16 15 2 0 1 -7 -2 -15z m-4164 -5 c0 -5 -4 -10 -10 -10
-5 0 -10 5 -10 10 0 6 5 10 10 10 6 0 10 -4 10 -10z m4596 -17 c-7 -7 -26 7
-26 19 0 6 6 6 15 -2 9 -7 13 -15 11 -17z m1514 17 c0 -5 -4 -10 -10 -10 -5 0
-10 5 -10 10 0 6 5 10 10 10 6 0 10 -4 10 -10z m-1985 -20 c-3 -5 -10 -10 -16
-10 -5 0 -9 5 -9 10 0 6 7 10 16 10 8 0 12 -4 9 -10z m-4135 -4 c0 -2 -7 -9
-15 -16 -13 -11 -14 -10 -9 4 5 14 24 23 24 12z m524 -34 c-6 -4 -15 -22 -19
-39 -7 -33 -18 -42 -30 -23 -3 6 -1 10 6 10 7 0 9 3 6 6 -3 4 -1 16 5 28 12
20 14 25 17 43 0 4 7 1 13 -5 9 -9 10 -15 2 -20z m1352 1 c-7 -7 -26 7 -26 19
0 6 6 6 15 -2 9 -7 13 -15 11 -17z m4269 17 c3 -5 1 -10 -4 -10 -6 0 -11 5
-11 10 0 6 2 10 4 10 3 0 8 -4 11 -10z m765 2 c0 -4 -20 -28 -45 -52 -54 -53
-61 -32 -8 22 36 37 53 46 53 30z m-3460 -16 c0 -15 79 -82 92 -78 4 1 8 -2 8
-8 0 -5 -2 -10 -5 -10 -21 0 -127 95 -117 105 10 10 22 5 22 -9z m1190 4 c0
-5 -2 -10 -4 -10 -3 0 -8 5 -11 10 -3 6 -1 10 4 10 6 0 11 -4 11 -10z m745 -9
c-3 -6 -11 -11 -16 -11 -5 0 -4 6 3 14 14 16 24 13 13 -3z m-5408 -7 c-3 -3
-12 -4 -19 -1 -8 3 -5 6 6 6 11 1 17 -2 13 -5z m1943 -15 c0 -14 -17 -10 -23
5 -4 10 -1 13 9 9 7 -3 14 -9 14 -14z m456 -4 c-31 -29 -32 -29 -42 -12 -4 6
-4 9 0 5 5 -4 17 2 29 13 11 10 25 19 30 19 6 0 -2 -11 -17 -25z m1664 5 c0
-5 -4 -10 -10 -10 -5 0 -10 5 -10 10 0 6 5 10 10 10 6 0 10 -4 10 -10z m660
-22 c0 -12 -14 -10 -28 4 -19 19 -14 29 8 16 11 -7 20 -16 20 -20z m645 13
c-3 -6 -11 -11 -17 -11 -6 0 -6 6 2 15 14 17 26 13 15 -4z m830 9 c-3 -5 -1
-10 6 -10 7 0 10 -3 6 -6 -9 -9 -28 6 -22 17 4 5 8 9 11 9 3 0 2 -4 -1 -10z
m-6226 -23 c-6 -13 -17 -24 -25 -24 -19 0 -18 6 9 28 28 24 29 23 16 -4z
m2017 -4 c-6 -6 -36 9 -36 18 0 5 9 4 20 -3 10 -7 18 -14 16 -15z m3339 7 c3
-5 1 -10 -4 -10 -6 0 -11 5 -11 10 0 6 2 10 4 10 3 0 8 -4 11 -10z m-3300 -20
c3 -5 -1 -10 -9 -10 -9 0 -16 5 -16 10 0 6 4 10 9 10 6 0 13 -4 16 -10z m325
1 c0 -5 -10 -11 -22 -14 -22 -6 -22 -6 -4 8 23 17 26 18 26 6z m1630 -1 c0 -5
-5 -10 -11 -10 -5 0 -7 5 -4 10 3 6 8 10 11 10 2 0 4 -4 4 -10z m765 0 c3 -5
1 -10 -4 -10 -6 0 -11 5 -11 10 0 6 2 10 4 10 3 0 8 -4 11 -10z m-2690 -10 c3
-5 1 -10 -4 -10 -6 0 -11 5 -11 10 0 6 2 10 4 10 3 0 8 -4 11 -10z m1895 0 c0
-5 -5 -10 -11 -10 -5 0 -7 5 -4 10 3 6 8 10 11 10 2 0 4 -4 4 -10z m1330 0 c0
-5 -5 -10 -11 -10 -5 0 -7 5 -4 10 3 6 8 10 11 10 2 0 4 -4 4 -10z m-4775 -10
c3 -5 -1 -10 -9 -10 -9 0 -16 5 -16 10 0 6 4 10 9 10 6 0 13 -4 16 -10z m1595
0 c0 -5 -5 -10 -11 -10 -5 0 -7 5 -4 10 3 6 8 10 11 10 2 0 4 -4 4 -10z m3150
0 c0 -5 -4 -10 -10 -10 -5 0 -10 5 -10 10 0 6 5 10 10 10 6 0 10 -4 10 -10z
m-1380 -15 c0 -8 -4 -15 -10 -15 -5 0 -7 7 -4 15 4 8 8 15 10 15 2 0 4 -7 4
-15z m1340 0 c0 -8 -7 -15 -16 -15 -14 0 -14 3 -4 15 7 8 14 15 16 15 2 0 4
-7 4 -15z m1050 0 c0 -8 -4 -15 -9 -15 -5 0 -11 7 -15 15 -3 9 0 15 9 15 8 0
15 -7 15 -15z m540 -5 c-6 -11 -15 -20 -20 -20 -6 0 -5 9 2 20 7 11 16 20 21
20 4 0 3 -9 -3 -20z m-4550 -2 c0 -11 -108 -10 -115 2 -3 5 19 8 55 7 33 -1
60 -5 60 -9z m1350 2 c0 -5 -4 -10 -10 -10 -5 0 -10 5 -10 10 0 6 5 10 10 10
6 0 10 -4 10 -10z m1230 0 c0 -5 -4 -10 -10 -10 -5 0 -10 5 -10 10 0 6 5 10
10 10 6 0 10 -4 10 -10z m-4936 -18 c-3 -9 -16 -22 -30 -29 -30 -14 -30 -10
-1 21 27 29 37 32 31 8z m590 -16 c-3 -14 -10 -26 -15 -26 -5 0 -8 -3 -8 -7 1
-5 -4 -23 -12 -40 -14 -34 -36 -51 -36 -27 0 7 4 11 9 8 4 -3 8 4 8 15 0 27
21 71 33 71 6 0 7 3 4 7 -4 3 -2 12 5 20 15 19 20 10 12 -21z m3176 18 c0 -2
-9 -4 -20 -4 -11 0 -20 4 -20 9 0 5 9 7 20 4 11 -3 20 -7 20 -9z m170 6 c0 -5
-12 -10 -27 -9 l-28 1 25 8 c14 4 26 8 28 9 1 1 2 -3 2 -9z m1060 -6 c0 -2 -9
-4 -20 -4 -11 0 -20 4 -20 9 0 5 9 7 20 4 11 -3 20 -7 20 -9z m280 6 c0 -5
-10 -10 -22 -9 -22 0 -22 1 -3 9 11 5 21 9 23 9 1 1 2 -3 2 -9z m-1430 -10 c0
-5 -9 -10 -20 -10 -11 0 -20 5 -20 10 0 6 9 10 20 10 11 0 20 -4 20 -10z
m1239 -6 c2 -2 -15 -4 -38 -4 -25 0 -40 4 -36 10 5 8 63 3 74 -6z m136 6 c4
-6 -6 -10 -22 -10 -22 0 -25 2 -13 10 19 12 27 12 35 0z m1195 -22 c0 -6 -6
-5 -15 2 -8 7 -15 14 -15 16 0 2 7 1 15 -2 8 -4 15 -11 15 -16z m418 -4 c-19
-17 -58 -28 -58 -15 0 10 14 15 33 12 4 0 7 3 7 7 0 5 7 9 15 9 13 0 14 -3 3
-13z m-378 -15 c0 -4 -7 -6 -15 -3 -8 4 -15 10 -15 15 0 4 7 6 15 3 8 -4 15
-10 15 -15z m30 -14 c0 -8 -4 -15 -10 -15 -5 0 -10 7 -10 15 0 8 5 15 10 15 6
0 10 -7 10 -15z m275 6 c3 -5 1 -12 -5 -16 -5 -3 -10 1 -10 9 0 18 6 21 15 7z
m-6841 -16 c-6 -16 -24 -21 -24 -7 0 11 11 22 21 22 5 0 6 -7 3 -15z m6621 -5
c18 -8 17 -9 -7 -9 -16 -1 -28 4 -28 9 0 12 8 12 35 0z m179 0 c-16 -16 -154
-26 -154 -12 0 7 28 12 73 15 39 1 76 4 82 5 5 1 4 -3 -1 -8z m-6841 -25 c-3
-9 -8 -14 -10 -11 -3 3 -2 9 2 15 9 16 15 13 8 -4z m-27 -31 c-4 -9 -9 -14
-13 -10 -3 3 -16 -2 -27 -11 -12 -10 -8 -3 8 15 30 33 43 35 32 6z m650 -49
c-9 -14 -13 -25 -9 -25 5 0 0 -5 -9 -11 -10 -5 -18 -16 -18 -23 0 -7 -11 -23
-25 -36 l-25 -24 11 32 c6 18 15 29 20 26 5 -3 10 0 10 5 1 6 2 14 3 19 0 4
11 18 24 32 12 13 22 28 22 34 0 5 3 6 6 3 4 -4 -1 -18 -10 -32z m-730 -10
c-3 -22 -22 -39 -30 -27 -3 6 1 18 10 26 19 20 23 20 20 1z m-48 -60 c-6 -14
-15 -25 -20 -25 -9 0 -4 14 15 38 15 19 18 14 5 -13z m691 -62 c-1 -5 -37 -41
-80 -82 -61 -58 -82 -72 -91 -63 -9 9 -9 12 0 12 7 0 14 -1 17 -2 6 -4 124
113 123 121 -1 15 3 21 17 21 8 0 14 -3 14 -7z m-729 -17 c0 -3 -4 -8 -10 -11
-5 -3 -10 -1 -10 4 0 6 5 11 10 11 6 0 10 -2 10 -4z m-6 -141 c3 -8 1 -15 -4
-15 -6 0 -10 7 -10 15 0 8 2 15 4 15 2 0 6 -7 10 -15z m554 -7 c-2 -6 -10 -14
-16 -16 -7 -2 -10 2 -6 12 7 18 28 22 22 4z m-514 -57 c-2 -3 -13 5 -24 16
-13 15 -16 23 -7 26 12 4 40 -34 31 -42z m437 9 c-24 -20 -51 -27 -51 -12 0 6
41 24 70 30 3 1 -6 -8 -19 -18z m-436 -38 c18 -10 17 -11 -12 -12 -29 0 -33 3
-33 28 1 23 2 25 13 11 7 -8 21 -21 32 -27z m44 -1 c-6 -2 -15 3 -20 10 -15
24 -10 29 11 11 12 -10 16 -18 9 -21z m331 8 c0 -5 -7 -9 -15 -9 -9 0 -12 6
-9 15 6 15 24 11 24 -6z m-40 -9 c0 -5 -10 -10 -22 -9 -22 0 -22 1 -3 9 11 5
21 9 23 9 1 1 2 -3 2 -9z"/>
<path d="M4893 4257 c-24 -5 -43 -14 -43 -18 0 -5 -7 -9 -15 -9 -8 0 -20 -9
-27 -20 -7 -11 -18 -20 -24 -20 -13 0 -124 -107 -124 -120 0 -5 -8 -15 -18
-22 -11 -7 -24 -30 -31 -50 -7 -20 -16 -38 -21 -40 -5 -2 -15 -33 -22 -70 -7
-38 -16 -68 -20 -68 -5 0 -8 -43 -8 -95 0 -52 4 -95 9 -95 5 0 12 -15 15 -34
4 -18 15 -44 26 -56 11 -13 20 -27 20 -32 0 -4 6 -8 13 -8 7 0 17 -8 24 -19 6
-10 24 -22 40 -26 15 -3 31 -12 35 -18 10 -17 296 -17 306 0 4 7 27 19 49 27
43 15 203 164 203 188 0 6 6 19 14 27 18 21 46 116 46 158 0 18 5 33 10 33 6
0 10 28 10 65 0 36 -3 65 -8 65 -4 0 -13 28 -19 62 -7 35 -19 65 -27 70 -9 5
-16 14 -16 19 0 14 -55 69 -69 69 -5 0 -14 6 -18 14 -4 8 -26 19 -48 25 -49
13 -204 12 -262 -2z m126 -1 c-10 -9 -79 -14 -79 -5 0 5 19 9 42 9 23 0 39 -2
37 -4z m101 -6 c0 -6 -11 -8 -27 -4 -40 10 -41 14 -5 14 18 0 32 -5 32 -10z
m35 -9 c3 -5 1 -12 -5 -16 -5 -3 -10 1 -10 9 0 18 6 21 15 7z m-265 -22 c0 -6
-6 -9 -12 -6 -7 2 -26 -5 -43 -15 l-30 -20 28 26 c29 27 57 34 57 15z m200 1
c0 -5 11 -10 25 -10 14 0 34 -9 44 -19 10 -10 28 -22 39 -25 11 -4 36 -31 55
-61 42 -62 58 -140 47 -225 -7 -60 -40 -160 -52 -160 -4 0 -14 -15 -21 -32
-18 -43 -129 -156 -161 -164 -14 -3 -30 -12 -36 -19 -31 -37 -234 -45 -295
-12 -42 22 -105 81 -105 98 0 8 -8 26 -17 39 -14 19 -18 45 -18 108 0 49 4 86
11 90 6 4 17 31 24 60 6 28 16 52 20 52 5 0 11 14 15 30 4 17 15 36 26 43 10
6 19 17 19 23 0 13 99 114 112 114 5 0 20 11 33 24 14 14 41 26 69 30 25 4 46
11 46 17 0 5 27 9 60 9 33 0 60 -4 60 -10z m101 -7 c12 -16 12 -17 -2 -6 -9 7
-20 9 -24 5 -5 -4 -5 -1 -1 6 9 16 11 15 27 -5z m79 -71 c-10 -4 -60 45 -60
59 0 6 15 -4 34 -23 19 -18 30 -34 26 -36z m-470 34 c0 -2 -7 -9 -15 -16 -13
-11 -14 -10 -9 4 5 14 24 23 24 12z m-50 -49 c0 -2 -16 -18 -35 -37 -19 -19
-35 -31 -35 -27 0 3 15 20 33 36 31 30 37 34 37 28z m570 -58 c0 -16 -34 20
-43 46 -6 16 -3 14 18 -7 14 -15 25 -33 25 -39z m-652 -44 c-10 -23 -28 -34
-28 -18 0 7 31 43 36 43 2 0 -2 -11 -8 -25z m662 0 c0 -14 -2 -25 -4 -25 -2 0
-6 11 -8 25 -3 14 -1 25 3 25 5 0 9 -11 9 -25z m10 -90 c0 -25 -4 -45 -10 -45
-11 0 -14 73 -3 83 11 12 13 8 13 -38z m-710 25 c0 -5 -4 -10 -10 -10 -5 0
-10 5 -10 10 0 6 5 10 10 10 6 0 10 -4 10 -10z m-10 -29 c0 -6 -4 -13 -10 -16
-5 -3 -10 1 -10 9 0 9 5 16 10 16 6 0 10 -4 10 -9z m-15 -41 c3 -5 -1 -10 -9
-10 -9 0 -16 5 -16 10 0 6 4 10 9 10 6 0 13 -4 16 -10z m-20 -41 c-10 -16 -13
-191 -4 -216 5 -13 5 -23 0 -23 -12 0 -21 52 -21 119 0 72 10 131 22 131 5 0
6 -5 3 -11z m741 -37 c-11 -10 -15 4 -8 28 l7 25 3 -23 c2 -13 1 -26 -2 -30z
m-6 -32 c0 -5 -4 -10 -10 -10 -5 0 -10 5 -10 10 0 6 5 10 10 10 6 0 10 -4 10
-10z m-34 -76 c-4 -9 -9 -15 -11 -12 -3 3 -3 13 1 22 4 9 9 15 11 12 3 -3 3
-13 -1 -22z m-36 -64 c0 -5 -10 -15 -22 -21 -23 -12 -23 -12 -4 10 21 23 26
26 26 11z m-636 -86 c3 -8 2 -12 -4 -9 -6 3 -10 10 -10 16 0 14 7 11 14 -7z
m516 -34 c-6 -11 -16 -20 -22 -20 -6 0 -3 9 7 20 10 11 20 20 22 20 2 0 -1 -9
-7 -20z m-490 0 c0 -5 -4 -10 -10 -10 -5 0 -10 5 -10 10 0 6 5 10 10 10 6 0
10 -4 10 -10z m108 -53 c6 3 12 0 12 -6 0 -16 -23 -13 -46 5 -19 15 -19 15 1
6 11 -5 26 -7 33 -5z m292 3 c0 -5 -5 -10 -11 -10 -5 0 -7 5 -4 10 3 6 8 10
11 10 2 0 4 -4 4 -10z m-35 -10 c3 -5 -1 -10 -9 -10 -9 0 -16 5 -16 10 0 6 4
10 9 10 6 0 13 -4 16 -10z m-135 -15 c30 0 61 3 69 5 7 3 16 -1 18 -7 4 -10
-19 -13 -91 -13 -81 0 -96 3 -96 16 0 12 5 13 23 7 12 -4 47 -8 77 -8z"/>
<path d="M6610 2708 c-19 -5 -39 -16 -43 -24 -4 -8 -12 -14 -18 -14 -23 0
-141 -137 -159 -185 -5 -14 -14 -25 -19 -25 -5 0 -12 -13 -16 -30 -4 -16 -11
-30 -16 -30 -5 0 -14 -20 -20 -45 -6 -25 -15 -45 -19 -45 -4 0 -13 -30 -20
-67 -7 -38 -17 -74 -23 -82 -7 -8 -11 -72 -12 -165 0 -132 2 -155 18 -170 9
-10 17 -24 17 -31 0 -8 11 -22 25 -31 14 -9 25 -22 25 -29 0 -18 86 -28 171
-22 83 6 119 16 143 39 11 10 25 18 32 18 7 0 26 16 41 35 15 19 33 35 39 35
15 0 74 57 74 72 0 6 27 37 61 69 l60 59 -7 115 c-4 63 -11 115 -15 115 -5 0
-9 26 -9 58 -1 83 -19 255 -27 261 -5 3 -14 24 -22 46 -15 42 -23 52 -59 73
-26 14 -151 15 -202 0z m150 -11 c-10 -8 -120 -15 -120 -8 0 5 28 9 62 10 34
1 60 0 58 -2z m40 -24 c0 -13 -3 -13 -15 -3 -8 7 -15 16 -15 21 0 5 7 6 15 3
8 -4 15 -13 15 -21z m-170 -4 c0 -5 -4 -9 -8 -9 -5 0 -9 7 -9 15 0 8 4 12 9 9
4 -3 8 -9 8 -15z m130 1 c0 -6 11 -15 24 -20 15 -5 27 -20 31 -39 4 -17 10
-31 14 -31 11 0 31 -104 31 -162 0 -26 4 -48 8 -48 5 0 13 -66 18 -147 l10
-148 -56 -56 c-30 -30 -62 -68 -70 -83 -8 -15 -23 -32 -35 -38 -11 -6 -39 -27
-61 -47 -66 -57 -84 -69 -120 -76 -19 -3 -34 -10 -34 -15 0 -6 -22 -10 -50
-10 -27 0 -50 4 -50 8 0 4 -14 12 -31 17 -18 6 -38 23 -47 40 -10 16 -22 35
-28 42 -19 20 -25 126 -14 219 6 49 15 91 19 94 4 3 13 31 20 63 7 31 16 57
20 57 5 0 11 15 15 32 4 18 18 50 31 70 14 21 25 42 25 48 0 5 3 10 8 10 4 0
14 15 21 33 24 54 146 164 194 174 15 3 27 9 27 14 0 5 18 9 40 9 22 0 40 -5
40 -10z m-165 -19 c-3 -6 -11 -11 -17 -11 -6 0 -6 6 2 15 14 17 26 13 15 -4z
m230 9 c3 -5 1 -10 -4 -10 -6 0 -11 5 -11 10 0 6 2 10 4 10 3 0 8 -4 11 -10z
m20 -30 c-3 -5 -1 -10 4 -10 6 0 11 -9 11 -20 0 -11 5 -20 10 -20 6 0 10 -4
10 -10 0 -5 -7 -10 -15 -10 -8 0 -15 8 -15 18 0 10 -7 28 -16 40 -14 20 -14
22 1 22 9 0 13 -4 10 -10z m-326 -39 c-17 -17 -34 -31 -37 -31 -7 0 28 41 48
57 29 22 21 4 -11 -26z m371 -67 c0 -8 -6 -14 -14 -14 -9 0 -12 7 -9 20 6 22
23 18 23 -6z m-447 -29 c-10 -13 -22 -25 -26 -25 -4 0 0 11 10 25 10 13 22 25
26 25 4 0 0 -11 -10 -25z m456 -134 c1 -58 5 -97 12 -102 8 -5 8 -9 -1 -14 -6
-4 -13 -5 -14 -4 -2 2 -6 58 -10 124 -4 76 -3 115 3 106 5 -8 10 -57 10 -110z
m-484 89 c3 -5 -1 -10 -10 -10 -9 0 -13 5 -10 10 3 6 8 10 10 10 2 0 7 -4 10
-10z m-35 -70 c0 -5 -5 -10 -11 -10 -5 0 -7 5 -4 10 3 6 8 10 11 10 2 0 4 -4
4 -10z m-30 -60 c0 -5 -4 -10 -10 -10 -5 0 -10 5 -10 10 0 6 5 10 10 10 6 0
10 -4 10 -10z m-10 -30 c0 -5 -5 -10 -11 -10 -5 0 -7 5 -4 10 3 6 8 10 11 10
2 0 4 -4 4 -10z m-20 -40 c0 -5 -4 -10 -10 -10 -5 0 -10 5 -10 10 0 6 5 10 10
10 6 0 10 -4 10 -10z m-14 -57 c-10 -10 -19 5 -10 18 6 11 8 11 12 0 2 -7 1
-15 -2 -18z m617 -50 c5 -23 3 -33 -6 -33 -8 0 -12 16 -12 44 0 47 8 42 18
-11z m-623 12 c0 -8 -7 -15 -15 -15 -13 0 -14 3 -3 15 16 18 18 18 18 0z m-20
-80 c0 -19 -4 -35 -10 -35 -11 0 -13 30 -4 54 10 25 14 19 14 -19z m639 -21
c-17 -32 -110 -126 -118 -119 -3 3 23 34 57 68 34 34 62 69 62 76 0 8 3 11 7
8 3 -4 0 -19 -8 -33z m-636 -155 c-4 -16 -8 -17 -14 -7 -13 19 -11 28 5 28 9
0 12 -7 9 -21z m457 -32 c0 -11 -38 -46 -44 -40 -3 3 -6 0 -6 -7 0 -7 -3 -10
-7 -7 -7 8 35 57 49 57 4 0 8 -2 8 -3z m-440 -17 c0 -5 -4 -10 -10 -10 -5 0
-10 5 -10 10 0 6 5 10 10 10 6 0 10 -4 10 -10z m10 -30 c0 -5 -2 -10 -4 -10
-3 0 -8 5 -11 10 -3 6 -1 10 4 10 6 0 11 -4 11 -10z m35 -41 c11 -17 -1 -21
-15 -4 -8 9 -8 15 -2 15 6 0 14 -5 17 -11z m235 -24 c0 -8 -4 -15 -10 -15 -5
0 -10 7 -10 15 0 8 5 15 10 15 6 0 10 -7 10 -15z m-65 -20 c6 -2 -23 -4 -62
-4 -40 -1 -73 3 -73 7 0 8 112 5 135 -3z"/>
<path d="M572 530 c0 -14 2 -19 5 -12 2 6 2 18 0 25 -3 6 -5 1 -5 -13z"/>
<path d="M788 363 c17 -2 47 -2 65 0 17 2 3 4 -33 4 -36 0 -50 -2 -32 -4z"/>
</g>
</svg>
