<?xml version="1.0" standalone="no"?>
<!DOCTYPE svg PUBLIC "-//W3C//DTD SVG 20010904//EN"
 "http://www.w3.org/TR/2001/REC-SVG-20010904/DTD/svg10.dtd">
<svg version="1.0" xmlns="http://www.w3.org/2000/svg"
 width="900.000000pt" height="504.000000pt" viewBox="0 0 900.000000 504.000000"
 preserveAspectRatio="xMidYMid meet">
<metadata>
Created by potrace 1.16, written by Peter Selinger 2001-2019
</metadata>
<g transform="translate(0.000000,504.000000) scale(0.100000,-0.100000)"
fill="none" stroke="white" stroke-width="2">
<path d="M3687 4653 c18 -2 50 -2 70 0 21 2 7 4 -32 4 -38 0 -55 -2 -38 -4z"/>
<path d="M3563 4628 c-18 -6 -33 -15 -33 -20 0 -5 -12 -13 -26 -19 -15 -5 -24
-12 -21 -15 6 -6 49 14 57 27 3 5 30 15 60 23 39 11 46 15 25 14 -16 0 -45 -5
-62 -10z"/>
<path d="M3672 4630 c3 -10 21 -16 56 -18 44 -3 52 0 52 14 0 14 -3 15 -12 6
-16 -16 -70 -15 -87 1 -11 10 -13 9 -9 -3z"/>
<path d="M3810 4633 c75 -25 100 -31 100 -24 0 5 -20 14 -44 20 -45 11 -86 14
-56 4z"/>
<path d="M3908 4568 c-13 -20 -13 -25 2 -40 15 -17 17 -17 34 0 16 16 18 16
32 -2 11 -16 14 -16 14 -4 0 17 -44 68 -58 68 -6 0 -16 -10 -24 -22z m45 -5
c8 -7 -25 -33 -35 -27 -4 3 -5 11 -1 19 5 16 25 20 36 8z"/>
<path d="M3507 4557 c-5 -12 -14 -15 -36 -11 -24 5 -32 1 -46 -19 -14 -21 -14
-29 -3 -46 7 -12 18 -21 24 -21 15 0 66 59 59 69 -3 5 0 11 6 13 7 2 10 10 7
18 -3 11 -6 10 -11 -3z m-28 -26 c12 -8 11 -13 -6 -34 -15 -20 -23 -23 -32
-14 -14 14 -14 30 1 45 14 14 19 15 37 3z"/>
<path d="M4005 4495 c4 -11 10 -28 12 -37 3 -10 9 -18 14 -18 19 0 8 -28 -13
-33 -12 -4 -19 -9 -16 -12 3 -4 16 -2 27 5 19 10 21 8 21 -19 0 -16 4 -32 8
-35 5 -3 5 18 1 47 -5 28 -13 53 -19 55 -5 2 -10 9 -10 16 0 7 -7 21 -16 32
-15 19 -16 19 -9 -1z"/>
<path d="M3375 4460 c-4 -12 -1 -27 5 -35 10 -12 9 -15 -4 -15 -9 0 -16 5 -16
11 0 22 -18 -2 -22 -30 -4 -28 15 -51 30 -36 3 3 0 5 -6 5 -7 0 -12 11 -12 25
0 22 3 24 19 15 25 -13 34 -13 26 0 -3 6 1 10 11 10 13 0 11 4 -7 20 l-24 20
30 -5 c17 -3 23 -2 15 1 -8 4 -20 13 -27 21 -9 12 -12 11 -18 -7z"/>
<path d="M3301 4343 c-15 -46 -5 -74 28 -72 11 0 10 3 -6 11 -26 12 -28 21
-12 49 5 11 9 28 7 37 -2 10 -9 -1 -17 -25z"/>
<path d="M4081 4304 c-1 -33 -5 -43 -21 -47 -20 -5 -29 -37 -10 -37 5 0 7 6 4
14 -3 8 3 16 15 19 12 3 22 0 22 -6 1 -7 5 -59 9 -117 l7 -105 1 85 c0 47 -5
119 -13 160 -11 62 -13 68 -14 34z"/>
<path d="M4883 4303 c-13 -2 -23 -9 -23 -14 0 -5 -8 -9 -18 -9 -27 0 -133 -72
-172 -118 -59 -67 -70 -85 -69 -112 1 -23 2 -22 10 8 10 32 22 41 34 22 3 -5
16 -10 28 -9 l22 0 -21 9 c-12 5 -25 13 -28 19 -8 13 83 113 95 105 5 -3 9 0
9 5 0 20 20 11 30 -11 8 -22 9 -22 9 -2 1 11 -4 25 -11 32 -9 9 -9 12 0 12 7
0 15 -7 18 -15 7 -16 54 -21 54 -5 0 5 -7 7 -15 4 -8 -4 -22 -1 -30 6 -14 11
-13 15 5 27 13 9 28 12 38 7 30 -14 51 -12 45 3 -4 11 -8 12 -13 3 -5 -9 -9
-9 -14 -1 -13 20 39 30 160 30 101 0 125 -3 161 -21 36 -18 41 -24 32 -40 -6
-11 -8 -22 -5 -25 3 -3 10 5 15 18 9 24 9 24 50 -19 68 -71 104 -175 64 -185
-14 -4 -12 -5 5 -6 21 -1 22 -5 22 -86 0 -81 -1 -85 -22 -86 -19 -1 -20 -2 -4
-6 16 -4 18 -12 13 -51 -3 -26 -8 -56 -12 -67 -5 -16 -5 -17 4 -4 15 23 31
133 31 213 0 81 -18 196 -31 196 -5 0 -9 7 -9 16 0 26 -64 98 -106 119 -22 11
-42 25 -46 30 -7 10 -264 17 -305 8z"/>
<path d="M3265 4258 c-3 -24 -9 -52 -11 -63 -4 -16 -3 -17 4 -5 11 17 26 110
18 110 -2 0 -7 -19 -11 -42z"/>
<path d="M3222 4113 c-7 -40 -12 -85 -12 -101 0 -16 -3 -32 -7 -35 -3 -4 -9
-24 -12 -45 -9 -56 -7 -570 2 -625 7 -41 11 -48 29 -45 12 2 22 10 24 19 1 9
4 27 8 40 3 13 -2 7 -11 -13 -8 -21 -20 -38 -24 -38 -12 0 -11 24 1 36 6 6 13
60 16 120 3 60 8 116 10 124 4 10 2 12 -5 5 -5 -5 -11 -35 -13 -65 -2 -41 -7
-55 -18 -55 -13 0 -15 31 -18 208 l-2 208 25 -17 c14 -9 25 -12 25 -6 0 5 -9
12 -20 15 -16 4 -20 13 -20 49 0 23 4 49 9 57 10 16 31 6 31 -14 0 -8 4 -16 9
-19 4 -3 6 6 3 19 -2 13 -12 27 -22 30 -16 5 -16 12 -3 103 15 114 12 148 -5
45z m2 -740 c-11 -78 -23 -85 -24 -15 0 50 3 62 16 62 13 0 14 -8 8 -47z"/>
<path d="M1625 4164 c-113 -26 -155 -37 -155 -44 0 -4 -13 -10 -29 -13 -16 -3
-35 -12 -43 -20 -7 -8 -23 -19 -35 -25 -39 -22 -143 -116 -143 -132 0 -5 7 -7
15 -4 8 3 13 9 12 12 -1 4 11 20 26 36 15 16 27 26 27 22 0 -4 7 0 16 8 16 16
39 22 30 8 -2 -4 -1 -14 5 -22 7 -12 9 -9 10 10 1 14 2 31 2 38 -1 6 3 12 7
12 4 0 18 9 31 21 13 11 36 23 51 26 16 3 28 9 28 13 0 4 30 16 66 26 55 15
69 15 87 5 20 -13 207 -23 235 -13 22 8 13 19 -13 14 -15 -2 -25 0 -25 7 0 13
82 15 95 2 6 -5 30 -12 55 -15 l45 -6 -50 17 c-48 16 -299 28 -350 17z m85
-14 c0 -5 -13 -10 -29 -10 -17 0 -33 5 -36 10 -4 6 8 10 29 10 20 0 36 -4 36
-10z m108 -2 c-3 -8 -22 -13 -48 -13 -26 0 -45 5 -47 13 -3 8 10 12 47 12 37
0 50 -4 48 -12z m-458 -118 c0 -5 -2 -10 -4 -10 -3 0 -8 5 -11 10 -3 6 -1 10
4 10 6 0 11 -4 11 -10z"/>
<path d="M1977 4106 c-4 -10 -3 -15 3 -11 6 3 10 1 10 -5 0 -6 5 -8 13 -3 17
11 39 13 60 7 14 -4 16 -9 7 -20 -7 -7 -10 -19 -7 -26 3 -8 6 -6 6 5 1 10 5
16 10 13 5 -3 7 -16 5 -29 l-5 -22 12 23 c7 12 16 22 21 22 4 0 8 -10 9 -22 0
-22 1 -22 8 -3 8 19 8 19 19 -2 9 -16 9 -23 -1 -27 -6 -3 -2 -3 10 0 16 3 25
-1 35 -18 7 -13 11 -27 10 -31 -1 -5 3 -5 9 -1 7 4 10 2 7 -6 -2 -7 6 -23 19
-36 13 -13 23 -32 23 -43 0 -11 4 -22 9 -26 14 -8 -9 66 -25 82 -8 8 -14 19
-14 24 0 17 -43 69 -57 69 -7 0 -13 7 -13 15 0 9 -11 21 -25 27 -14 6 -25 15
-25 19 0 4 -20 15 -45 24 -35 14 -48 15 -59 6 -11 -9 -15 -9 -18 1 -3 8 -7 6
-11 -6z m123 -36 c0 -5 -2 -10 -4 -10 -3 0 -8 5 -11 10 -3 6 -1 10 4 10 6 0
11 -4 11 -10z"/>
<path d="M4563 4005 c-6 -19 -8 -37 -4 -39 4 -3 12 13 18 35 13 48 0 52 -14 4z"/>
<path d="M4082 3913 c3 -93 5 -108 21 -111 15 -3 17 7 17 107 0 105 -1 111
-20 111 -20 0 -21 -5 -18 -107z m28 -3 c0 -60 -4 -100 -10 -100 -11 0 -14 182
-3 193 12 13 13 7 13 -93z"/>
<path d="M4521 3887 c-15 -85 -13 -262 4 -312 7 -22 13 -34 14 -27 1 6 5 12
11 12 5 0 7 -7 3 -16 -15 -39 51 -99 148 -134 62 -23 237 -28 298 -9 90 29
125 43 141 58 9 9 29 24 43 35 21 14 25 24 21 43 -6 22 -4 23 20 17 14 -3 26
-2 26 2 0 5 16 26 35 47 35 39 52 90 42 127 -3 11 0 20 6 20 7 0 3 7 -7 15
-19 14 -19 15 -1 15 10 0 16 3 12 6 -11 12 -39 -5 -30 -18 4 -7 9 -30 10 -50
2 -36 1 -37 -23 -28 -17 7 -23 7 -19 0 3 -6 13 -10 21 -10 16 0 19 -36 3 -46
-8 -4 -9 0 -4 15 4 12 2 21 -4 21 -6 0 -10 -6 -9 -12 2 -8 -5 -12 -17 -11 -29
3 -47 -5 -39 -18 5 -8 8 -8 14 0 7 13 40 4 40 -10 0 -5 -12 -9 -26 -9 -14 0
-23 -4 -19 -10 4 -6 11 -8 16 -5 14 9 11 -5 -5 -21 -8 -8 -21 -11 -30 -8 -23
9 -38 -4 -27 -25 13 -23 -26 -61 -41 -40 -7 11 -8 9 -6 -5 2 -14 -5 -22 -22
-27 -14 -4 -18 -8 -10 -9 8 0 -7 -10 -35 -21 -36 -15 -54 -18 -70 -10 -11 5
-35 13 -54 16 -32 7 -33 7 -15 -12 11 -11 22 -15 25 -10 4 6 15 7 25 2 36 -14
-15 -24 -126 -24 -110 0 -160 9 -125 22 10 4 15 10 12 14 -4 3 -13 0 -22 -7
-25 -20 -73 4 -68 34 3 13 0 26 -5 30 -6 4 -9 -4 -7 -19 1 -16 -3 -25 -12 -25
-8 0 -12 4 -9 9 3 4 -7 14 -22 20 -24 11 -25 14 -9 22 9 6 17 15 17 21 0 6 -6
6 -15 -2 -23 -19 -44 3 -28 28 9 15 7 18 -9 19 -11 1 -23 5 -27 8 -3 4 -8 67
-10 142 l-3 135 22 -12 c12 -6 25 -9 28 -5 3 3 -4 9 -17 12 -21 5 -23 10 -17
54 10 71 0 60 -13 -14z"/>
<path d="M1187 3893 c-4 -3 -7 -24 -7 -45 0 -21 -4 -38 -10 -38 -5 0 -10 8
-10 17 0 15 -2 14 -15 -3 -8 -10 -14 -35 -13 -54 l1 -35 6 35 c4 26 11 35 26
35 16 0 21 8 23 38 3 30 7 37 18 33 17 -6 59 12 50 21 -3 3 -12 0 -21 -7 -11
-9 -18 -10 -28 -1 -8 6 -17 8 -20 4z"/>
<path d="M2292 3825 c0 -11 4 -33 8 -50 l8 -30 0 30 c0 17 -3 39 -8 50 l-9 20
1 -20z"/>
<path d="M4100 3723 c-1 -38 -2 -88 -4 -113 -2 -25 -6 -88 -9 -140 -6 -92 -5
-91 7 25 14 125 20 295 11 295 -3 0 -5 -30 -5 -67z"/>
<path d="M1105 3733 c-3 -26 -8 -56 -10 -65 -2 -10 0 -18 5 -18 8 0 23 120 16
128 -3 2 -7 -18 -11 -45z"/>
<path d="M2337 3705 c3 -27 7 -52 9 -54 8 -9 2 65 -6 84 -6 13 -7 2 -3 -30z"/>
<path d="M1060 3612 c-6 -38 -10 -89 -7 -113 l4 -44 1 51 c1 28 7 76 13 108 6
32 8 60 6 63 -3 2 -10 -27 -17 -65z"/>
<path d="M2371 3640 c0 -8 6 -37 14 -65 l15 -50 -7 45 c-6 48 -21 96 -22 70z"/>
<path d="M2415 3529 c5 -32 2 -37 -17 -42 -22 -6 -22 -5 -4 8 11 8 15 15 10
15 -12 0 -34 -21 -34 -33 0 -5 14 -6 30 -2 28 6 30 5 30 -22 0 -17 -3 -23 -8
-16 -5 8 -13 9 -22 3 -13 -8 -12 -10 3 -10 15 0 22 -11 18 -32 -2 -12 17 -10
24 2 3 6 2 10 -4 10 -5 0 -8 14 -5 33 3 17 -2 52 -10 77 -15 43 -15 43 -11 9z"/>
<path d="M4043 3535 c1 -21 8 -31 22 -33 18 -3 19 -3 3 10 -9 7 -19 22 -21 33
-3 12 -5 8 -4 -10z"/>
<path d="M2451 3455 c0 -5 6 -37 14 -70 11 -48 13 -53 13 -25 0 19 -6 51 -13
70 -7 19 -14 31 -14 25z"/>
<path d="M1040 3327 c0 -121 0 -124 22 -122 21 2 22 7 26 91 2 49 -1 100 -6
114 -7 18 -8 5 -4 -47 5 -77 -3 -143 -18 -143 -6 0 -10 47 -10 109 0 106 1
110 23 114 19 4 18 4 -5 6 l-28 1 0 -123z"/>
<path d="M4763 3435 c-3 -9 -3 -19 1 -22 3 -4 6 1 6 10 0 8 8 18 18 20 16 4
16 5 -1 6 -10 0 -20 -6 -24 -14z"/>
<path d="M2496 3326 c3 -27 10 -60 15 -73 10 -26 29 -22 28 5 0 14 -2 13 -9
-3 -6 -17 -9 -13 -15 20 -4 22 -11 54 -16 70 -7 23 -7 19 -3 -19z"/>
<path d="M4057 3310 c-16 -140 -16 -152 -2 -80 9 41 14 91 13 110 -2 25 -5 16
-11 -30z"/>
<path d="M3216 3145 c4 -85 8 -141 19 -225 1 -8 5 -22 8 -30 6 -17 30 -255 29
-285 -1 -11 4 -23 11 -27 9 -5 12 -68 12 -233 0 -124 3 -225 6 -225 3 0 4 14
1 30 -2 17 0 30 4 30 5 0 8 24 7 52 -6 124 -8 236 -4 233 2 -3 12 0 22 6 13 7
19 20 18 42 -2 29 -2 30 -6 5 -2 -14 -10 -32 -18 -38 -14 -12 -16 -6 -29 88
-2 14 3 26 14 32 18 10 34 60 19 60 -5 0 -9 -8 -9 -18 0 -11 -8 -26 -18 -36
-18 -16 -19 -14 -21 38 -1 47 1 55 19 61 14 4 20 14 19 33 -2 24 -2 24 -6 4
-2 -12 -13 -27 -24 -33 -18 -9 -20 -7 -19 28 0 21 -4 66 -8 101 -7 55 -6 63
10 68 10 3 18 11 18 19 0 7 2 22 5 32 3 10 0 7 -7 -7 -13 -26 -30 -42 -37 -35
-2 3 1 10 6 17 14 18 25 81 13 73 -6 -3 -10 -16 -10 -28 0 -12 -5 -29 -10 -37
-8 -12 -10 -10 -11 10 0 14 -4 60 -7 102 -7 73 -6 77 13 80 15 2 20 11 22 38
1 33 1 33 -5 6 -4 -16 -12 -31 -19 -33 -12 -4 -18 13 -27 72 -2 17 -2 -15 0
-70z"/>
<path d="M2546 3198 c5 -33 3 -39 -17 -46 l-23 -9 27 -5 c19 -4 27 0 30 11 2
9 9 -4 16 -29 7 -25 16 -49 21 -55 4 -5 15 -34 25 -64 17 -51 17 -55 1 -67
-11 -8 -13 -14 -7 -19 6 -3 11 -4 11 0 0 3 8 1 19 -4 27 -15 36 -60 15 -75
-16 -12 -16 -13 1 -20 10 -3 20 -4 23 -1 3 3 0 5 -7 5 -7 0 -9 5 -5 12 5 7 11
5 21 -7 17 -25 17 -55 -1 -55 -8 0 -17 -4 -20 -9 -3 -5 5 -8 19 -7 21 1 25 6
25 33 0 17 -6 38 -13 45 -7 7 -20 38 -29 68 -9 30 -17 47 -17 38 -1 -10 -5
-18 -10 -18 -5 0 -7 8 -4 18 2 10 -4 43 -15 73 -11 30 -27 77 -37 104 -10 28
-21 52 -25 55 -4 3 -12 19 -18 35 -11 30 -11 29 -6 -7z"/>
<path d="M1052 3115 c0 -44 6 -132 13 -195 16 -126 16 -122 -5 170 l-7 105 -1
-80z"/>
<path d="M4855 3169 c-79 -12 -94 -20 -24 -13 51 5 57 4 62 -15 3 -12 11 -21
17 -21 9 0 9 4 -1 16 -10 13 -10 17 2 25 21 13 149 10 192 -5 36 -13 54 -5 20
9 -29 12 -203 15 -268 4z"/>
<path d="M6885 3164 c-38 -7 -52 -11 -30 -8 22 2 126 7 230 10 149 5 204 3
253 -9 34 -8 62 -11 62 -7 0 29 -381 40 -515 14z"/>
<path d="M4011 3060 c-7 -50 -11 -93 -9 -96 7 -6 31 161 26 176 -2 7 -10 -29
-17 -80z"/>
<path d="M4703 3128 c-18 -6 -33 -15 -33 -19 0 -5 12 -4 26 1 37 14 44 13 54
-12 6 -17 9 -18 9 -6 1 9 -5 20 -11 24 -9 6 -5 10 12 15 l25 7 -25 0 c-14 0
-40 -5 -57 -10z"/>
<path d="M5142 3129 c-28 -11 -28 -32 0 -69 21 -28 58 -41 58 -20 0 5 -6 7
-13 4 -18 -7 -61 41 -54 60 7 18 37 22 37 5 0 -5 4 -8 9 -4 5 3 12 -4 16 -15
3 -11 11 -20 16 -20 6 0 7 -4 4 -10 -3 -5 -1 -10 5 -10 6 0 8 -4 5 -10 -3 -5
-1 -10 4 -10 6 0 12 -17 13 -37 l1 -38 4 34 c5 34 -13 91 -28 91 -4 0 -10 8
-13 18 -9 26 -38 40 -64 31z"/>
<path d="M6745 3125 l-40 -14 40 6 c22 3 49 9 60 14 l20 8 -20 0 c-11 0 -38
-7 -60 -14z"/>
<path d="M7440 3117 c44 -13 59 -13 47 -1 -3 3 -25 8 -49 10 l-43 4 45 -13z"/>
<path d="M4615 3087 c-16 -6 -32 -13 -35 -17 -3 -3 -20 -12 -37 -19 -32 -13
-49 -36 -18 -25 9 4 15 0 15 -10 0 -19 -1 -19 -33 -7 -22 8 -37 2 -109 -44
-121 -78 -136 -91 -120 -106 10 -11 12 -9 12 7 1 19 1 19 15 0 8 -11 15 -15
15 -9 0 7 -5 15 -10 18 -6 4 -7 11 -4 17 4 7 14 1 25 -13 10 -13 19 -18 19
-11 0 7 5 10 10 7 14 -9 12 19 -2 33 -9 9 -9 12 0 12 6 0 16 -8 21 -17 9 -15
10 -15 11 -2 0 8 -5 20 -11 26 -17 17 48 40 72 25 11 -7 19 -8 19 -3 0 5 -10
13 -21 16 -17 6 -19 9 -8 16 21 13 27 11 34 -12 4 -11 9 -18 12 -16 2 3 -1 15
-7 27 -11 21 -10 21 34 17 42 -5 44 -4 37 17 -7 17 -2 25 28 43 39 24 97 30
103 11 3 -9 6 -9 11 -1 11 18 -43 32 -78 20z m-266 -192 c3 -12 -13 -9 -17 4
-2 7 0 11 6 7 5 -3 10 -8 11 -11z"/>
<path d="M6650 3089 c-13 -6 -27 -13 -30 -17 -3 -4 -24 -14 -47 -22 -24 -7
-43 -16 -43 -21 0 -4 -11 -10 -24 -13 -14 -3 -31 -12 -38 -19 -7 -6 -30 -21
-51 -32 -21 -11 -32 -22 -25 -24 7 -2 19 -11 26 -20 11 -14 12 -13 3 5 -13 28
22 52 47 32 15 -12 16 -11 4 4 -11 14 -10 18 9 29 19 10 25 9 36 -7 7 -10 13
-13 13 -8 0 6 -5 15 -10 20 -13 13 64 58 85 50 8 -3 15 0 15 7 0 8 4 7 11 -3
9 -13 10 -13 6 1 -4 11 3 20 19 28 33 15 45 14 58 -4 8 -10 16 -12 26 -5 13 8
13 11 1 22 -10 10 -12 10 -7 1 8 -15 -10 -18 -19 -3 -8 12 -32 12 -65 -1z"/>
<path d="M7483 3087 c-13 -5 -23 -15 -23 -21 0 -6 5 -5 12 2 7 7 20 12 29 12
23 0 73 -46 64 -59 -3 -6 -1 -11 4 -11 6 0 11 5 11 11 0 5 11 -2 24 -18 21
-25 22 -29 8 -39 -9 -7 -23 -9 -32 -6 -12 4 -13 2 -2 -9 10 -11 16 -11 33 -1
18 11 23 11 35 -5 20 -27 17 -3 -4 32 -24 38 -80 93 -112 110 -18 9 -31 10
-47 2z"/>
<path d="M3271 3063 c0 -12 -9 -27 -18 -32 -17 -10 -17 -10 0 -11 20 0 31 20
24 47 -4 15 -5 14 -6 -4z"/>
<path d="M5267 2924 c6 -77 5 -82 -16 -89 -20 -6 -22 -12 -19 -93 3 -81 4 -87
24 -86 19 0 21 -4 18 -75 l-3 -76 8 75 c9 88 4 340 -8 390 -6 24 -7 9 -4 -46z
m9 -130 c6 -33 -1 -122 -10 -132 -3 -2 -9 -1 -15 3 -12 7 -15 147 -4 158 14
14 22 6 29 -29z"/>
<path d="M1111 2973 c-1 -12 -9 -24 -18 -26 -17 -4 -17 -5 0 -6 19 -1 32 21
24 41 -3 7 -6 3 -6 -9z"/>
<path d="M3980 2931 c0 -18 -4 -22 -20 -18 -11 3 -23 1 -26 -4 -3 -5 5 -9 17
-9 20 0 21 -3 15 -50 -4 -27 -5 -50 -2 -50 7 0 28 141 22 147 -3 4 -6 -4 -6
-16z"/>
<path d="M6347 2923 c-4 -3 1 -12 11 -19 9 -7 14 -16 10 -20 -4 -4 -15 -1 -23
6 -14 11 -21 11 -48 -5 -18 -10 -42 -29 -54 -42 -12 -13 -26 -23 -31 -23 -10
0 -52 -43 -52 -53 0 -4 5 -7 11 -7 5 0 7 5 3 12 -5 8 -2 9 9 5 11 -4 17 -1 17
9 0 9 5 12 12 8 7 -4 8 -3 4 4 -11 17 5 14 26 -5 20 -18 26 -5 6 15 -9 9 -7
16 7 32 10 11 20 18 23 16 2 -3 13 4 24 14 19 17 23 17 43 4 22 -14 24 -14 30
7 5 13 2 25 -6 31 -10 7 -8 8 9 5 12 -3 22 -1 22 4 0 10 -43 12 -53 2z"/>
<path d="M7677 2880 c7 -64 9 -69 15 -37 2 12 -1 39 -8 57 -13 34 -13 33 -7
-20z"/>
<path d="M1113 2855 c-21 -24 -19 -33 3 -17 9 6 27 42 21 42 -1 0 -12 -12 -24
-25z"/>
<path d="M4237 2843 c-11 -10 -8 -142 3 -164 7 -13 21 -19 45 -19 32 0 34 -2
44 -50 6 -28 11 -58 11 -65 0 -9 10 -15 25 -15 16 0 23 4 19 13 -3 8 0 26 6
42 6 15 8 30 6 32 -3 3 -10 -13 -17 -36 -7 -23 -15 -41 -19 -41 -4 0 -13 29
-20 65 -12 64 -13 65 -44 65 -18 0 -37 5 -44 12 -16 16 -16 140 0 156 7 7 8
12 2 12 -6 0 -14 -3 -17 -7z"/>
<path d="M7708 2773 c3 -51 1 -83 -5 -83 -18 0 -21 11 -13 41 5 17 5 29 -1 29
-5 0 -9 -6 -10 -12 -5 -87 -6 -137 -2 -111 2 19 13 37 24 43 18 10 19 6 19
-124 0 -120 -2 -135 -17 -139 -15 -4 -14 -5 3 -6 20 -1 21 -9 27 -113 10 -165
9 -268 -3 -268 -6 0 -11 45 -12 113 l-2 112 -5 -115 c-5 -103 -4 -115 11 -118
12 -2 18 -18 23 -60 3 -31 10 -99 16 -150 8 -70 8 -97 -1 -107 -7 -8 -10 -20
-7 -27 3 -8 6 -6 6 5 1 10 6 15 11 12 12 -8 12 28 0 120 -6 39 -14 171 -20
295 -5 124 -14 329 -20 455 -5 127 -14 244 -19 260 -6 20 -7 3 -3 -52z"/>
<path d="M1110 2795 c-2 -30 -2 -30 -10 -5 -9 27 -6 -93 6 -217 3 -40 7 -86 8
-102 1 -27 16 -58 16 -34 0 6 8 13 19 16 12 3 20 16 23 38 7 45 1 50 -9 8 -11
-40 -30 -49 -37 -17 -14 69 -25 262 -15 280 6 10 8 29 6 41 -3 17 -5 16 -7 -8z"/>
<path d="M3918 2798 c13 -7 22 -20 22 -34 0 -21 -3 -22 -25 -14 -16 6 -25 6
-25 0 0 -6 9 -10 20 -10 16 0 20 -7 20 -30 0 -28 -2 -30 -21 -20 -11 7 -24 9
-27 5 -3 -3 4 -8 15 -11 14 -4 23 -15 25 -33 2 -15 9 7 17 53 14 74 13 80 -4
92 -10 8 -24 14 -29 13 -6 0 -1 -5 12 -11z"/>
<path d="M7671 2781 c-7 -5 -12 -13 -10 -18 2 -5 12 -1 22 9 18 19 12 24 -12
9z"/>
<path d="M2740 2731 c5 -11 10 -32 11 -48 0 -15 3 -22 6 -15 7 19 -6 82 -18
82 -6 0 -6 -7 1 -19z"/>
<path d="M6089 2712 c-20 -20 -50 -49 -68 -64 -17 -15 -31 -29 -31 -31 0 -2
-28 -33 -62 -68 -35 -36 -74 -79 -88 -97 -14 -18 -35 -43 -47 -57 -13 -15 -23
-32 -23 -39 0 -19 22 -36 45 -35 19 0 19 0 -1 9 -31 12 -35 24 -17 50 14 20
17 21 25 6 12 -21 42 -21 59 1 12 15 12 16 -5 10 -15 -6 -17 -3 -13 12 3 14 1
18 -9 14 -10 -4 -11 -10 -3 -24 11 -22 -3 -26 -20 -5 -18 22 34 80 59 66 29
-16 36 -13 85 34 61 60 57 69 -6 12 -43 -39 -54 -44 -71 -35 -19 10 -18 13 21
50 23 22 41 44 41 48 0 8 25 23 42 25 11 2 23 17 23 29 0 7 6 13 13 13 6 1 16
2 22 3 5 0 7 7 4 14 -2 7 14 30 36 51 39 37 41 38 60 21 21 -19 28 -7 8 13
-20 20 -41 13 -79 -26z m-69 -96 c0 -3 -4 -8 -10 -11 -5 -3 -10 -1 -10 4 0 6
5 11 10 11 6 0 10 -2 10 -4z"/>
<path d="M6660 2679 c0 -5 -4 -7 -10 -4 -16 10 -12 -11 5 -25 8 -7 25 -10 39
-6 39 10 102 -57 111 -118 4 -25 11 -46 15 -46 12 0 -9 81 -31 116 -18 29 -18
32 -2 45 15 12 16 12 10 -5 -6 -16 -5 -17 7 -7 12 10 13 16 3 26 -10 11 -15
10 -27 -5 -11 -13 -21 -16 -35 -10 -11 5 -15 9 -10 9 12 1 15 41 3 41 -4 0 -8
-7 -8 -15 0 -8 -7 -15 -15 -15 -8 0 -15 7 -15 15 0 8 -4 15 -9 15 -5 0 -7 -9
-4 -20 4 -14 0 -20 -12 -20 -12 0 -15 5 -10 20 3 11 4 20 1 20 -3 0 -6 -5 -6
-11z"/>
<path d="M1150 2640 c0 -10 -8 -24 -17 -29 -16 -9 -16 -10 -1 -11 10 0 15 -7
13 -17 -11 -53 -13 -95 -6 -87 10 10 25 164 16 164 -3 0 -5 -9 -5 -20z"/>
<path d="M2783 2610 c2 -47 -1 -55 -15 -54 -10 1 -15 -3 -12 -8 4 -5 15 -7 25
-5 14 4 19 1 17 -10 -2 -9 2 -17 7 -18 6 -1 7 0 2 3 -9 5 1 22 14 22 5 0 9
-16 9 -36 0 -27 5 -37 20 -41 26 -7 26 -33 -1 -33 -11 0 -17 -5 -14 -10 4 -6
13 -7 24 -1 21 12 32 5 51 -33 13 -26 13 -29 -4 -41 -17 -13 -17 -14 3 -12 11
1 21 6 21 12 0 5 5 2 11 -8 12 -20 4 -37 -16 -37 -8 0 -17 -4 -20 -10 -7 -11
23 -2 42 12 7 6 17 1 27 -14 17 -23 8 -38 -23 -38 -12 0 -12 3 -3 12 17 17 15
33 -3 18 -8 -7 -15 -19 -15 -26 0 -17 41 -19 57 -3 7 7 17 3 32 -17 27 -34 26
-42 -1 -54 -17 -6 -18 -9 -6 -9 9 -1 20 3 23 9 3 5 19 -4 35 -20 16 -17 35
-30 41 -30 8 0 10 -12 6 -35 -3 -21 -2 -33 4 -30 5 4 9 13 9 21 0 10 8 13 28
9 l27 -5 -27 12 c-16 7 -28 17 -28 23 0 7 -9 16 -19 21 -23 11 -171 205 -192
252 -7 17 -17 32 -21 32 -5 0 -14 15 -22 33 -8 17 -15 26 -15 19 -2 -28 -21 1
-21 31 0 18 -5 39 -10 47 -6 10 -10 11 -10 3 0 -7 -4 -13 -10 -13 -5 0 -10 17
-11 38 0 20 -4 46 -9 57 -6 14 -8 3 -7 -35z"/>
<path d="M3878 2638 c13 -7 22 -20 22 -34 0 -21 -3 -22 -26 -14 -16 7 -23 7
-19 0 3 -6 13 -10 22 -10 13 0 15 -9 10 -52 l-5 -53 13 50 c19 73 18 103 -4
115 -11 5 -23 10 -28 9 -4 0 2 -5 15 -11z"/>
<path d="M6570 2640 c0 -5 11 -16 24 -25 21 -14 26 -14 52 0 16 8 23 15 16 15
-7 0 -22 -5 -32 -10 -15 -8 -24 -6 -40 10 -11 11 -20 16 -20 10z"/>
<path d="M6561 2606 c16 -17 16 -19 -2 -37 -10 -10 -32 -19 -49 -19 -16 0 -30
-3 -30 -7 0 -5 15 -8 33 -8 32 1 97 48 84 62 -4 3 -7 3 -7 -2 0 -4 -10 0 -22
11 -21 17 -22 17 -7 0z"/>
<path d="M5223 2560 c1 -16 9 -26 22 -28 18 -3 18 -3 4 10 -9 7 -19 20 -23 28
-3 8 -4 4 -3 -10z"/>
<path d="M6861 2528 c-1 -10 -9 -18 -18 -18 -15 0 -16 -2 -3 -10 17 -10 35 12
26 33 -2 7 -5 4 -5 -5z"/>
<path d="M6450 2522 c0 -5 9 -12 20 -15 11 -3 20 -10 20 -17 0 -6 -4 -8 -10
-5 -5 3 -10 2 -10 -3 0 -6 -10 -8 -22 -5 -22 5 -22 5 -4 -9 12 -9 17 -21 13
-31 -9 -24 -53 -6 -49 19 2 16 1 16 -7 4 -7 -10 -5 -20 6 -32 15 -16 14 -32
-4 -92 -3 -11 -1 -16 5 -12 5 3 13 27 17 53 4 29 10 42 15 33 6 -10 11 -8 19
8 6 11 11 28 11 36 0 9 6 16 13 16 8 0 19 11 25 25 7 15 8 25 2 25 -6 0 -10
-5 -10 -10 0 -6 -11 -3 -25 6 -14 9 -25 12 -25 6z"/>
<path d="M5263 2465 c0 -22 2 -30 4 -17 2 12 2 30 0 40 -3 9 -5 -1 -4 -23z"/>
<path d="M3815 2480 c-9 -14 3 -30 23 -30 13 0 13 2 -4 16 -17 14 -17 15 -1
10 10 -3 21 -6 23 -6 2 0 4 -9 4 -21 0 -16 -5 -20 -27 -17 -20 2 -29 -2 -31
-14 -2 -10 1 -18 7 -18 6 0 8 6 5 14 -4 11 0 13 16 9 19 -5 21 -11 16 -57 -4
-42 -2 -39 11 22 12 58 13 75 3 87 -14 17 -36 20 -45 5z"/>
<path d="M5210 2470 c0 -5 9 -14 20 -20 11 -6 20 -9 20 -8 0 2 -9 11 -20 21
-11 9 -20 13 -20 7z"/>
<path d="M6835 2395 c3 -38 8 -122 11 -185 l7 -115 -53 -53 c-49 -49 -51 -54
-38 -74 8 -12 21 -24 29 -26 10 -4 9 1 -3 15 -10 11 -18 24 -18 29 0 5 22 30
49 56 27 26 46 49 44 52 -3 3 6 10 19 15 15 6 27 20 30 35 3 14 1 23 -3 20 -5
-3 -9 -12 -9 -19 0 -8 -9 -19 -20 -25 -19 -10 -20 -8 -20 55 0 57 2 65 18 63
14 -2 17 5 19 37 1 35 1 36 -5 10 -4 -17 -15 -31 -25 -33 -14 -3 -17 5 -18 50
-1 29 -5 78 -9 108 -9 54 -9 53 -5 -15z"/>
<path d="M5237 2351 c-10 -83 -15 -103 -28 -95 -13 8 -11 42 4 47 7 3 5 6 -5
6 -10 1 -18 8 -18 16 0 10 6 12 18 8 15 -6 15 -5 3 11 -11 13 -16 14 -22 4
-11 -18 -1 -90 13 -99 7 -5 9 -11 5 -16 -5 -4 -17 3 -28 17 -15 20 -18 21 -12
5 12 -37 57 -50 60 -17 1 9 7 44 13 77 6 32 9 71 8 85 -2 14 -7 -8 -11 -49z"/>
<path d="M1133 2340 c0 -41 2 -58 4 -37 2 20 2 54 0 75 -2 20 -4 3 -4 -38z"/>
<path d="M4336 2288 c-24 -375 -25 -1062 -1 -1086 2 -3 1 60 -3 139 -4 79 -7
191 -6 249 3 468 5 489 38 461 12 -10 16 -10 16 -1 0 6 -9 14 -20 17 -18 5
-20 14 -20 77 0 101 12 236 20 236 4 0 11 -30 15 -67 4 -38 11 -77 15 -88 6
-13 7 -3 2 25 -4 25 -7 63 -7 85 0 22 -4 43 -10 47 -26 20 -33 4 -39 -94z"/>
<path d="M1797 2355 c18 -13 20 -19 12 -62 -17 -90 -31 -106 -49 -58 -13 34
-20 32 -11 -2 6 -20 14 -28 29 -27 24 1 28 -6 12 -22 -6 -6 -13 -62 -16 -125
-3 -63 -7 -116 -9 -118 -12 -11 -35 12 -35 36 0 15 -4 35 -9 42 -6 10 -8 -1
-4 -30 3 -24 9 -45 12 -47 4 -1 5 -20 3 -41 -2 -21 1 -42 7 -45 13 -9 15 -46
2 -46 -5 0 -15 16 -21 36 -16 47 -23 39 -8 -9 8 -25 17 -37 30 -37 10 0 18 4
18 9 0 5 4 43 10 83 5 40 12 120 14 177 3 65 10 107 17 112 7 4 10 13 7 20 -3
8 0 41 7 74 8 33 14 53 14 44 1 -9 12 -29 26 -45 14 -16 25 -35 25 -41 0 -7 7
-13 15 -13 8 0 15 -9 15 -19 0 -11 6 -26 13 -33 6 -7 18 -25 26 -40 8 -16 18
-28 23 -28 5 0 13 -12 18 -26 12 -29 59 -95 77 -107 7 -4 13 -14 13 -20 0 -18
94 -139 98 -127 6 18 22 0 22 -25 0 -29 16 -41 24 -19 3 8 11 12 16 9 8 -5 7
-11 -1 -21 -18 -22 -4 -42 26 -36 25 4 26 3 16 -17 -9 -16 -8 -27 3 -49 16
-31 46 -60 46 -44 0 5 -7 15 -15 22 -8 7 -12 16 -9 21 3 5 -1 9 -8 9 -10 0 -9
3 2 10 9 6 17 5 23 -3 6 -8 7 -8 4 3 -2 9 -13 14 -28 12 l-24 -3 23 20 24 21
-43 6 -42 7 22 19 c17 13 19 18 8 18 -8 0 -17 6 -20 13 -3 9 -7 9 -20 -2 -15
-11 -17 -11 -17 1 0 8 6 20 13 27 10 10 9 11 -4 6 -10 -4 -20 -1 -24 4 -3 6
-11 8 -17 5 -8 -5 -9 -1 -5 10 4 9 3 14 -2 11 -5 -3 -17 5 -25 17 -14 20 -14
23 5 36 17 12 18 16 8 23 -8 5 -26 9 -41 9 -18 0 -29 7 -33 20 -3 11 -11 20
-16 20 -6 0 -7 5 -3 12 4 6 3 8 -3 5 -6 -4 -13 0 -16 8 -4 8 2 16 14 20 10 4
19 11 19 18 0 8 -3 8 -12 -1 -16 -16 -45 -15 -51 2 -6 15 1 26 14 26 5 0 5 -8
2 -17 -6 -16 -5 -17 11 -3 11 8 14 16 7 18 -6 2 -9 8 -5 13 3 5 -7 4 -22 -1
-20 -8 -25 -7 -21 2 4 13 -17 41 -25 32 -3 -2 -11 7 -18 21 -12 22 -11 27 6
40 10 8 14 15 7 15 -6 0 -15 -4 -18 -10 -8 -13 -25 -13 -25 -1 0 5 9 13 21 16
11 4 18 9 16 12 -3 2 -14 0 -25 -6 -18 -9 -21 -8 -24 12 -2 12 -7 22 -13 22
-5 -1 -16 10 -23 24 -11 21 -10 26 4 34 13 8 14 11 3 18 -8 5 -22 6 -31 3 -10
-3 -18 0 -18 6 0 13 -40 49 -55 50 -5 0 0 -7 12 -15z m78 -55 c-3 -5 -11 -10
-16 -10 -6 0 -7 5 -4 10 3 6 11 10 16 10 6 0 7 -4 4 -10z m-115 -412 c0 -32
-3 -39 -10 -28 -13 20 -13 70 0 70 6 0 10 -19 10 -42z m380 27 c-10 -12 -16
-13 -26 -4 -20 16 -18 19 12 19 22 0 25 -2 14 -15z"/>
<path d="M6379 2365 c-1 -3 -2 -10 -3 -15 0 -6 -8 -15 -16 -21 -12 -9 -12 -10
4 -5 19 7 19 -4 1 -94 -3 -14 2 -7 10 15 9 22 15 57 13 77 -2 21 1 40 7 42 5
2 4 5 -2 5 -7 1 -14 -1 -14 -4z"/>
<path d="M1763 2343 c-9 -3 -10 -10 -3 -23 6 -11 10 -23 9 -27 -4 -22 2 -53
10 -53 4 0 6 12 3 26 -3 16 1 30 9 35 11 7 10 9 -3 9 -10 0 -18 4 -18 9 0 5 8
11 18 13 14 3 14 5 2 9 -8 3 -21 4 -27 2z"/>
<path d="M5741 2323 c-8 -18 -9 -29 -1 -37 14 -14 13 -26 -4 -26 -8 0 -17 8
-19 18 -3 12 -7 7 -12 -15 -4 -18 -15 -33 -26 -36 -15 -4 -19 -14 -19 -46 0
-23 4 -41 8 -41 4 0 6 15 4 34 -2 18 1 37 7 40 6 4 11 0 12 -11 0 -15 2 -14
11 5 8 15 17 21 30 17 26 -9 42 3 27 21 -9 11 -7 14 9 14 12 0 24 5 28 11 4 7
0 9 -13 5 -13 -4 -25 0 -34 10 -13 16 -11 17 14 12 15 -3 27 -1 27 3 0 5 -9 9
-21 9 -16 0 -19 4 -14 20 9 29 0 25 -14 -7z m15 -84 c3 -5 1 -9 -5 -9 -17 0
-41 12 -41 20 0 10 38 1 46 -11z"/>
<path d="M3803 2312 c18 -19 18 -25 4 -86 -16 -68 -30 -91 -63 -98 -25 -4 -25
-32 1 -36 l20 -4 -20 16 c-20 15 -20 15 3 16 24 0 27 -13 16 -68 -6 -28 -8
-30 -27 -20 -20 10 -20 12 -3 18 16 5 16 7 3 18 -13 11 -17 9 -22 -10 -5 -13
-3 -24 3 -26 6 -2 8 -10 5 -18 -3 -8 -1 -14 5 -14 5 0 12 -9 15 -21 5 -17 1
-20 -26 -17 -23 2 -32 -1 -35 -14 -2 -10 1 -18 7 -18 6 0 8 7 5 15 -7 17 4 19
25 6 11 -7 11 -19 2 -67 -6 -33 -13 -68 -14 -79 -2 -12 -9 -18 -17 -16 -32 8
-45 5 -45 -9 0 -8 9 -16 20 -18 l20 -4 -20 16 c-21 16 -10 22 13 7 9 -5 12
-24 8 -62 l-6 -54 16 60 c18 74 21 87 34 155 6 30 14 62 17 70 3 8 5 21 4 28
-1 8 2 19 8 26 6 7 13 39 17 72 4 32 13 68 19 79 7 11 18 46 25 78 14 61 9 86
-21 95 -10 4 -8 -1 4 -16z m-53 -302 c0 -5 -2 -10 -4 -10 -3 0 -8 5 -11 10 -3
6 -1 10 4 10 6 0 11 -4 11 -10z"/>
<path d="M1144 2045 c0 -121 2 -169 3 -107 2 62 2 161 0 220 -1 59 -3 8 -3
-113z"/>
<path d="M5196 2139 c-9 -85 -22 -118 -32 -81 -4 12 -10 22 -15 22 -9 0 -1
-28 14 -47 6 -9 6 -13 -1 -13 -5 0 -17 10 -26 23 l-16 22 9 -25 c10 -31 56
-41 58 -13 1 10 7 45 13 78 6 32 9 71 8 85 -2 14 -8 -9 -12 -51z"/>
<path d="M6335 2163 c-4 -27 -9 -57 -12 -68 -6 -19 -6 -19 -16 3 -6 12 -14 22
-20 22 -5 0 -2 -11 7 -25 18 -28 21 -45 6 -45 -5 0 -12 11 -16 25 -4 14 -8 24
-11 22 -2 -3 -1 -16 3 -31 10 -42 38 -33 51 17 15 54 26 127 19 127 -2 0 -8
-21 -11 -47z"/>
<path d="M5624 2133 c-8 -47 -23 -78 -24 -49 0 29 -8 16 -18 -32 -6 -24 -6
-39 -1 -36 5 3 9 13 9 23 0 10 8 21 18 23 10 3 19 11 19 19 0 8 4 31 8 52 4
20 5 37 2 37 -4 0 -9 -17 -13 -37z"/>
<path d="M3271 2129 c-2 -28 -41 -61 -67 -56 -19 3 -22 1 -13 -9 8 -9 17 -10
36 -3 20 7 28 6 39 -8 7 -10 14 -13 14 -7 0 5 -5 15 -11 21 -14 14 -3 33 19
33 11 0 13 3 6 8 -6 4 -14 14 -17 22 -5 13 -6 13 -6 -1z"/>
<path d="M5140 2115 c0 -9 7 -18 15 -22 23 -8 24 0 3 20 -15 14 -18 15 -18 2z"/>
<path d="M5550 2003 c-1 -5 -5 -27 -9 -51 -6 -30 -5 -40 2 -33 10 10 21 91 12
91 -3 0 -5 -3 -5 -7z"/>
<path d="M5159 1978 c-1 -13 -2 -27 -4 -33 -1 -5 -3 -29 -3 -52 -2 -34 -5 -41
-18 -36 -9 3 -20 15 -24 27 -9 21 -9 21 -9 -1 -1 -13 4 -23 10 -23 6 0 7 -5 2
-12 -9 -15 -5 -59 7 -72 5 -5 6 10 3 33 -4 27 -2 41 6 41 15 0 15 -77 0 -86
-7 -4 -20 3 -29 16 l-18 24 5 -28 c5 -23 10 -27 29 -23 15 3 24 -1 27 -12 2
-9 4 1 4 21 1 20 4 54 7 75 10 70 17 163 12 163 -4 0 -7 -10 -7 -22z"/>
<path d="M6321 1942 c-1 -29 21 -102 32 -102 5 0 5 -4 2 -10 -3 -5 -2 -10 4
-10 5 0 18 -3 28 -6 13 -4 12 0 -7 18 -26 24 -46 64 -53 108 -4 23 -4 23 -6 2z"/>
<path d="M7725 1938 c-2 -7 -5 -36 -8 -64 -3 -47 -2 -51 15 -46 14 3 16 7 7
12 -8 5 -10 25 -7 59 5 49 2 65 -7 39z"/>
<path d="M6275 1929 c-11 -17 -2 -18 19 -3 17 12 17 14 4 14 -9 0 -20 -5 -23
-11z"/>
<path d="M5500 1846 c-7 -36 -10 -71 -7 -78 3 -7 6 -1 6 15 1 15 4 27 9 27 4
0 8 23 9 50 1 28 0 50 -2 50 -1 0 -8 -29 -15 -64z"/>
<path d="M6644 1887 c-16 -13 -36 -27 -44 -31 -8 -3 -3 -4 13 -1 19 4 29 1 33
-10 4 -8 11 -15 17 -15 5 0 2 10 -9 22 -18 21 -18 21 0 15 13 -5 17 -3 13 7
-7 19 13 26 37 14 11 -6 22 -6 27 -1 6 6 5 10 -3 10 -7 0 -23 3 -34 7 -15 5
-30 0 -50 -17z"/>
<path d="M7000 1787 c-18 -37 -31 -77 -29 -93 3 -33 -20 -86 -33 -78 -5 3 -3
13 4 22 11 13 11 14 -2 10 -8 -2 -16 -14 -18 -26 -5 -31 25 -29 40 3 6 14 15
25 20 25 5 0 6 15 3 34 -5 26 0 47 25 96 17 34 29 64 27 67 -3 2 -19 -25 -37
-60z"/>
<path d="M6540 1823 c-8 -4 -20 -13 -26 -21 -8 -12 -22 -14 -59 -9 -38 6 -52
3 -67 -10 -10 -9 -18 -21 -18 -26 0 -6 11 -1 24 12 20 19 28 21 64 13 34 -8
43 -7 60 11 11 11 34 20 51 21 17 1 31 4 31 9 0 8 -38 8 -60 0z"/>
<path d="M1133 1750 c0 -41 2 -58 4 -37 2 20 2 54 0 75 -2 20 -4 3 -4 -38z"/>
<path d="M1739 1748 c-4 -125 -19 -239 -35 -263 -14 -19 -14 -19 -14 2 0 12 6
24 13 26 7 3 5 6 -5 6 -10 1 -18 8 -18 16 0 8 -4 15 -9 15 -10 0 2 -49 20 -82
5 -10 6 -37 3 -61 -5 -37 -9 -44 -25 -40 -11 3 -19 12 -19 21 0 8 -2 13 -5 10
-8 -7 6 -68 16 -68 5 0 6 7 3 15 -4 8 -1 15 5 15 6 0 11 -19 12 -42 1 -35 4
-28 15 37 8 44 12 88 10 98 -2 9 1 23 8 30 18 18 48 307 32 307 -3 0 -7 -19
-7 -42z"/>
<path d="M5472 1725 c0 -33 2 -36 9 -17 5 12 12 22 17 22 5 0 17 -10 26 -22
l16 -23 -9 25 c-5 15 -16 25 -27 25 -11 0 -22 7 -25 15 -4 8 -7 -3 -7 -25z"/>
<path d="M5124 1647 c1 -45 -3 -77 -9 -77 -5 0 -4 -4 4 -9 12 -8 12 -12 -2
-26 -24 -23 -21 -32 3 -10 22 19 27 13 32 -35 3 -25 42 -51 77 -49 9 0 -1 7
-21 16 -21 8 -38 20 -38 27 0 6 -7 24 -15 39 -8 15 -12 34 -8 42 3 8 0 15 -6
15 -6 0 -12 30 -14 73 l-4 72 1 -78z"/>
<path d="M3610 1672 c0 -11 22 -32 34 -32 5 0 1 7 -10 15 -20 15 -9 21 14 7 9
-7 9 -27 -4 -100 -8 -51 -14 -97 -12 -103 2 -7 11 35 21 91 12 76 13 107 5
117 -11 14 -48 18 -48 5z"/>
<path d="M5462 1573 l-2 -113 -57 -1 c-57 -1 -130 -16 -89 -18 10 -1 24 -9 31
-18 12 -16 45 -27 45 -15 0 4 -5 14 -10 22 -7 11 -10 11 -10 2 0 -7 -4 -10
-10 -7 -26 16 -7 27 40 23 32 -3 54 0 61 8 6 7 8 56 6 120 l-3 109 -2 -112z"/>
<path d="M7797 1613 c9 -45 10 -69 3 -71 -5 -2 -10 -9 -10 -15 0 -7 6 -5 15 4
14 13 14 24 3 82 -7 37 -15 67 -19 67 -4 0 0 -30 8 -67z"/>
<path d="M1106 1585 c-4 -42 -10 -83 -13 -92 -4 -10 -2 -14 4 -10 6 4 14 43
18 87 l7 79 24 -16 c13 -8 24 -11 24 -5 0 5 -8 12 -17 16 -10 3 -23 8 -29 11
-7 4 -13 -20 -18 -70z"/>
<path d="M5492 1648 c9 -7 19 -22 21 -33 3 -12 5 -8 4 10 -1 21 -8 31 -22 33
-18 3 -19 3 -3 -10z"/>
<path d="M7745 1649 c-4 -6 -4 -13 -1 -16 3 -4 6 -1 6 5 0 6 8 13 18 15 15 4
15 5 0 6 -9 0 -20 -4 -23 -10z"/>
<path d="M1680 1614 c6 -14 10 -36 10 -49 0 -13 4 -27 10 -30 6 -4 7 6 4 25
-5 22 -3 30 7 30 10 1 8 4 -3 11 -10 5 -18 17 -18 24 0 8 -4 15 -10 15 -6 0
-6 -9 0 -26z"/>
<path d="M2353 1629 c14 -8 16 -14 7 -24 -16 -19 -6 -43 43 -106 72 -93 90
-110 98 -97 6 9 11 9 24 -2 12 -10 19 -10 27 -2 9 9 6 12 -12 14 -14 0 -30 2
-37 2 -15 2 -53 36 -53 49 0 5 9 7 20 4 11 -3 23 0 26 5 5 7 -4 9 -25 6 -40
-6 -76 26 -51 45 18 15 20 49 2 55 -7 2 -20 -2 -28 -9 -13 -10 -17 -10 -25 2
-13 21 -11 25 14 37 18 9 19 11 4 11 -10 1 -15 6 -12 11 3 6 -4 10 -17 10 -21
-1 -21 -2 -5 -11z m63 -95 c-5 -13 -9 -14 -21 -4 -13 11 -13 14 2 26 20 14 29
3 19 -22z"/>
<path d="M8101 1613 c-13 -5 -26 -15 -76 -58 -13 -11 -35 -29 -49 -40 -14 -11
-36 -28 -47 -37 -12 -10 -24 -18 -27 -18 -9 0 -54 53 -62 74 -7 17 -8 15 -7
-11 1 -18 7 -33 14 -33 18 0 27 -20 14 -33 -6 -6 -11 -16 -11 -21 0 -6 4 -4
10 4 5 8 25 15 46 16 22 0 42 8 50 18 11 15 27 23 58 25 4 1 6 7 3 15 -3 8 7
24 25 38 17 12 38 30 46 38 19 19 143 21 149 3 2 -6 -2 -13 -9 -16 -7 -2 -5
-3 4 -2 9 2 19 -4 22 -12 11 -27 6 -90 -10 -128 -8 -20 -13 -40 -10 -42 12
-13 30 57 31 118 0 90 -17 109 -94 108 -31 0 -62 -3 -70 -6z m-91 -97 c0 -3
-4 -8 -10 -11 -5 -3 -10 -1 -10 4 0 6 5 11 10 11 6 0 10 -2 10 -4z"/>
<path d="M6951 1576 c-1 -14 -6 -17 -24 -12 -21 5 -23 2 -24 -37 -2 -40 -1
-41 7 -12 6 19 17 31 28 32 17 1 21 -10 32 -88 7 -49 15 -87 18 -85 2 3 -1 42
-8 86 -13 82 -7 111 20 95 8 -5 6 -11 -7 -21 -10 -7 -13 -14 -7 -14 17 0 37
27 29 40 -4 7 -18 9 -30 6 -17 -4 -25 -1 -28 11 -4 16 -5 16 -6 -1z"/>
<path d="M1133 1540 c9 -6 15 -15 12 -21 -4 -5 -1 -9 5 -9 20 0 6 35 -15 38
-18 3 -19 2 -2 -8z"/>
<path d="M3581 1511 c-11 -7 -9 -13 9 -31 20 -20 22 -29 16 -74 -14 -120 -15
-128 -1 -66 19 86 19 129 0 136 -8 4 -15 13 -15 21 0 13 2 13 17 2 14 -12 16
-12 12 0 -7 19 -20 23 -38 12z"/>
<path d="M6865 1510 c3 -6 -4 -10 -17 -11 l-23 0 23 -9 c12 -5 22 -14 22 -20
0 -7 -7 -7 -22 1 -22 11 -22 11 -6 -7 23 -26 6 -59 -22 -44 -23 12 -30 13 -30
1 0 -5 10 -11 22 -13 l22 -3 -25 -25 c-15 -16 -34 -25 -49 -24 -23 2 -23 2 -2
-3 24 -5 26 -23 2 -31 -7 -3 -10 0 -7 5 10 15 -50 14 -63 -2 -15 -18 0 -21 18
-3 8 8 15 8 26 -2 20 -16 10 -32 -16 -28 -12 2 -23 -3 -25 -10 -3 -7 1 -10 11
-6 9 3 16 2 16 -4 0 -15 -26 -33 -41 -29 -8 2 -11 2 -7 0 5 -3 4 -13 -2 -22
-6 -13 -18 -17 -37 -15 l-28 4 29 -10 c33 -10 46 -6 46 16 0 8 6 14 14 14 7 0
26 17 42 37 16 21 35 45 44 54 88 97 128 180 93 193 -8 3 -11 1 -8 -4z"/>
<path d="M1066 1383 c-4 -27 -9 -61 -11 -78 -4 -23 -3 -25 4 -10 10 23 25 135
18 135 -3 0 -8 -21 -11 -47z"/>
<path d="M8214 1401 c-5 -26 -9 -29 -28 -21 -18 6 -22 4 -23 -11 -1 -10 2 -19
7 -19 4 0 7 -8 5 -17 -2 -10 -4 -21 -4 -25 -1 -4 -12 -3 -26 4 -27 12 -25 30
3 22 14 -5 14 -4 -1 6 -25 16 -46 -2 -28 -24 9 -10 9 -15 0 -18 -7 -2 -5 -9 7
-18 16 -14 17 -13 11 3 -3 9 -2 17 3 17 14 0 12 -28 -2 -44 -11 -12 -17 -12
-39 0 -15 7 -29 10 -33 7 -11 -11 -6 -40 8 -53 18 -14 10 -41 -10 -33 -8 3
-14 0 -14 -6 0 -7 -9 -9 -24 -5 -14 3 -27 1 -32 -7 -5 -9 -2 -10 11 -6 19 8
48 -10 40 -23 -3 -5 -14 -6 -24 -3 -10 3 -22 -1 -26 -7 -5 -9 -1 -10 14 -5 25
8 27 -2 4 -27 -9 -10 -11 -18 -5 -18 16 0 53 57 50 77 -2 11 2 17 10 15 26 -5
127 147 119 178 -3 11 -1 23 4 26 5 3 9 0 9 -7 0 -8 3 -9 9 -3 10 10 23 74 16
74 -3 0 -8 -13 -11 -29z m-103 -161 c15 0 10 -20 -7 -27 -9 -3 -20 0 -25 8
-13 21 -11 32 7 25 9 -3 20 -6 25 -6z"/>
<path d="M1105 1395 c17 -14 17 -16 3 -11 -10 3 -18 1 -18 -5 0 -6 8 -9 18 -7
24 5 22 32 -3 36 l-20 4 20 -17z"/>
<path d="M2553 1373 c-14 -9 -23 -11 -23 -4 0 6 -5 11 -10 11 -6 0 -4 -12 4
-27 18 -34 63 -83 76 -83 6 0 10 -6 10 -13 0 -18 131 -147 150 -147 23 0 39
20 33 39 -7 20 -101 119 -126 132 -13 7 -23 7 -32 -1 -16 -13 -55 6 -55 27 0
17 17 17 24 1 4 -8 5 -7 2 2 -2 8 -12 14 -24 13 -11 -1 -25 4 -32 12 -9 11 -7
16 10 25 11 6 26 8 33 4 8 -5 7 -2 -2 9 -7 9 -14 17 -15 16 0 0 -11 -7 -23
-16z m176 -167 c28 -27 51 -55 51 -62 0 -27 -23 -25 -49 5 -15 17 -31 28 -36
23 -4 -4 -5 3 -2 16 3 13 1 20 -5 16 -5 -3 -22 7 -38 22 -24 25 -26 30 -12 40
18 13 12 16 91 -60z"/>
<path d="M7001 1362 c-1 -35 18 -124 29 -132 3 -3 12 -24 19 -48 13 -46 51
-116 51 -94 0 6 -9 29 -20 50 -11 20 -23 54 -26 74 -4 21 -10 35 -15 33 -7 -5
-19 42 -32 125 -3 20 -5 18 -6 -8z"/>
<path d="M1637 1318 c7 -8 10 -18 6 -21 -3 -4 0 -13 7 -22 14 -17 0 -93 -26
-129 -7 -11 -14 -34 -14 -51 0 -17 -7 -40 -15 -51 -13 -16 -16 -17 -25 -4 -6
9 -10 10 -10 3 0 -6 5 -15 10 -18 10 -6 8 -22 -12 -74 -7 -19 -11 -21 -23 -11
-10 9 -15 9 -15 1 0 -6 5 -11 10 -11 16 0 12 -21 -16 -76 -17 -34 -32 -51 -43
-49 -9 1 -11 0 -4 -2 6 -2 13 -12 15 -21 3 -11 9 -4 18 21 8 20 17 37 21 37 4
0 13 20 20 45 7 25 16 45 20 45 3 0 12 21 19 48 8 26 17 50 22 53 5 3 12 29
17 58 5 29 13 56 18 60 6 3 16 32 23 63 10 44 10 61 1 72 -9 11 -9 15 1 18 8
3 4 10 -12 18 -22 12 -24 11 -13 -2z"/>
<path d="M5496 1292 c-3 -21 1 -59 9 -87 13 -44 14 -45 9 -10 -11 63 -9 106 5
114 10 6 9 9 -2 14 -11 4 -16 -4 -21 -31z"/>
<path d="M1025 1257 c-4 -27 -13 -51 -21 -54 -7 -2 -18 -29 -25 -59 -7 -30
-16 -57 -20 -59 -4 -3 -5 5 -2 17 5 18 -2 14 -26 -16 -17 -21 -31 -42 -31 -46
0 -12 46 -50 53 -43 4 3 -5 15 -20 25 l-28 18 32 0 c26 0 31 3 28 20 -2 12 2
20 10 20 8 0 12 6 9 14 -7 18 14 96 26 96 12 0 33 76 27 98 -2 9 -7 -5 -12
-31z m-70 -198 c-4 -5 -13 -9 -22 -9 -13 0 -13 3 -3 15 13 15 35 11 25 -6z"/>
<path d="M3562 1225 c-7 -37 -11 -69 -9 -71 6 -7 30 112 25 127 -2 6 -10 -18
-16 -56z"/>
<path d="M5405 1250 c4 -6 -7 -10 -24 -10 -19 0 -31 -5 -31 -13 0 -32 48 -48
80 -26 11 8 7 9 -16 4 -21 -4 -35 -1 -44 10 -8 9 -8 15 -2 15 6 0 14 -5 18
-11 5 -8 10 -6 16 5 7 13 13 14 30 5 16 -9 24 -7 37 6 15 16 15 17 -5 6 -17
-8 -25 -7 -34 4 -14 17 -35 21 -25 5z"/>
<path d="M4357 1190 c6 -69 21 -126 22 -84 1 14 9 24 23 27 12 4 19 9 16 13
-4 3 -15 1 -25 -4 -16 -10 -19 -4 -30 51 l-12 62 6 -65z"/>
<path d="M5525 1223 c6 -4 11 -25 12 -47 1 -21 5 -46 8 -55 6 -14 7 -14 16 2
6 9 15 15 20 11 6 -4 6 -11 -1 -20 -7 -7 -10 -19 -8 -25 5 -14 58 -22 58 -8 0
5 -12 9 -27 9 l-28 1 24 19 c18 16 20 20 7 20 -10 0 -14 5 -11 10 9 14 -19 12
-33 -2 -12 -12 -14 -6 -16 61 -1 13 -8 26 -16 28 -9 3 -11 1 -5 -4z"/>
<path d="M5345 1178 c2 -12 -3 -18 -15 -18 -10 0 -20 -10 -23 -21 -5 -17 -12
-21 -36 -17 -16 2 -28 1 -25 -4 12 -18 74 -4 74 17 0 7 14 15 30 19 17 3 30
10 30 15 0 6 -6 8 -14 5 -8 -3 -16 0 -19 8 -2 7 -3 5 -2 -4z"/>
<path d="M3530 1170 c0 -16 -7 -20 -31 -20 -24 0 -30 -4 -27 -17 2 -10 10 -18
18 -19 9 0 10 1 3 3 -21 7 -15 23 8 23 18 0 21 -5 17 -30 -3 -17 -1 -27 3 -23
9 10 22 103 15 103 -3 0 -6 -9 -6 -20z"/>
<path d="M6620 1176 c0 -13 -5 -16 -20 -11 -16 5 -20 2 -20 -19 0 -16 -6 -26
-15 -26 -8 0 -20 -9 -27 -20 -7 -11 -18 -20 -25 -20 -20 0 -26 20 -11 37 11
14 11 15 -2 11 -9 -3 -14 -16 -13 -32 1 -14 -3 -26 -9 -26 -5 0 -8 -7 -4 -15
3 -8 0 -15 -7 -15 -7 0 -20 -9 -30 -20 -22 -26 -36 -25 -47 3 -5 13 -9 16 -9
6 -1 -8 4 -20 11 -27 9 -9 8 -12 -5 -12 -9 0 -17 -4 -17 -10 0 -5 -21 -16 -47
-24 -27 -8 -43 -15 -38 -16 14 -2 -76 -30 -97 -30 -9 0 -18 6 -21 13 -2 6 -3
4 -2 -5 3 -20 -29 -26 -40 -8 -3 6 -46 10 -95 10 -49 0 -92 -4 -95 -10 -3 -5
-17 -10 -30 -10 -16 0 -22 5 -20 18 1 9 0 11 -2 5 -6 -16 -27 -16 -83 1 -38
11 -41 14 -23 20 11 4 26 5 33 4 7 -2 14 2 17 9 3 9 -5 9 -33 1 -47 -13 -93 4
-74 27 7 8 9 22 6 31 -6 15 -8 15 -31 0 -29 -19 -44 -21 -27 -4 20 20 14 31
-14 25 -16 -3 -28 0 -31 9 -3 8 -9 11 -15 8 -18 -12 14 -34 41 -28 23 5 24 4
9 -9 -16 -13 -16 -15 3 -30 10 -9 26 -17 34 -17 8 0 15 -4 15 -8 0 -16 90 -53
165 -67 108 -21 221 -19 329 6 50 12 93 25 96 29 3 4 22 13 43 19 20 7 37 17
37 22 0 5 6 9 14 9 8 0 27 11 43 24 15 13 38 26 51 30 12 4 22 11 22 16 0 5
-7 6 -17 3 -11 -4 -14 -3 -9 5 4 7 16 12 26 12 28 0 50 11 50 25 0 7 9 15 21
18 15 4 19 11 14 25 -5 16 -2 19 13 15 24 -6 39 14 23 30 -8 8 -11 6 -11 -7z
m-906 -181 c-4 -8 -12 -15 -20 -15 -8 0 -11 6 -8 15 4 8 12 15 20 15 8 0 11
-6 8 -15z m406 -95 c10 -7 -19 -10 -90 -10 -71 0 -100 3 -90 10 8 5 49 10 90
10 41 0 82 -5 90 -10z"/>
<path d="M1605 1169 c-11 -16 -1 -19 13 -3 7 8 8 14 3 14 -5 0 -13 -5 -16 -11z"/>
<path d="M2795 1101 c6 -11 4 -13 -8 -8 -10 3 -17 2 -17 -3 0 -6 4 -10 9 -10
6 0 22 -11 37 -25 15 -14 30 -25 34 -25 4 0 17 -9 30 -20 13 -11 34 -20 47
-20 12 0 23 -6 23 -13 0 -25 121 -50 134 -28 4 5 -3 7 -14 4 -28 -7 -107 16
-114 33 -3 8 -14 14 -25 14 -14 0 -18 5 -14 21 3 11 11 18 19 15 7 -3 16 -1
19 4 4 6 -4 10 -15 10 -13 0 -24 -8 -27 -20 -5 -20 -23 -28 -23 -11 0 5 -10
13 -22 17 -22 6 -73 53 -71 64 1 3 -1 7 -4 10 -4 3 -2 -1 2 -9z"/>
<path d="M7118 1105 c-10 -10 14 -89 33 -109 15 -16 21 -17 33 -7 8 7 20 10
26 6 5 -3 10 -1 10 4 0 14 -27 14 -35 1 -8 -13 -41 18 -50 49 -5 16 -3 26 6
32 11 7 9 9 -6 10 l-20 0 20 9 c15 6 16 9 4 9 -9 1 -18 -1 -21 -4z"/>
<path d="M3483 1093 c11 -7 9 -41 -3 -48 -6 -4 -18 -1 -26 6 -11 9 -20 9 -41
0 -23 -10 -25 -16 -20 -51 4 -35 3 -39 -21 -45 -15 -4 -30 -12 -34 -18 -4 -6
-53 -14 -115 -18 l-108 -7 113 2 c69 2 116 7 120 13 4 6 20 15 35 18 15 4 27
11 27 16 0 5 5 9 11 9 6 0 26 17 45 37 24 25 34 44 32 62 -2 13 -7 25 -13 26
-5 1 -7 0 -2 -2z m-39 -90 c-28 -25 -44 -23 -44 7 0 26 29 41 51 27 16 -10 16
-13 -7 -34z"/>
<path d="M4398 1068 c3 -19 12 -32 23 -35 10 -3 17 -9 14 -13 -4 -7 37 -47 93
-91 7 -6 45 -17 85 -26 82 -17 216 -12 307 12 30 8 39 12 20 9 -123 -18 -120
-18 -121 2 0 16 -2 15 -9 -4 -9 -21 -15 -23 -77 -20 -61 3 -68 5 -66 23 2 20
1 20 -13 0 -13 -18 -18 -18 -61 -6 -58 15 -61 17 -41 37 20 21 59 10 52 -14
-4 -14 -3 -13 6 2 10 15 9 20 -1 27 -22 14 -51 10 -65 -8 -16 -24 -29 -10 -15
16 9 17 6 26 -20 56 -18 20 -34 33 -37 30 -3 -3 8 -20 26 -38 27 -28 29 -34
18 -50 -13 -16 -16 -15 -46 19 -22 25 -30 43 -26 58 5 19 4 20 -8 4 -15 -20
-26 -14 -26 13 0 10 -4 20 -8 23 -5 3 -6 -9 -4 -26z"/>
<path d="M5225 1083 c-16 -9 -35 -22 -43 -29 -7 -8 -20 -14 -27 -14 -8 0 -18
-6 -22 -13 -4 -7 -24 -19 -43 -27 -19 -8 -37 -17 -40 -22 -3 -4 -30 -14 -60
-22 -35 -9 -45 -15 -29 -15 26 -1 90 17 99 28 3 3 22 14 43 23 20 10 37 22 37
28 0 5 7 10 15 10 8 0 30 11 50 24 20 14 41 27 48 29 7 2 10 7 7 10 -3 3 -18
-2 -35 -10z"/>
<path d="M7893 1045 c-42 -42 -44 -45 -29 -66 12 -18 13 -24 1 -35 -21 -21
-28 -17 -21 14 5 20 4 23 -4 12 -5 -8 -10 -25 -10 -38 0 -20 -4 -22 -32 -17
-24 4 -29 3 -18 -5 25 -16 53 -11 89 18 68 53 162 152 122 127 -5 -3 -12 4
-16 15 -10 31 -34 24 -82 -25z m71 19 c9 -23 9 -22 -36 -67 -41 -41 -41 -41
-50 -17 -7 20 -3 30 29 62 41 42 48 45 57 22z"/>
<path d="M880 1012 c-30 -14 -70 -45 -70 -54 0 -5 14 1 31 13 29 20 32 20 47
5 15 -15 15 -18 2 -26 -8 -5 -10 -10 -4 -10 6 0 17 6 23 14 9 10 8 16 -4 26
-9 7 -14 19 -11 27 3 7 4 13 3 12 -1 0 -9 -3 -17 -7z"/>
<path d="M7217 972 c-10 -10 -17 -23 -17 -29 0 -18 117 -101 158 -113 92 -28
352 -19 352 11 0 5 6 9 14 9 8 0 33 9 57 21 33 15 37 19 17 16 -20 -3 -29 1
-33 14 -4 11 -11 19 -18 19 -8 0 -8 -3 1 -12 30 -30 -7 -61 -39 -32 -20 18
-27 6 -7 -14 8 -8 5 -14 -16 -22 -39 -14 -57 -13 -73 8 -13 15 -13 15 -3 -5
l11 -23 -96 0 -96 0 11 23 c10 20 10 20 -3 5 -8 -10 -20 -18 -27 -18 -33 0
-91 26 -125 55 -32 29 -35 35 -24 53 10 16 10 23 -4 36 -20 20 -20 20 -40 -2z
m36 -8 c3 -3 1 -14 -6 -25 -8 -13 -14 -15 -24 -7 -10 8 -10 14 -2 24 12 15 22
17 32 8z"/>
<path d="M3180 970 c-25 -3 -36 -11 -38 -25 -4 -19 -3 -19 10 -2 19 25 97 26
115 1 7 -10 13 -14 13 -8 -1 30 -39 43 -100 34z"/>
<path d="M756 915 c-13 -14 -28 -25 -34 -25 -6 0 -15 -6 -19 -14 -4 -7 -18
-18 -30 -25 -13 -6 -23 -17 -23 -23 0 -9 3 -9 12 0 17 17 30 15 26 -5 -2 -13
-13 -18 -38 -18 -33 0 -35 -2 -36 -32 0 -41 -13 -55 -21 -24 -7 29 -23 9 -23
-31 0 -29 -15 -46 -23 -26 -2 7 -8 -4 -12 -25 -4 -20 -11 -40 -16 -43 -13 -7
-11 -164 1 -164 6 0 10 -9 10 -20 0 -39 79 -98 142 -106 26 -4 48 -10 48 -15
0 -5 45 -9 100 -9 55 0 100 4 100 9 0 4 25 11 57 14 31 3 59 10 62 15 3 5 24
15 46 22 22 8 47 21 55 30 9 9 28 20 43 24 15 3 27 13 27 22 0 8 3 13 8 10 4
-2 15 2 25 9 13 10 15 18 8 36 -7 16 -10 19 -10 7 -1 -20 -57 -78 -76 -78 -8
0 -18 -7 -22 -15 -5 -8 -28 -21 -52 -30 -36 -12 -46 -13 -53 -3 -6 9 -8 7 -6
-7 3 -17 -5 -22 -45 -29 -35 -7 -54 -6 -68 2 -23 15 -175 16 -184 2 -3 -5 -20
-10 -37 -10 -27 0 -30 2 -24 26 5 17 3 23 -4 19 -5 -3 -10 -13 -10 -21 0 -8
-7 -14 -16 -14 -14 0 -15 2 -3 17 11 13 11 17 2 20 -7 3 -13 11 -13 18 0 8
-13 23 -30 35 -21 15 -30 17 -30 8 0 -10 -3 -9 -10 2 -5 8 -10 11 -10 5 0 -19
17 -38 24 -26 5 7 12 7 26 -1 13 -8 16 -16 9 -24 -7 -8 -3 -13 13 -17 17 -5
20 -9 11 -18 -8 -8 -17 -6 -34 10 -13 11 -27 21 -31 21 -5 0 -15 15 -23 33
-12 27 -12 35 1 54 18 29 18 78 -1 107 -12 18 -13 30 -5 50 5 15 14 25 19 21
12 -7 26 33 22 60 -3 17 -1 17 14 5 11 -9 19 -10 23 -3 4 6 16 13 27 17 24 7
60 69 52 90 -3 8 2 21 12 30 14 13 20 13 30 3 11 -10 13 -9 9 3 -3 8 6 26 20
39 l25 23 18 -23 c10 -13 19 -19 19 -13 0 12 -32 44 -44 44 -4 0 -17 -11 -30
-25z m-97 -129 c9 -10 8 -16 -4 -26 -19 -16 -41 1 -32 24 8 20 21 20 36 2z
m-109 -246 c0 -10 -7 -31 -15 -46 -14 -28 -15 -27 -15 46 0 73 1 74 15 46 8
-15 15 -36 15 -46z m354 -205 c4 -13 -9 -15 -84 -15 -50 0 -90 4 -90 9 0 15
21 19 96 20 55 1 73 -2 78 -14z"/>
<path d="M7286 915 c-9 -26 -7 -32 5 -12 6 10 9 21 6 23 -2 3 -7 -2 -11 -11z"/>
<path d="M1454 774 c8 -27 -34 -97 -64 -105 -17 -5 -19 -7 -7 -8 10 -1 15 -6
11 -12 -3 -6 -16 -8 -28 -5 -11 3 -27 1 -35 -3 -10 -7 -8 -12 9 -24 20 -14 12
-36 -9 -23 -5 4 -7 -3 -4 -14 4 -16 0 -20 -23 -21 -29 0 -29 0 -5 -10 14 -5
27 -6 31 -2 115 139 159 220 129 239 -7 4 -9 0 -5 -12z m-89 -144 c3 -5 2 -10
-4 -10 -5 0 -13 5 -16 10 -3 6 -2 10 4 10 5 0 13 -4 16 -10z"/>
<path d="M1282 520 c-8 -13 -8 -20 -2 -20 6 0 13 7 17 15 9 24 -1 27 -15 5z"/>
</g>
</svg>
